<mxfile host="app.diagrams.net" modified="2022-05-25T12:49:41.349Z" agent="5.0 (Windows NT 10.0; Win64; x64) AppleWebKit/537.36 (KHTML, like Gecko) Chrome/101.0.4951.67 Safari/537.36" etag="BFwWJGhDHCuSQpMlO1I1" version="18.1.1" type="github">
  <diagram id="C5RBs43oDa-KdzZeNtuy" name="Page-1">
    <mxGraphModel dx="1697" dy="949" grid="0" gridSize="10" guides="1" tooltips="1" connect="1" arrows="1" fold="1" page="1" pageScale="1" pageWidth="827" pageHeight="1169" math="0" shadow="0">
      <root>
        <mxCell id="WIyWlLk6GJQsqaUBKTNV-0" />
        <mxCell id="WIyWlLk6GJQsqaUBKTNV-1" parent="WIyWlLk6GJQsqaUBKTNV-0" />
        <mxCell id="vVQFzIPWJmNAidumc_U4-0" value="需求沟通" style="rounded=0;whiteSpace=wrap;html=1;" parent="WIyWlLk6GJQsqaUBKTNV-1" vertex="1">
          <mxGeometry x="76" y="119" width="112" height="38" as="geometry" />
        </mxCell>
        <mxCell id="vVQFzIPWJmNAidumc_U4-1" value="需求评审" style="rounded=0;whiteSpace=wrap;html=1;" parent="WIyWlLk6GJQsqaUBKTNV-1" vertex="1">
          <mxGeometry x="241" y="119" width="112" height="38" as="geometry" />
        </mxCell>
        <mxCell id="vVQFzIPWJmNAidumc_U4-2" value="需求排期" style="rounded=0;whiteSpace=wrap;html=1;fillColor=#fff2cc;strokeColor=#d6b656;" parent="WIyWlLk6GJQsqaUBKTNV-1" vertex="1">
          <mxGeometry x="403" y="119" width="112" height="38" as="geometry" />
        </mxCell>
        <mxCell id="vVQFzIPWJmNAidumc_U4-3" value="需求评审" style="rounded=0;whiteSpace=wrap;html=1;" parent="WIyWlLk6GJQsqaUBKTNV-1" vertex="1">
          <mxGeometry x="568" y="119" width="112" height="38" as="geometry" />
        </mxCell>
        <mxCell id="vVQFzIPWJmNAidumc_U4-4" value="简易需求" style="rhombus;whiteSpace=wrap;html=1;" parent="WIyWlLk6GJQsqaUBKTNV-1" vertex="1">
          <mxGeometry x="557" y="212" width="120" height="48" as="geometry" />
        </mxCell>
        <mxCell id="vVQFzIPWJmNAidumc_U4-5" value="ITM" style="rounded=0;whiteSpace=wrap;html=1;fillColor=#d5e8d4;strokeColor=#82b366;" parent="WIyWlLk6GJQsqaUBKTNV-1" vertex="1">
          <mxGeometry x="47" y="555" width="121" height="24" as="geometry" />
        </mxCell>
        <mxCell id="vVQFzIPWJmNAidumc_U4-7" value="需求评审" style="rounded=0;whiteSpace=wrap;html=1;" parent="WIyWlLk6GJQsqaUBKTNV-1" vertex="1">
          <mxGeometry x="549" y="301" width="112" height="38" as="geometry" />
        </mxCell>
        <mxCell id="vVQFzIPWJmNAidumc_U4-8" value="需求管理" style="html=1;shadow=0;dashed=0;align=center;verticalAlign=middle;shape=mxgraph.arrows2.arrow;dy=0;dx=30;notch=30;fillColor=#0050ef;strokeColor=#001DBC;fontColor=#ffffff;" parent="WIyWlLk6GJQsqaUBKTNV-1" vertex="1">
          <mxGeometry x="36" y="437" width="174" height="41" as="geometry" />
        </mxCell>
        <mxCell id="vVQFzIPWJmNAidumc_U4-9" value="持续集成&amp;amp;测试" style="html=1;shadow=0;dashed=0;align=center;verticalAlign=middle;shape=mxgraph.arrows2.arrow;dy=0;dx=30;notch=30;fillColor=#1ba1e2;strokeColor=#006EAF;fontColor=#ffffff;" parent="WIyWlLk6GJQsqaUBKTNV-1" vertex="1">
          <mxGeometry x="188" y="436" width="370" height="43" as="geometry" />
        </mxCell>
        <mxCell id="vVQFzIPWJmNAidumc_U4-10" value="生产部署&amp;amp;监控" style="html=1;shadow=0;dashed=0;align=center;verticalAlign=middle;shape=mxgraph.arrows2.arrow;dy=0;dx=30;notch=30;fillColor=#60a917;fontColor=#ffffff;strokeColor=#2D7600;" parent="WIyWlLk6GJQsqaUBKTNV-1" vertex="1">
          <mxGeometry x="537" y="437" width="149" height="42" as="geometry" />
        </mxCell>
        <mxCell id="TghkMVHVYhyer6YsSxOP-1" value="技术文档管理" style="rounded=0;whiteSpace=wrap;html=1;fillColor=#dae8fc;strokeColor=#6c8ebf;" parent="WIyWlLk6GJQsqaUBKTNV-1" vertex="1">
          <mxGeometry x="135" y="492" width="33" height="54" as="geometry" />
        </mxCell>
        <mxCell id="TghkMVHVYhyer6YsSxOP-2" value="任务管理串联" style="rounded=0;whiteSpace=wrap;html=1;fillColor=#dae8fc;strokeColor=#6c8ebf;" parent="WIyWlLk6GJQsqaUBKTNV-1" vertex="1">
          <mxGeometry x="91" y="492" width="33" height="54" as="geometry" />
        </mxCell>
        <mxCell id="TghkMVHVYhyer6YsSxOP-3" value="需求管理" style="rounded=0;whiteSpace=wrap;html=1;fillColor=#dae8fc;strokeColor=#6c8ebf;" parent="WIyWlLk6GJQsqaUBKTNV-1" vertex="1">
          <mxGeometry x="47" y="492" width="33" height="54" as="geometry" />
        </mxCell>
        <mxCell id="TghkMVHVYhyer6YsSxOP-4" value="jira" style="rounded=0;whiteSpace=wrap;html=1;fillColor=#d5e8d4;strokeColor=#82b366;" parent="WIyWlLk6GJQsqaUBKTNV-1" vertex="1">
          <mxGeometry x="47" y="588" width="121" height="24" as="geometry" />
        </mxCell>
        <mxCell id="TghkMVHVYhyer6YsSxOP-5" value="confluence" style="rounded=0;whiteSpace=wrap;html=1;fillColor=#d5e8d4;strokeColor=#82b366;" parent="WIyWlLk6GJQsqaUBKTNV-1" vertex="1">
          <mxGeometry x="47" y="621" width="121" height="24" as="geometry" />
        </mxCell>
        <mxCell id="TghkMVHVYhyer6YsSxOP-6" value="&lt;span style=&quot;color: rgb(50 , 50 , 50) ; font-size: 13px ; background-color: rgba(255 , 255 , 255 , 0.01)&quot;&gt;编码开发&lt;/span&gt;" style="rounded=0;whiteSpace=wrap;html=1;fillColor=#dae8fc;strokeColor=#6c8ebf;" parent="WIyWlLk6GJQsqaUBKTNV-1" vertex="1">
          <mxGeometry x="189" y="492" width="33" height="54" as="geometry" />
        </mxCell>
        <mxCell id="TghkMVHVYhyer6YsSxOP-7" value="&lt;span style=&quot;color: rgb(50 , 50 , 50) ; font-size: 13px ; background-color: rgba(255 , 255 , 255 , 0.01)&quot;&gt;开发冒烟&lt;/span&gt;" style="rounded=0;whiteSpace=wrap;html=1;fillColor=#dae8fc;strokeColor=#6c8ebf;" parent="WIyWlLk6GJQsqaUBKTNV-1" vertex="1">
          <mxGeometry x="230" y="492" width="33" height="54" as="geometry" />
        </mxCell>
        <mxCell id="TghkMVHVYhyer6YsSxOP-8" value="&lt;span style=&quot;color: rgb(50 , 50 , 50) ; font-size: 13px ; background-color: rgba(255 , 255 , 255 , 0.01)&quot;&gt;sit冒烟&lt;/span&gt;" style="rounded=0;whiteSpace=wrap;html=1;fillColor=#dae8fc;strokeColor=#6c8ebf;" parent="WIyWlLk6GJQsqaUBKTNV-1" vertex="1">
          <mxGeometry x="271" y="492" width="33" height="54" as="geometry" />
        </mxCell>
        <mxCell id="TghkMVHVYhyer6YsSxOP-9" value="&lt;span style=&quot;color: rgb(50 , 50 , 50) ; font-size: 13px ; background-color: rgba(255 , 255 , 255 , 0.01)&quot;&gt;sit测试&lt;/span&gt;" style="rounded=0;whiteSpace=wrap;html=1;fillColor=#dae8fc;strokeColor=#6c8ebf;" parent="WIyWlLk6GJQsqaUBKTNV-1" vertex="1">
          <mxGeometry x="312" y="492" width="33" height="54" as="geometry" />
        </mxCell>
        <mxCell id="TghkMVHVYhyer6YsSxOP-11" value="&lt;span style=&quot;color: rgb(50 , 50 , 50) ; font-size: 13px ; background-color: rgba(255 , 255 , 255 , 0.01)&quot;&gt;uat测试&lt;/span&gt;" style="rounded=0;whiteSpace=wrap;html=1;fillColor=#dae8fc;strokeColor=#6c8ebf;" parent="WIyWlLk6GJQsqaUBKTNV-1" vertex="1">
          <mxGeometry x="354" y="492" width="33" height="54" as="geometry" />
        </mxCell>
        <mxCell id="TghkMVHVYhyer6YsSxOP-13" value="&lt;font color=&quot;#323232&quot;&gt;&lt;span style=&quot;font-size: 13px ; background-color: rgba(255 , 255 , 255 , 0.01)&quot;&gt;预演测试&lt;/span&gt;&lt;/font&gt;" style="rounded=0;whiteSpace=wrap;html=1;fillColor=#dae8fc;strokeColor=#6c8ebf;" parent="WIyWlLk6GJQsqaUBKTNV-1" vertex="1">
          <mxGeometry x="439" y="492" width="33" height="54" as="geometry" />
        </mxCell>
        <mxCell id="TghkMVHVYhyer6YsSxOP-14" value="&lt;font color=&quot;#323232&quot;&gt;&lt;span style=&quot;font-size: 13px ; background-color: rgba(255 , 255 , 255 , 0.01)&quot;&gt;预演制品库&lt;/span&gt;&lt;/font&gt;" style="rounded=0;whiteSpace=wrap;html=1;fillColor=#FFFF99;strokeColor=#d6b656;" parent="WIyWlLk6GJQsqaUBKTNV-1" vertex="1">
          <mxGeometry x="482" y="492" width="33" height="54" as="geometry" />
        </mxCell>
        <mxCell id="TghkMVHVYhyer6YsSxOP-15" value="&lt;font color=&quot;#323232&quot;&gt;&lt;span style=&quot;font-size: 13px ; background-color: rgba(255 , 255 , 255 , 0.01)&quot;&gt;生产制品库&lt;/span&gt;&lt;/font&gt;" style="rounded=0;whiteSpace=wrap;html=1;fillColor=#FFFF99;strokeColor=#d6b656;" parent="WIyWlLk6GJQsqaUBKTNV-1" vertex="1">
          <mxGeometry x="537" y="492" width="33" height="54" as="geometry" />
        </mxCell>
        <mxCell id="TghkMVHVYhyer6YsSxOP-16" value="&lt;font color=&quot;#323232&quot;&gt;&lt;span style=&quot;font-size: 13px ; background-color: rgba(255 , 255 , 255 , 0.01)&quot;&gt;生产部署&lt;/span&gt;&lt;/font&gt;" style="rounded=0;whiteSpace=wrap;html=1;fillColor=#dae8fc;strokeColor=#6c8ebf;" parent="WIyWlLk6GJQsqaUBKTNV-1" vertex="1">
          <mxGeometry x="578" y="492" width="33" height="54" as="geometry" />
        </mxCell>
        <mxCell id="TghkMVHVYhyer6YsSxOP-17" value="&lt;font color=&quot;#323232&quot;&gt;&lt;span style=&quot;font-size: 13px ; background-color: rgba(255 , 255 , 255 , 0.01)&quot;&gt;监控反馈&lt;/span&gt;&lt;/font&gt;" style="rounded=0;whiteSpace=wrap;html=1;fillColor=#dae8fc;strokeColor=#6c8ebf;" parent="WIyWlLk6GJQsqaUBKTNV-1" vertex="1">
          <mxGeometry x="619" y="492" width="33" height="54" as="geometry" />
        </mxCell>
        <mxCell id="TghkMVHVYhyer6YsSxOP-18" value="gitlab" style="rounded=0;whiteSpace=wrap;html=1;fillColor=#d5e8d4;strokeColor=#82b366;" parent="WIyWlLk6GJQsqaUBKTNV-1" vertex="1">
          <mxGeometry x="188" y="555" width="34" height="26" as="geometry" />
        </mxCell>
        <mxCell id="TghkMVHVYhyer6YsSxOP-20" value="测试CI/CD" style="rounded=0;whiteSpace=wrap;html=1;fillColor=#FFFF99;strokeColor=#d6b656;" parent="WIyWlLk6GJQsqaUBKTNV-1" vertex="1">
          <mxGeometry x="232" y="555" width="284" height="27" as="geometry" />
        </mxCell>
        <mxCell id="TghkMVHVYhyer6YsSxOP-21" value="jenkins" style="rounded=0;whiteSpace=wrap;html=1;fillColor=#d5e8d4;strokeColor=#82b366;" parent="WIyWlLk6GJQsqaUBKTNV-1" vertex="1">
          <mxGeometry x="233" y="588" width="282" height="28" as="geometry" />
        </mxCell>
        <mxCell id="TghkMVHVYhyer6YsSxOP-22" value="测试管理平台" style="rounded=0;whiteSpace=wrap;html=1;fillColor=#d5e8d4;strokeColor=#82b366;" parent="WIyWlLk6GJQsqaUBKTNV-1" vertex="1">
          <mxGeometry x="232" y="621" width="283" height="28" as="geometry" />
        </mxCell>
        <mxCell id="TghkMVHVYhyer6YsSxOP-23" value="生产CD" style="rounded=0;whiteSpace=wrap;html=1;fillColor=#FFFF99;strokeColor=#d6b656;" parent="WIyWlLk6GJQsqaUBKTNV-1" vertex="1">
          <mxGeometry x="537" y="555" width="76" height="28" as="geometry" />
        </mxCell>
        <mxCell id="TghkMVHVYhyer6YsSxOP-25" value="神策" style="rounded=0;whiteSpace=wrap;html=1;fillColor=#d5e8d4;strokeColor=#82b366;" parent="WIyWlLk6GJQsqaUBKTNV-1" vertex="1">
          <mxGeometry x="619" y="554" width="33" height="31" as="geometry" />
        </mxCell>
        <mxCell id="TghkMVHVYhyer6YsSxOP-26" value="日志监控" style="rounded=0;whiteSpace=wrap;html=1;fillColor=#d5e8d4;strokeColor=#82b366;" parent="WIyWlLk6GJQsqaUBKTNV-1" vertex="1">
          <mxGeometry x="619" y="590" width="33" height="31" as="geometry" />
        </mxCell>
        <mxCell id="cAcz769hHh3SFbhEY9O2-0" value="&lt;font color=&quot;#323232&quot;&gt;&lt;span style=&quot;font-size: 13px ; background-color: rgba(255 , 255 , 255 , 0.01)&quot;&gt;版本窗口&lt;/span&gt;&lt;/font&gt;" style="rounded=0;whiteSpace=wrap;html=1;fillColor=#ffe6cc;strokeColor=#d79b00;" parent="WIyWlLk6GJQsqaUBKTNV-1" vertex="1">
          <mxGeometry x="397" y="492" width="33" height="54" as="geometry" />
        </mxCell>
        <mxCell id="sv7OaY-NYu5rm58tcONJ-62" value="" style="rounded=0;whiteSpace=wrap;html=1;fillColor=#f5f5f5;strokeColor=none;strokeWidth=1;perimeterSpacing=8;shadow=0;sketch=0;glass=0;fontColor=#333333;" parent="WIyWlLk6GJQsqaUBKTNV-1" vertex="1">
          <mxGeometry x="91" y="731" width="722" height="426" as="geometry" />
        </mxCell>
        <mxCell id="sv7OaY-NYu5rm58tcONJ-63" value="" style="rounded=0;whiteSpace=wrap;html=1;fillColor=#d5e8d4;strokeColor=#82b366;" parent="WIyWlLk6GJQsqaUBKTNV-1" vertex="1">
          <mxGeometry x="110" y="803" width="547" height="81" as="geometry" />
        </mxCell>
        <mxCell id="sv7OaY-NYu5rm58tcONJ-64" value="&lt;b&gt;业务系统&lt;/b&gt;" style="text;html=1;resizable=0;autosize=1;align=center;verticalAlign=middle;points=[];fillColor=none;strokeColor=none;rounded=0;" parent="WIyWlLk6GJQsqaUBKTNV-1" vertex="1">
          <mxGeometry x="122" y="811" width="58" height="18" as="geometry" />
        </mxCell>
        <mxCell id="sv7OaY-NYu5rm58tcONJ-65" value="贷款页面" style="rounded=0;whiteSpace=wrap;html=1;fillColor=#0050ef;strokeColor=#001DBC;fontColor=#ffffff;" parent="WIyWlLk6GJQsqaUBKTNV-1" vertex="1">
          <mxGeometry x="125" y="835" width="90" height="35" as="geometry" />
        </mxCell>
        <mxCell id="sv7OaY-NYu5rm58tcONJ-66" value="运营活动" style="rounded=0;whiteSpace=wrap;html=1;fillColor=#0050ef;strokeColor=#001DBC;fontColor=#ffffff;" parent="WIyWlLk6GJQsqaUBKTNV-1" vertex="1">
          <mxGeometry x="225" y="835" width="90" height="35" as="geometry" />
        </mxCell>
        <mxCell id="sv7OaY-NYu5rm58tcONJ-67" value="配置系统" style="rounded=0;whiteSpace=wrap;html=1;fillColor=#0050ef;strokeColor=#001DBC;fontColor=#ffffff;" parent="WIyWlLk6GJQsqaUBKTNV-1" vertex="1">
          <mxGeometry x="330" y="835" width="90" height="35" as="geometry" />
        </mxCell>
        <mxCell id="sv7OaY-NYu5rm58tcONJ-68" value="消息系统" style="rounded=0;whiteSpace=wrap;html=1;fillColor=#0050ef;strokeColor=#001DBC;fontColor=#ffffff;" parent="WIyWlLk6GJQsqaUBKTNV-1" vertex="1">
          <mxGeometry x="435" y="835" width="90" height="35" as="geometry" />
        </mxCell>
        <mxCell id="sv7OaY-NYu5rm58tcONJ-69" value="......" style="rounded=0;whiteSpace=wrap;html=1;fillColor=#0050ef;strokeColor=#001DBC;fontColor=#ffffff;" parent="WIyWlLk6GJQsqaUBKTNV-1" vertex="1">
          <mxGeometry x="540" y="835" width="90" height="35" as="geometry" />
        </mxCell>
        <mxCell id="sv7OaY-NYu5rm58tcONJ-70" value="" style="rounded=0;whiteSpace=wrap;html=1;fillColor=#d5e8d4;strokeColor=#82b366;" parent="WIyWlLk6GJQsqaUBKTNV-1" vertex="1">
          <mxGeometry x="110" y="898" width="378" height="93" as="geometry" />
        </mxCell>
        <mxCell id="sv7OaY-NYu5rm58tcONJ-71" value="" style="rounded=0;whiteSpace=wrap;html=1;fillColor=#b1ddf0;strokeColor=#10739e;" parent="WIyWlLk6GJQsqaUBKTNV-1" vertex="1">
          <mxGeometry x="105" y="1001" width="552" height="56" as="geometry" />
        </mxCell>
        <mxCell id="sv7OaY-NYu5rm58tcONJ-72" value="&lt;b&gt;后台服务&lt;/b&gt;" style="rounded=0;whiteSpace=wrap;html=1;fillColor=#b1ddf0;strokeColor=#10739e;" parent="WIyWlLk6GJQsqaUBKTNV-1" vertex="1">
          <mxGeometry x="108" y="1073" width="551" height="73" as="geometry" />
        </mxCell>
        <mxCell id="sv7OaY-NYu5rm58tcONJ-73" value="" style="rounded=0;whiteSpace=wrap;html=1;fillColor=#cce5ff;strokeColor=#36393d;" parent="WIyWlLk6GJQsqaUBKTNV-1" vertex="1">
          <mxGeometry x="672.5" y="753" width="118" height="121" as="geometry" />
        </mxCell>
        <mxCell id="sv7OaY-NYu5rm58tcONJ-74" value="BFF" style="rounded=0;whiteSpace=wrap;html=1;fillColor=#60a917;strokeColor=#2D7600;fontColor=#ffffff;" parent="WIyWlLk6GJQsqaUBKTNV-1" vertex="1">
          <mxGeometry x="153" y="1013.5" width="188" height="31" as="geometry" />
        </mxCell>
        <mxCell id="sv7OaY-NYu5rm58tcONJ-75" value="&lt;b&gt;研发闭环&lt;/b&gt;" style="text;html=1;resizable=0;autosize=1;align=center;verticalAlign=middle;points=[];fillColor=none;strokeColor=none;rounded=0;" parent="WIyWlLk6GJQsqaUBKTNV-1" vertex="1">
          <mxGeometry x="678.5" y="758" width="58" height="18" as="geometry" />
        </mxCell>
        <mxCell id="sv7OaY-NYu5rm58tcONJ-76" value="&lt;font color=&quot;#323232&quot; style=&quot;font-size: 10px;&quot;&gt;&lt;span style=&quot;font-size: 10px; background-color: rgba(255, 255, 255, 0.01);&quot;&gt;自研CI/CD套件&lt;/span&gt;&lt;/font&gt;" style="rounded=0;whiteSpace=wrap;html=1;fillColor=#1ba1e2;strokeColor=#006EAF;fontSize=10;fontColor=#ffffff;" parent="WIyWlLk6GJQsqaUBKTNV-1" vertex="1">
          <mxGeometry x="678.5" y="776" width="104" height="27" as="geometry" />
        </mxCell>
        <mxCell id="sv7OaY-NYu5rm58tcONJ-77" value="&lt;font color=&quot;#323232&quot; style=&quot;font-size: 10px;&quot;&gt;&lt;span style=&quot;font-size: 10px; background-color: rgba(255, 255, 255, 0.01);&quot;&gt;代码校验&lt;/span&gt;&lt;/font&gt;" style="rounded=0;whiteSpace=wrap;html=1;fillColor=#1ba1e2;strokeColor=#006EAF;fontSize=10;fontColor=#ffffff;" parent="WIyWlLk6GJQsqaUBKTNV-1" vertex="1">
          <mxGeometry x="679" y="807.5" width="104" height="27" as="geometry" />
        </mxCell>
        <mxCell id="sv7OaY-NYu5rm58tcONJ-78" value="&lt;font color=&quot;#323232&quot; style=&quot;font-size: 10px;&quot;&gt;&lt;span style=&quot;font-size: 10px; background-color: rgba(255, 255, 255, 0.01);&quot;&gt;AB测试&lt;/span&gt;&lt;/font&gt;" style="rounded=0;whiteSpace=wrap;html=1;fillColor=#1ba1e2;strokeColor=#006EAF;fontSize=10;fontColor=#ffffff;" parent="WIyWlLk6GJQsqaUBKTNV-1" vertex="1">
          <mxGeometry x="678.5" y="840.5" width="104" height="27" as="geometry" />
        </mxCell>
        <mxCell id="sv7OaY-NYu5rm58tcONJ-84" value="SSR" style="rounded=0;whiteSpace=wrap;html=1;fillColor=#60a917;strokeColor=#2D7600;fontColor=#ffffff;" parent="WIyWlLk6GJQsqaUBKTNV-1" vertex="1">
          <mxGeometry x="428" y="1013.5" width="188" height="31" as="geometry" />
        </mxCell>
        <mxCell id="sv7OaY-NYu5rm58tcONJ-85" value="" style="rounded=0;whiteSpace=wrap;html=1;fillColor=#d5e8d4;strokeColor=#82b366;" parent="WIyWlLk6GJQsqaUBKTNV-1" vertex="1">
          <mxGeometry x="501" y="899" width="156" height="93" as="geometry" />
        </mxCell>
        <mxCell id="sv7OaY-NYu5rm58tcONJ-86" value="自研脚手架" style="rounded=0;whiteSpace=wrap;html=1;fillColor=#dae8fc;strokeColor=#6c8ebf;" parent="WIyWlLk6GJQsqaUBKTNV-1" vertex="1">
          <mxGeometry x="525" y="906" width="102" height="32" as="geometry" />
        </mxCell>
        <mxCell id="sv7OaY-NYu5rm58tcONJ-87" value="自研lint工具" style="rounded=0;whiteSpace=wrap;html=1;fillColor=#dae8fc;strokeColor=#6c8ebf;" parent="WIyWlLk6GJQsqaUBKTNV-1" vertex="1">
          <mxGeometry x="525" y="950" width="103" height="34" as="geometry" />
        </mxCell>
        <mxCell id="sv7OaY-NYu5rm58tcONJ-88" value="&lt;b&gt;基础组件&lt;/b&gt;" style="text;html=1;resizable=0;autosize=1;align=center;verticalAlign=middle;points=[];fillColor=none;strokeColor=none;rounded=0;" parent="WIyWlLk6GJQsqaUBKTNV-1" vertex="1">
          <mxGeometry x="125" y="906" width="58" height="18" as="geometry" />
        </mxCell>
        <mxCell id="sv7OaY-NYu5rm58tcONJ-89" value="&lt;b&gt;业务组件&lt;/b&gt;" style="text;html=1;resizable=0;autosize=1;align=center;verticalAlign=middle;points=[];fillColor=none;strokeColor=none;rounded=0;" parent="WIyWlLk6GJQsqaUBKTNV-1" vertex="1">
          <mxGeometry x="312" y="908" width="58" height="18" as="geometry" />
        </mxCell>
        <mxCell id="sv7OaY-NYu5rm58tcONJ-90" value="统一登录" style="rounded=0;whiteSpace=wrap;html=1;fillColor=#0050ef;strokeColor=#001DBC;fontColor=#ffffff;" parent="WIyWlLk6GJQsqaUBKTNV-1" vertex="1">
          <mxGeometry x="315" y="927" width="76" height="24" as="geometry" />
        </mxCell>
        <mxCell id="sv7OaY-NYu5rm58tcONJ-91" value="密码键盘" style="rounded=0;whiteSpace=wrap;html=1;fillColor=#0050ef;strokeColor=#001DBC;fontColor=#ffffff;" parent="WIyWlLk6GJQsqaUBKTNV-1" vertex="1">
          <mxGeometry x="401" y="927" width="76" height="24" as="geometry" />
        </mxCell>
        <mxCell id="sv7OaY-NYu5rm58tcONJ-92" value="行为验证码" style="rounded=0;whiteSpace=wrap;html=1;fillColor=#0050ef;strokeColor=#001DBC;fontColor=#ffffff;" parent="WIyWlLk6GJQsqaUBKTNV-1" vertex="1">
          <mxGeometry x="315" y="958" width="76" height="24" as="geometry" />
        </mxCell>
        <mxCell id="sv7OaY-NYu5rm58tcONJ-93" value="......" style="rounded=0;whiteSpace=wrap;html=1;fillColor=#0050ef;strokeColor=#001DBC;fontColor=#ffffff;" parent="WIyWlLk6GJQsqaUBKTNV-1" vertex="1">
          <mxGeometry x="401" y="958" width="76" height="24" as="geometry" />
        </mxCell>
        <mxCell id="sv7OaY-NYu5rm58tcONJ-94" value="神策监控" style="rounded=0;whiteSpace=wrap;html=1;fillColor=#0050ef;strokeColor=#001DBC;fontColor=#ffffff;" parent="WIyWlLk6GJQsqaUBKTNV-1" vertex="1">
          <mxGeometry x="128" y="927" width="76" height="24" as="geometry" />
        </mxCell>
        <mxCell id="sv7OaY-NYu5rm58tcONJ-95" value="国密加密" style="rounded=0;whiteSpace=wrap;html=1;fillColor=#0050ef;strokeColor=#001DBC;fontColor=#ffffff;" parent="WIyWlLk6GJQsqaUBKTNV-1" vertex="1">
          <mxGeometry x="214" y="927" width="76" height="24" as="geometry" />
        </mxCell>
        <mxCell id="sv7OaY-NYu5rm58tcONJ-96" value="基础弹窗" style="rounded=0;whiteSpace=wrap;html=1;fillColor=#0050ef;strokeColor=#001DBC;fontColor=#ffffff;" parent="WIyWlLk6GJQsqaUBKTNV-1" vertex="1">
          <mxGeometry x="128" y="958" width="76" height="24" as="geometry" />
        </mxCell>
        <mxCell id="sv7OaY-NYu5rm58tcONJ-97" value="......" style="rounded=0;whiteSpace=wrap;html=1;fillColor=#0050ef;strokeColor=#001DBC;fontColor=#ffffff;" parent="WIyWlLk6GJQsqaUBKTNV-1" vertex="1">
          <mxGeometry x="214" y="958" width="76" height="24" as="geometry" />
        </mxCell>
        <mxCell id="xjbG1yRLRf9Vc9rNy25F-6" value="" style="rounded=0;whiteSpace=wrap;html=1;fillColor=#cce5ff;strokeColor=#36393d;" parent="WIyWlLk6GJQsqaUBKTNV-1" vertex="1">
          <mxGeometry x="672.5" y="891" width="118" height="121" as="geometry" />
        </mxCell>
        <mxCell id="xjbG1yRLRf9Vc9rNy25F-7" value="&lt;b&gt;用户文档&lt;/b&gt;" style="text;html=1;resizable=0;autosize=1;align=center;verticalAlign=middle;points=[];fillColor=none;strokeColor=none;rounded=0;" parent="WIyWlLk6GJQsqaUBKTNV-1" vertex="1">
          <mxGeometry x="678.5" y="894" width="58" height="18" as="geometry" />
        </mxCell>
        <mxCell id="xjbG1yRLRf9Vc9rNy25F-8" value="&lt;span style=&quot;color: rgb(50 , 50 , 50) ; background-color: rgba(255 , 255 , 255 , 0.01)&quot;&gt;最佳实践文档&lt;/span&gt;" style="rounded=0;whiteSpace=wrap;html=1;fillColor=#1ba1e2;strokeColor=#006EAF;fontSize=10;fontColor=#ffffff;" parent="WIyWlLk6GJQsqaUBKTNV-1" vertex="1">
          <mxGeometry x="678.5" y="914" width="104" height="27" as="geometry" />
        </mxCell>
        <mxCell id="xjbG1yRLRf9Vc9rNy25F-9" value="&lt;span style=&quot;color: rgb(50 , 50 , 50) ; background-color: rgba(255 , 255 , 255 , 0.01)&quot;&gt;规范文档&lt;/span&gt;" style="rounded=0;whiteSpace=wrap;html=1;fillColor=#1ba1e2;strokeColor=#006EAF;fontSize=10;fontColor=#ffffff;" parent="WIyWlLk6GJQsqaUBKTNV-1" vertex="1">
          <mxGeometry x="679" y="945.5" width="104" height="27" as="geometry" />
        </mxCell>
        <mxCell id="xjbG1yRLRf9Vc9rNy25F-10" value="&lt;span style=&quot;color: rgb(50 , 50 , 50) ; background-color: rgba(255 , 255 , 255 , 0.01)&quot;&gt;基础组件文档&lt;/span&gt;" style="rounded=0;whiteSpace=wrap;html=1;fillColor=#1ba1e2;strokeColor=#006EAF;fontSize=10;fontColor=#ffffff;" parent="WIyWlLk6GJQsqaUBKTNV-1" vertex="1">
          <mxGeometry x="678.5" y="978.5" width="104" height="27" as="geometry" />
        </mxCell>
        <mxCell id="xjbG1yRLRf9Vc9rNy25F-11" value="" style="rounded=0;whiteSpace=wrap;html=1;fillColor=#cce5ff;strokeColor=#36393d;" parent="WIyWlLk6GJQsqaUBKTNV-1" vertex="1">
          <mxGeometry x="671.5" y="1025" width="118" height="121" as="geometry" />
        </mxCell>
        <mxCell id="xjbG1yRLRf9Vc9rNy25F-12" value="&lt;b&gt;运维支撑&lt;/b&gt;" style="text;html=1;resizable=0;autosize=1;align=center;verticalAlign=middle;points=[];fillColor=none;strokeColor=none;rounded=0;" parent="WIyWlLk6GJQsqaUBKTNV-1" vertex="1">
          <mxGeometry x="677.5" y="1027" width="58" height="18" as="geometry" />
        </mxCell>
        <mxCell id="xjbG1yRLRf9Vc9rNy25F-13" value="&lt;span style=&quot;color: rgb(50 , 50 , 50) ; font-size: 13px ; background-color: rgba(255 , 255 , 255 , 0.01)&quot;&gt;神策告警&lt;/span&gt;" style="rounded=0;whiteSpace=wrap;html=1;fillColor=#1ba1e2;strokeColor=#006EAF;fontSize=10;fontColor=#ffffff;" parent="WIyWlLk6GJQsqaUBKTNV-1" vertex="1">
          <mxGeometry x="677.5" y="1048" width="104" height="27" as="geometry" />
        </mxCell>
        <mxCell id="xjbG1yRLRf9Vc9rNy25F-14" value="&lt;span style=&quot;color: rgb(50 , 50 , 50) ; font-size: 13px ; background-color: rgba(255 , 255 , 255 , 0.01)&quot;&gt;博睿AMP&lt;/span&gt;" style="rounded=0;whiteSpace=wrap;html=1;fillColor=#1ba1e2;strokeColor=#006EAF;fontSize=10;fontColor=#ffffff;" parent="WIyWlLk6GJQsqaUBKTNV-1" vertex="1">
          <mxGeometry x="678" y="1079.5" width="104" height="27" as="geometry" />
        </mxCell>
        <mxCell id="xjbG1yRLRf9Vc9rNy25F-15" value="&lt;span style=&quot;color: rgb(50 , 50 , 50) ; font-size: 13px ; background-color: rgba(255 , 255 , 255 , 0.01)&quot;&gt;全链路日志&lt;/span&gt;" style="rounded=0;whiteSpace=wrap;html=1;fillColor=#1ba1e2;strokeColor=#006EAF;fontSize=10;fontColor=#ffffff;" parent="WIyWlLk6GJQsqaUBKTNV-1" vertex="1">
          <mxGeometry x="677.5" y="1112.5" width="104" height="27" as="geometry" />
        </mxCell>
        <mxCell id="xjbG1yRLRf9Vc9rNy25F-16" value="&lt;b&gt;PC，H5，小程序&lt;/b&gt;" style="rounded=0;whiteSpace=wrap;html=1;fillColor=#fff2cc;strokeColor=#d6b656;" parent="WIyWlLk6GJQsqaUBKTNV-1" vertex="1">
          <mxGeometry x="109" y="752" width="550" height="38" as="geometry" />
        </mxCell>
        <mxCell id="i-nFhutPhKnI3Tk081KA-1" value="" style="rounded=0;whiteSpace=wrap;html=1;fillColor=#d5e8d4;strokeColor=#82b366;" parent="WIyWlLk6GJQsqaUBKTNV-1" vertex="1">
          <mxGeometry x="867" y="122" width="153" height="218" as="geometry" />
        </mxCell>
        <mxCell id="i-nFhutPhKnI3Tk081KA-2" value="&lt;b&gt;数据源&lt;/b&gt;" style="text;html=1;resizable=0;autosize=1;align=center;verticalAlign=middle;points=[];fillColor=none;strokeColor=none;rounded=0;" parent="WIyWlLk6GJQsqaUBKTNV-1" vertex="1">
          <mxGeometry x="876" y="133" width="46" height="18" as="geometry" />
        </mxCell>
        <mxCell id="i-nFhutPhKnI3Tk081KA-10" value="&lt;b&gt;后台服务&lt;/b&gt;" style="rounded=0;whiteSpace=wrap;html=1;fillColor=#e1d5e7;strokeColor=#9673a6;" parent="WIyWlLk6GJQsqaUBKTNV-1" vertex="1">
          <mxGeometry x="866" y="410" width="631" height="35" as="geometry" />
        </mxCell>
        <mxCell id="i-nFhutPhKnI3Tk081KA-12" value="数据源编排" style="rounded=0;whiteSpace=wrap;html=1;fillColor=#60a917;strokeColor=#2D7600;fontColor=#ffffff;" parent="WIyWlLk6GJQsqaUBKTNV-1" vertex="1">
          <mxGeometry x="877.5" y="166" width="134.5" height="30" as="geometry" />
        </mxCell>
        <mxCell id="i-nFhutPhKnI3Tk081KA-17" value="数据源管理" style="rounded=0;whiteSpace=wrap;html=1;fillColor=#60a917;strokeColor=#2D7600;fontColor=#ffffff;" parent="WIyWlLk6GJQsqaUBKTNV-1" vertex="1">
          <mxGeometry x="877.5" y="209.5" width="133.5" height="28.5" as="geometry" />
        </mxCell>
        <mxCell id="i-nFhutPhKnI3Tk081KA-18" value="" style="rounded=0;whiteSpace=wrap;html=1;fillColor=#f5f5f5;strokeColor=#666666;fontColor=#333333;" parent="WIyWlLk6GJQsqaUBKTNV-1" vertex="1">
          <mxGeometry x="1383" y="277" width="116" height="110" as="geometry" />
        </mxCell>
        <mxCell id="i-nFhutPhKnI3Tk081KA-19" value="自研CICD套件" style="rounded=0;whiteSpace=wrap;html=1;fillColor=#b0e3e6;strokeColor=#0e8088;" parent="WIyWlLk6GJQsqaUBKTNV-1" vertex="1">
          <mxGeometry x="1389" y="305.25" width="103" height="33.5" as="geometry" />
        </mxCell>
        <mxCell id="i-nFhutPhKnI3Tk081KA-20" value="自研lint工具" style="rounded=0;whiteSpace=wrap;html=1;fillColor=#b0e3e6;strokeColor=#0e8088;" parent="WIyWlLk6GJQsqaUBKTNV-1" vertex="1">
          <mxGeometry x="1389" y="346" width="103" height="34" as="geometry" />
        </mxCell>
        <mxCell id="i-nFhutPhKnI3Tk081KA-41" value="PC端，移动端，大屏" style="rounded=0;whiteSpace=wrap;html=1;fillColor=#f8cecc;strokeColor=#b85450;" parent="WIyWlLk6GJQsqaUBKTNV-1" vertex="1">
          <mxGeometry x="866" y="71" width="632" height="41" as="geometry" />
        </mxCell>
        <UserObject label="业务场景" placeholders="1" id="i-nFhutPhKnI3Tk081KA-42">
          <mxCell style="text;html=1;strokeColor=none;fillColor=none;align=center;verticalAlign=middle;whiteSpace=wrap;overflow=hidden;fontStyle=1" parent="WIyWlLk6GJQsqaUBKTNV-1" vertex="1">
            <mxGeometry x="870" y="80" width="78" height="22" as="geometry" />
          </mxCell>
        </UserObject>
        <mxCell id="i-nFhutPhKnI3Tk081KA-43" value="表达式解析" style="rounded=0;whiteSpace=wrap;html=1;fillColor=#60a917;strokeColor=#2D7600;fontColor=#ffffff;" parent="WIyWlLk6GJQsqaUBKTNV-1" vertex="1">
          <mxGeometry x="876.5" y="252" width="134.5" height="30" as="geometry" />
        </mxCell>
        <mxCell id="i-nFhutPhKnI3Tk081KA-44" value="..." style="rounded=0;whiteSpace=wrap;html=1;fillColor=#60a917;strokeColor=#2D7600;fontColor=#ffffff;" parent="WIyWlLk6GJQsqaUBKTNV-1" vertex="1">
          <mxGeometry x="876.25" y="296" width="134.5" height="30" as="geometry" />
        </mxCell>
        <mxCell id="i-nFhutPhKnI3Tk081KA-46" value="" style="rounded=0;whiteSpace=wrap;html=1;fillColor=#d5e8d4;strokeColor=#82b366;" parent="WIyWlLk6GJQsqaUBKTNV-1" vertex="1">
          <mxGeometry x="1040" y="122" width="153" height="218" as="geometry" />
        </mxCell>
        <mxCell id="i-nFhutPhKnI3Tk081KA-47" value="&lt;b&gt;画布&lt;/b&gt;" style="text;html=1;resizable=0;autosize=1;align=center;verticalAlign=middle;points=[];fillColor=none;strokeColor=none;rounded=0;" parent="WIyWlLk6GJQsqaUBKTNV-1" vertex="1">
          <mxGeometry x="1055" y="133" width="34" height="18" as="geometry" />
        </mxCell>
        <mxCell id="i-nFhutPhKnI3Tk081KA-48" value="缩放/鹰眼" style="rounded=0;whiteSpace=wrap;html=1;fillColor=#60a917;strokeColor=#2D7600;fontColor=#ffffff;" parent="WIyWlLk6GJQsqaUBKTNV-1" vertex="1">
          <mxGeometry x="1050.5" y="166" width="134.5" height="30" as="geometry" />
        </mxCell>
        <mxCell id="i-nFhutPhKnI3Tk081KA-49" value="图层管理" style="rounded=0;whiteSpace=wrap;html=1;fillColor=#60a917;strokeColor=#2D7600;fontColor=#ffffff;" parent="WIyWlLk6GJQsqaUBKTNV-1" vertex="1">
          <mxGeometry x="1050.5" y="209.5" width="133.5" height="28.5" as="geometry" />
        </mxCell>
        <mxCell id="i-nFhutPhKnI3Tk081KA-50" value="工具栏" style="rounded=0;whiteSpace=wrap;html=1;fillColor=#60a917;strokeColor=#2D7600;fontColor=#ffffff;" parent="WIyWlLk6GJQsqaUBKTNV-1" vertex="1">
          <mxGeometry x="1049.5" y="252" width="134.5" height="30" as="geometry" />
        </mxCell>
        <mxCell id="i-nFhutPhKnI3Tk081KA-51" value="..." style="rounded=0;whiteSpace=wrap;html=1;fillColor=#60a917;strokeColor=#2D7600;fontColor=#ffffff;" parent="WIyWlLk6GJQsqaUBKTNV-1" vertex="1">
          <mxGeometry x="1049.25" y="296" width="134.5" height="30" as="geometry" />
        </mxCell>
        <mxCell id="i-nFhutPhKnI3Tk081KA-59" value="" style="rounded=0;whiteSpace=wrap;html=1;fillColor=#d5e8d4;strokeColor=#82b366;" parent="WIyWlLk6GJQsqaUBKTNV-1" vertex="1">
          <mxGeometry x="1214" y="122" width="153" height="218" as="geometry" />
        </mxCell>
        <mxCell id="i-nFhutPhKnI3Tk081KA-60" value="&lt;b&gt;模板&amp;amp;组件&lt;/b&gt;" style="text;html=1;resizable=0;autosize=1;align=center;verticalAlign=middle;points=[];fillColor=none;strokeColor=none;rounded=0;" parent="WIyWlLk6GJQsqaUBKTNV-1" vertex="1">
          <mxGeometry x="1213" y="133" width="67" height="18" as="geometry" />
        </mxCell>
        <mxCell id="i-nFhutPhKnI3Tk081KA-61" value="物料管理" style="rounded=0;whiteSpace=wrap;html=1;fillColor=#60a917;strokeColor=#2D7600;fontColor=#ffffff;" parent="WIyWlLk6GJQsqaUBKTNV-1" vertex="1">
          <mxGeometry x="1224.5" y="166" width="134.5" height="30" as="geometry" />
        </mxCell>
        <mxCell id="i-nFhutPhKnI3Tk081KA-62" value="npm包接入" style="rounded=0;whiteSpace=wrap;html=1;fillColor=#60a917;strokeColor=#2D7600;fontColor=#ffffff;" parent="WIyWlLk6GJQsqaUBKTNV-1" vertex="1">
          <mxGeometry x="1224.5" y="209.5" width="133.5" height="28.5" as="geometry" />
        </mxCell>
        <mxCell id="i-nFhutPhKnI3Tk081KA-63" value="JSON Schema规范" style="rounded=0;whiteSpace=wrap;html=1;fillColor=#60a917;strokeColor=#2D7600;fontColor=#ffffff;" parent="WIyWlLk6GJQsqaUBKTNV-1" vertex="1">
          <mxGeometry x="1223.5" y="252" width="134.5" height="30" as="geometry" />
        </mxCell>
        <mxCell id="i-nFhutPhKnI3Tk081KA-64" value="..." style="rounded=0;whiteSpace=wrap;html=1;fillColor=#60a917;strokeColor=#2D7600;fontColor=#ffffff;" parent="WIyWlLk6GJQsqaUBKTNV-1" vertex="1">
          <mxGeometry x="1223.25" y="296" width="134.5" height="30" as="geometry" />
        </mxCell>
        <mxCell id="i-nFhutPhKnI3Tk081KA-65" value="&lt;b&gt;页面发布与静态化（预览/导出/分享）&lt;/b&gt;" style="rounded=0;whiteSpace=wrap;html=1;fillColor=#ffe6cc;strokeColor=#d79b00;" parent="WIyWlLk6GJQsqaUBKTNV-1" vertex="1">
          <mxGeometry x="867.25" y="351" width="501" height="37" as="geometry" />
        </mxCell>
        <mxCell id="i-nFhutPhKnI3Tk081KA-68" value="" style="endArrow=classic;startArrow=classic;html=1;rounded=0;entryX=0.25;entryY=1;entryDx=0;entryDy=0;" parent="WIyWlLk6GJQsqaUBKTNV-1" target="i-nFhutPhKnI3Tk081KA-65" edge="1">
          <mxGeometry width="50" height="50" relative="1" as="geometry">
            <mxPoint x="993" y="410" as="sourcePoint" />
            <mxPoint x="1018" y="357" as="targetPoint" />
          </mxGeometry>
        </mxCell>
        <mxCell id="i-nFhutPhKnI3Tk081KA-69" value="" style="endArrow=classic;html=1;rounded=0;entryX=0.75;entryY=1;entryDx=0;entryDy=0;" parent="WIyWlLk6GJQsqaUBKTNV-1" target="i-nFhutPhKnI3Tk081KA-65" edge="1">
          <mxGeometry width="50" height="50" relative="1" as="geometry">
            <mxPoint x="1243" y="409" as="sourcePoint" />
            <mxPoint x="1265" y="389" as="targetPoint" />
          </mxGeometry>
        </mxCell>
        <UserObject label="http" placeholders="1" id="i-nFhutPhKnI3Tk081KA-70">
          <mxCell style="text;html=1;strokeColor=none;fillColor=none;align=center;verticalAlign=middle;whiteSpace=wrap;overflow=hidden;" parent="WIyWlLk6GJQsqaUBKTNV-1" vertex="1">
            <mxGeometry x="978" y="389" width="62" height="19" as="geometry" />
          </mxCell>
        </UserObject>
        <UserObject label="websocket" placeholders="1" id="i-nFhutPhKnI3Tk081KA-71">
          <mxCell style="text;html=1;strokeColor=none;fillColor=none;align=center;verticalAlign=middle;whiteSpace=wrap;overflow=hidden;" parent="WIyWlLk6GJQsqaUBKTNV-1" vertex="1">
            <mxGeometry x="1245" y="389" width="62" height="19" as="geometry" />
          </mxCell>
        </UserObject>
        <mxCell id="i-nFhutPhKnI3Tk081KA-72" value="&lt;b&gt;研发闭环&lt;/b&gt;" style="text;html=1;resizable=0;autosize=1;align=center;verticalAlign=middle;points=[];fillColor=none;strokeColor=none;rounded=0;" parent="WIyWlLk6GJQsqaUBKTNV-1" vertex="1">
          <mxGeometry x="1389" y="281" width="58" height="18" as="geometry" />
        </mxCell>
        <mxCell id="i-nFhutPhKnI3Tk081KA-75" value="" style="rounded=0;whiteSpace=wrap;html=1;fillColor=#dae8fc;strokeColor=#6c8ebf;" parent="WIyWlLk6GJQsqaUBKTNV-1" vertex="1">
          <mxGeometry x="1382.5" y="122" width="117.5" height="149" as="geometry" />
        </mxCell>
        <mxCell id="i-nFhutPhKnI3Tk081KA-76" value="vue 3.X" style="rounded=0;whiteSpace=wrap;html=1;fillColor=#b1ddf0;strokeColor=#10739e;" parent="WIyWlLk6GJQsqaUBKTNV-1" vertex="1">
          <mxGeometry x="1388.5" y="150.25" width="103" height="33.5" as="geometry" />
        </mxCell>
        <mxCell id="i-nFhutPhKnI3Tk081KA-77" value="babel" style="rounded=0;whiteSpace=wrap;html=1;fillColor=#b1ddf0;strokeColor=#10739e;" parent="WIyWlLk6GJQsqaUBKTNV-1" vertex="1">
          <mxGeometry x="1388.5" y="191" width="103" height="34" as="geometry" />
        </mxCell>
        <mxCell id="i-nFhutPhKnI3Tk081KA-78" value="&lt;b&gt;tool&lt;/b&gt;" style="text;html=1;resizable=0;autosize=1;align=center;verticalAlign=middle;points=[];fillColor=none;strokeColor=none;rounded=0;" parent="WIyWlLk6GJQsqaUBKTNV-1" vertex="1">
          <mxGeometry x="1388.5" y="126" width="32" height="18" as="geometry" />
        </mxCell>
        <mxCell id="i-nFhutPhKnI3Tk081KA-79" value="vite" style="rounded=0;whiteSpace=wrap;html=1;fillColor=#b1ddf0;strokeColor=#10739e;" parent="WIyWlLk6GJQsqaUBKTNV-1" vertex="1">
          <mxGeometry x="1389.5" y="231" width="103" height="34" as="geometry" />
        </mxCell>
        <mxCell id="Jl-hVSD6sKo4nCWjwnxu-0" value="PC端，移动端，大屏" style="rounded=0;whiteSpace=wrap;html=1;fillColor=#f8cecc;strokeColor=#b85450;" vertex="1" parent="WIyWlLk6GJQsqaUBKTNV-1">
          <mxGeometry x="867.25" y="492" width="632" height="41" as="geometry" />
        </mxCell>
        <UserObject label="业务场景" placeholders="1" id="Jl-hVSD6sKo4nCWjwnxu-1">
          <mxCell style="text;html=1;strokeColor=none;fillColor=none;align=center;verticalAlign=middle;whiteSpace=wrap;overflow=hidden;fontStyle=1" vertex="1" parent="WIyWlLk6GJQsqaUBKTNV-1">
            <mxGeometry x="870" y="501.5" width="78" height="22" as="geometry" />
          </mxCell>
        </UserObject>
        <mxCell id="Jl-hVSD6sKo4nCWjwnxu-2" value="" style="rounded=0;whiteSpace=wrap;html=1;fillColor=#d5e8d4;strokeColor=#82b366;" vertex="1" parent="WIyWlLk6GJQsqaUBKTNV-1">
          <mxGeometry x="866" y="544" width="632" height="218" as="geometry" />
        </mxCell>
        <mxCell id="Jl-hVSD6sKo4nCWjwnxu-5" value="" style="edgeStyle=orthogonalEdgeStyle;rounded=0;orthogonalLoop=1;jettySize=auto;html=1;" edge="1" parent="WIyWlLk6GJQsqaUBKTNV-1" source="Jl-hVSD6sKo4nCWjwnxu-3" target="Jl-hVSD6sKo4nCWjwnxu-4">
          <mxGeometry relative="1" as="geometry" />
        </mxCell>
        <mxCell id="Jl-hVSD6sKo4nCWjwnxu-3" value="初始化" style="rounded=0;whiteSpace=wrap;html=1;" vertex="1" parent="WIyWlLk6GJQsqaUBKTNV-1">
          <mxGeometry x="1786" y="84" width="99" height="38" as="geometry" />
        </mxCell>
        <mxCell id="Jl-hVSD6sKo4nCWjwnxu-20" style="edgeStyle=orthogonalEdgeStyle;rounded=0;orthogonalLoop=1;jettySize=auto;html=1;exitX=0.5;exitY=1;exitDx=0;exitDy=0;entryX=0.445;entryY=0.077;entryDx=0;entryDy=0;entryPerimeter=0;" edge="1" parent="WIyWlLk6GJQsqaUBKTNV-1" source="Jl-hVSD6sKo4nCWjwnxu-4" target="Jl-hVSD6sKo4nCWjwnxu-8">
          <mxGeometry relative="1" as="geometry" />
        </mxCell>
        <mxCell id="Jl-hVSD6sKo4nCWjwnxu-4" value="1.读取dashboard配置&lt;br&gt;2.读取chart配置&lt;br&gt;4.读取datasource配置&lt;br&gt;5.根据url获取页面初始化信息（各种过滤条件）" style="rounded=0;whiteSpace=wrap;html=1;align=left;" vertex="1" parent="WIyWlLk6GJQsqaUBKTNV-1">
          <mxGeometry x="1742.75" y="153" width="185.5" height="87" as="geometry" />
        </mxCell>
        <mxCell id="Jl-hVSD6sKo4nCWjwnxu-21" style="edgeStyle=orthogonalEdgeStyle;rounded=0;orthogonalLoop=1;jettySize=auto;html=1;entryX=0.5;entryY=0;entryDx=0;entryDy=0;" edge="1" parent="WIyWlLk6GJQsqaUBKTNV-1" source="Jl-hVSD6sKo4nCWjwnxu-8" target="Jl-hVSD6sKo4nCWjwnxu-9">
          <mxGeometry relative="1" as="geometry" />
        </mxCell>
        <mxCell id="Jl-hVSD6sKo4nCWjwnxu-8" value="根据dashboard数据，初始化dashboard配置&lt;br&gt;" style="rounded=0;whiteSpace=wrap;html=1;align=left;" vertex="1" parent="WIyWlLk6GJQsqaUBKTNV-1">
          <mxGeometry x="1738" y="305.25" width="262.25" height="26" as="geometry" />
        </mxCell>
        <mxCell id="Jl-hVSD6sKo4nCWjwnxu-22" style="edgeStyle=orthogonalEdgeStyle;rounded=0;orthogonalLoop=1;jettySize=auto;html=1;entryX=0.5;entryY=0;entryDx=0;entryDy=0;" edge="1" parent="WIyWlLk6GJQsqaUBKTNV-1" source="Jl-hVSD6sKo4nCWjwnxu-9" target="Jl-hVSD6sKo4nCWjwnxu-10">
          <mxGeometry relative="1" as="geometry" />
        </mxCell>
        <mxCell id="Jl-hVSD6sKo4nCWjwnxu-9" value="根据dashboard中chart的信息，进行轮询" style="rounded=0;whiteSpace=wrap;html=1;align=left;" vertex="1" parent="WIyWlLk6GJQsqaUBKTNV-1">
          <mxGeometry x="1744.63" y="371" width="262.25" height="26" as="geometry" />
        </mxCell>
        <mxCell id="Jl-hVSD6sKo4nCWjwnxu-10" value="对于每一个chart，去匹配2返回的图表基本信息" style="rounded=0;whiteSpace=wrap;html=1;align=left;" vertex="1" parent="WIyWlLk6GJQsqaUBKTNV-1">
          <mxGeometry x="1744.63" y="428" width="266" height="40" as="geometry" />
        </mxCell>
        <mxCell id="Jl-hVSD6sKo4nCWjwnxu-11" value="根据2返回的联动，层级下钻，图表过滤，做如下操作：&lt;br&gt;联动：给联动的接收对象，增加bus监听，新增cross-filter；联动对象新增click广播&lt;br&gt;层级下钻：新增层级过滤标识，新增click下钻操作，新增drill-filter，并记录下钻路径以实现上转&lt;br&gt;图表过滤：初始化的时候，根据图表过滤，和5获取的url信息，合并到filter中" style="rounded=0;whiteSpace=wrap;html=1;align=left;" vertex="1" parent="WIyWlLk6GJQsqaUBKTNV-1">
          <mxGeometry x="1744.63" y="520" width="549.37" height="65" as="geometry" />
        </mxCell>
        <mxCell id="Jl-hVSD6sKo4nCWjwnxu-17" value="初始化每个图表数据" style="rounded=0;whiteSpace=wrap;html=1;align=left;" vertex="1" parent="WIyWlLk6GJQsqaUBKTNV-1">
          <mxGeometry x="1744.63" y="613" width="266" height="40" as="geometry" />
        </mxCell>
        <mxCell id="Jl-hVSD6sKo4nCWjwnxu-19" value="" style="shape=image;verticalLabelPosition=bottom;labelBackgroundColor=default;verticalAlign=top;aspect=fixed;imageAspect=0;image=data:image/png,iVBORw0KGgoAAAANSUhEUgAAAggAAAFeCAYAAADgw+cUAAAAAXNSR0IArs4c6QAAIABJREFUeF7snXd8VMXXh5/tLb33Sigh9N57R0EUkWYBsWFXxF6wo4IF9YdgF1CKIgooICAlIaGGmkBCSO892Wzf97Ob0IOir2jEmb+UzJ3yzL073zlz5owkLCzMjkiCgCAgCAgCgoAgIAicQ0AiBIJ4HwQBQUAQEAQEAUHgQgJCIIh3QhAQBAQBQUAQEAQuIiAEgngpBAFBQBAQBAQBQUAIBPEOCAKCgCAgCAgCgsDvExAWhN9nJHIIAoKAICAICAL/OQKNCgQXrZYQFwUSpYqi4mJKjRcfdAj2cqeoohKz7Y8x0yrl6E2WP/ZQI7n9PD0IUdnYV1B13l9DfD2pKyun1AoqhQKNHCrqzM48gX4+mPR6gtzVpOSWUf+vv5881aEMCexKalkSyZXZv/+AyCEICAKCgCAgCPzLCTQqEKJCw5kU64HEO5jNG39iZ/HFKmBy7w6s3X2QCqP1DyG4oWtLvtuditX+/ztdGRMaQid3K18fzj+v/qlDupOTsAt9SDTj24aRW5jN/F/TnHmu69+L/LxcpnQI5slvdnK+tLh0N4aEjqGsNpWjFenU2S5XVvwhLCKzICAICAKCgCDQpAg0KhA8PbzoH6rF7urL4eT9pNVC2/Agmvu6UV1dxdYTedzUrxv6yjIkUikJR9IotsroHxOCq05FTVkJG9KKGd6tA7aKYlw8PDiZmY27XwCDWwaz/1Q+htpafjiSdRGMVmGh6Kqy2VMhY8qgtvy0/TDXdm/Gsm3HcPXyxk9lJbfWztDYMCR1lXydnIVEIqFDZDCR3q50jAll05oNZKhckdiVTOjky2sbU5z1dIyOoqiqgqHNvPkq4QQmpHQfOgY/SQlrft5+yYG5Jvxakkt2kVVb1KQGTzRGEBAEBAFBQBC4UgQuywdB6+rNrH5RLNx6CKPVTqXByPTBPdmVfBgXbz+ay8v56kg5HmolNpmSVyZ146WFG7l50vWcOhTPTyf1TOseweL4FG7q0ZqViUcxW61UGcwEe3sQ5e2KzWxiZ0YhAzu2w6sgmZV5Ct6/byRvfbKBZyb14KFFm/EJCydaZ2FTaj7NQ0K4o503D/2wH3edK7d1DObzvae4oV8n0rbvZEsNBHp5c8s5AuFiiBJa9RxKuLyIn7btb4SxlObucYwIHcnyEx+Qb7xcm8OVGi5RriAgCAgCgoAg8PcQuCyBEBYcxk3NtbyxJYXTGwOntxgCA4Pp5W1k7SkzY1sGYJOp6Nk+kGffXcekSdezYcNq9pac3Ya4tW87luw4iNlWX1KIrxcxvu5YzUa2nchzCgTf4mRW5Kr4YOZw5n6ygWcn9+Shj34hIDqaMKWBn4/lEuIXyCPdApwCwdfHj7GBKhYdymH6sB6c3Bl/mQIBVDo31BIzlTV1jRCX0T6gB8N8u/FZ6kcUmqr/nlERtQgCgoAgIAgIAv8wgcsSCDKZiuev703isXSsFivb03IZ062d0wfhtEA4pHdnWLCclGoZY7uF8cS7axsVCNf0aE+YrYr9BdXEZxZf1P12zZszrZUL+yuk9G8dzJyP13LP1NHsO3CErq1jWJ+UzJ7cGvq2CGdEjAcfbz/MkVIDjwxsR2JWCSM6tWT1ih/IcvWjTag/vcNd+XZfBvtO5mO4yO1Bwe2PPoWPJZfX3l50yaEYEzGe5OIdnKo939/hHx47Ub0gIAgIAoKAIHDFCFyWQHDU7q7V0CbUj6rKcg4XVBHm60luaTkajQ5flZVMXSs6XP8oVosNu0rJsbQ8IiPDyM/LPu8UhFKhoEt0EJiM7DxZcFHHJBIp3WJCqKuqRO7iRurJbGRaHW2DPDmeV4pMBmaJmtZBHs5njfpqEk6VEBXgQ4BORqneSkVJCS6+foR66OrzGA3sb1QgQEB0a7xl1Rw5frE/xOnGhbqEU2YootbSmJXhio2NKFgQEAQEAUFAEPgbCNihqgBp4mIk+rIz9V22QPi9Flru2wHuISCR/F5W8XdBQBAQBAQBQUAQaEoEHCcLU39GvuLOSwsEtUyNn9b3Dzf75IM7cDkZj+8PjyOx/8HgCH+4tn/ugbzafCy2/38ch3+uB6JmQUAQEAQEAUHgLAG7WyDWm5dDbTHyT8ddWiAEuwXj8EQsqztrZrgQZFBQEEajkdLS0jN/qn4iBfmB5WjWP3tVczdYDNjPuGpe1V0VnRMEBAFBQBD4DxCwu/hjveUb0Jf9tkAIcQ/GYDZSoi+5JJbQ0FAMBgPFxWedDC3PZMK+ZcjXPv4fwPnv66JcK0ditWI22pG7KJBaLJgu9tr8Qx2Tu8ix1Ahryh+CJjILAoKAINDECFyVAkHlcED8h0CrQrsSHKQlc+9258mOpp5cQ3TIzUZMchUaVwWBEQqKcmyYCyoocxxDdbiOXHDKQ+Ovoa6w3jHTNdQFe7URu1yKUidB461Fo1WSv7cAfR1ovZRo3JUX2VYU7moKD1xabDZ1bqJ9goAgIAhc7QT+EYHQpXU74txN9O3Umjc+XYnNL4Y22lpWHM77f/PuFtuCPt5W3txeH0a5seQIpnRNbCBltXrW7U+lUH/+ajfC35+pbTzYX+5CWk4aKYWVl9UuhUdLRs16ksQv36Lg+CHstsZ9LqQaJT0mhpH4WRqWhiy+3cNQl5eQnar/3bp8uoThUZpF2snfzXpeBrlWTVhrNSd3Vzj/XeWhwDPUFZUKik9UofNUUFFqRSG3oy+vDx3tGemKzk1GTampoSwJkQODSf7iOI6mS9Ry1BIbrqFazLUW6mqsSJVyjGV1WK0QGKOlLLsOo+PejjNCQ0JYvwCyfhXHQ//YCIrcgoAgIAj8fQT+EYHQullz2rta6N6rDe8t+h5pcAzdvaxkGyRk5eVzokyPj6uO9uEB1FZVkJBV79MQ5e9HtK8rlaVFJOVXI5NK6RETik1fRUJ2OW4urvSMDkBfVc6vGSUo5HIi3NV4enljr61gd179RD+kXXuKC9I4UFhTPwnqdHSM8KekuJDkolqCfHy4rpmWNL0rpwqySS1yREpU0q1nZw7t3Y3e2Pi9C5rIvvQZ3ZsN773ymyPo3doXXU0FWZn15UjUCvpNjeTXxce51FUUbs08cFND7uEKvLuE4VmRTbXKk5qscmqq7Eg1cgKauWOrM1CQVotUKUPlIsclwAVzSTU1NXbCOwYS0lxFxr5KanJLKCt2TOw6lFIryBUERaspL7FhM1lRae1kJFU6BYK9zkxFgeFMn1rdGM2x5elIXVV4BaixlNWg9FZTW2RAX22j5Q0xnFh5HIcBpV4gGAgdEkZtRgVuXgrSd5UR1MNPCIS/7zsXNQkCgoAg8IcJ/CMC4cJWtoyKYXpbb747lE3/5oG8un6PM5iRRiGjY0wEucmJ7MafVwZF80niSfS1NRwoqeOJMb1JPHAUnW8Q5qJstubV0K9lNENCFM5Iiq5aLY+P6EL80Qw6xUby08878YuJoUt0KPqaCnLKqkjMKmN6zxjWHTxFbEQI+w8eJano4siICnd/nnpwOv97fwEFJY2EVparCex+Pc0ilWz/8tPfHIjIPoFk7yrAYq5fUnu18sHdWk3G8cY3RkK7B6HBRGW5FVNRObJmYTQLs5KVUkezgYEkvH8ETYw3GrsFlxAP6nLKKC210m5YMLkHSghu48n+7zPxi/UnKk5NSnwphuJqbGo1vlEuYDVReFxPaA9/8pMKMFskKLUyqvLrflMgOK0QAS4oak2ovRSYTWbk7jpcMJCZUr8FcVogeHQMoDA+j4BoHSWZdQT18hcC4Q9/ruIBQUAQEAT+PgJNRiC01elZfiiX6f3bs2rrAcIigpncuSWeblqS4jfwRTrcNbgLsd5Klm7dw5EaOf+b2o/84iqkMjknTxxnXlLGeaGWHQJhcrtA/peQztQhvSk5uIP1hfUWhML8NA4W1dCmfXv6SPP4YF8RzYJD6O1i4rPUxi9fksvlWCyNO99JPUMZcM8r5Gx8j9SkpEuPoFZFy26epGw5Gwwqqk8Ap+ILsF3CZaHl0GBSNuSeKdOxxeBZlsWJdAndHmnH4QUHIMiT5l290bgoyErIp7jQRFiohhMHSpEppFjNNtTe7rTrpyPx2/qtHF2wCoVSgdRkpLZOhk4ro85oR62SUFmgx2axX5ZAkNeaUES7U5FcTFifEPz84dD3ORhNZwVCyLBI6tJLcXOXkZZUTlBPIRD+vs9c1CQICAKCwB8n0GQEQi8fK+tSi7mxYxTvbklm9rW9+W5HMp3btkZTsJ8VWRLc1Up8Pb14qH8kDy9J5JkberB4017KzXbqDAZqzHZiw0KY1s6XFzckU2uVMqltAAt3nbykQAgNCeOu9j58nJBGp5bR5KSlk1B4sYVApvNi2sQxfLtiOaWVtY2S1kT3o/+YQayfd+kjneHDoqk7nEVRbv32glSrIrqzBye2FV5y9GIGhVGdUUJNtR0MdahbnvZBaBAIiw7TfVosB1aeQBftg6242ikQQoPVpB08eyxV4eFCt2v9ObA2F1ONwRG00rnFoDCbqDVKcfVT4RPqQtHhYsoKzvogKBVQXXzauiEhangIh5elO9urCXJBI7Fjt5qwadSYCqsxyTX4BkspOFZ7xgdB5qZEX2REppBgNSN8EP74tyqeEAQEAUHgbyXQJASCQqlicrdYNAo7G3YfJb3aROdm4XSL9OV4QRnm4ixOWNwZ0y4Km8XAT4lHOGWw4aLVML5LLFJzDat3H8fTL5jhrYORSyRUlBbx9cEceoa6szm9mN5xzanOOk5yFcSFhlNZWUB2Vf2k1yI4kIEtg0k9cZwtWVWNRzOQ6pg09QbWr/qG8pqz+/HnjpYmqi8Drx/O2jeebHQQZS4quo/2Z+fXZ8M3B41sgf1QOvnZlz4WKFFIieodhEpiJXVLPppIb3TVpRQWS4geEUrOxiwUoZ5ENHch90gxEruUqgoLXl4KirLPFzOeLbwJiXaj/Fg2xXVKorr4kJ+Qi96qILqjJ+k7i4joH0bNsWzyMi2o3eTYLTaM+rMOl1KlBJvJjtRNQ7NObmSl6gkIVVBVaMLecNmWQwiUnaohsJU7Sp0cywVuG3JXJRnCSfFv/dhFZYKAICAI/BECTUIg/JEGN+W8ctcoBj/8AmmbPicjcctFxxzVPlp0EiOlxQ17CVIpUd18yEgo+sdCLMl0clRaOVKblZrShllcIsHFW0ZNye/EMpCC3A4WO0gVUjxCXVAq5c6TkXUVdVQU1KHUSDEbbVwYRFOqBNvpgxFNeVBF2wQBQUAQ+I8SEALhLx54iVyBBDu2S/gq/MXVieIEAUFAEBAEBIErQuBvFwhqtdoZjtl+qfN8V6SbolBBQBAQBAQBQUAQ+CME/naB4OLigl6vx3aJIEJ/pPEiryAgCAgCgoAgIAhcGQJXlUDQufpjN5ejN/z/N7c9/INxldaRnX/py6muzJD8uVLlXlEoFXYMJRn1xyVlGjQ+gWA2UFf2/49Q+edaJZ4SBASBv4uABhvXcXl3oKxFQaXTW+j8FIGRZsjYhPySzR6MkQhkLL4gz3gMVKPkJ6SXfLYHRvQoSP6NPOOooxYlPyNzlhOImb7AN876Lm7z6cpCMdEFCd+i+LuQX/X1XFUCof/wZzHlLCH+cP0RvMtNkV0H0spQyLqDRxoekTLlkReI5iQvvPXbQY8ut47T+Ybf+xq2vZ+yISH1jz76m/k1sVMJ7Nqd0u9nUlkOEpU/nl2uI6xVDAcWPfKX1iUKEwQEgaZA4NxLUiR4YSIRIz8gx7FGcMdOLZILJIOdzli5BxdqsHC9M+fZ5IuFQKQcvGAC34KSKqyMwUo7LAQgOTOBn366L2YqkZOMhE0oOdzIZH4DdVSiZmOjE71j8rexmRpexIX957TrI+q4E80ZZ24DEhxnyXpj5hpnDyV0x0IZMo6fKduOGRlP47idR6Q/Q6DJCgSNuzeDBw/BVW5hy7qVlNm8GTZsEK5qGSn7d7D3WDYKrRuDBg/GSyPj1y0biOn0IJFexzHa7OxN2ErqqUKi4jrQNbYZhdmpbElIvohRm+79GDBoIL7GSo5lZ7Lpl02ovcPo07kteacOs2VnMv4R0bRt0w6luRaF2oXUvVtIK5EweOgA3BUWft20kfwKPe269aF1dCh5GSlsT9xHq859STsQj84vlNaBSqrsQdx0113Upe0gLbuYX75fRkENdOrRH0NWEkdyG7+HwS2yHxJXPzQaE4WJ36MI7oRCv5fachVevcdQuWs5VosUv5GPYEx4wykQnEkXRPtJjwiB8Ge+DPGMINDkCdhYRi1r0LIMmVMgbMVMV3QON2kWoneu1hPOmYwd4uEJ6vgMLWXY6OK8UeVscqzCI5GxrWH1fvovKcjRYyMWG0MxEoOMJRfkuRYjxahYj4QTyBmIkbYXlB+JFSsyzh70rq9hO0q+RU5HTCzAwhxk9L/g2XPbuRs5q5AzDQMdkPJzIxYJFXZux8IItE1+JJtqA5usQLjt/icw7l/NtwdKiPYqJrsyHC9FCeXqaBa/eT/3TriDUS8tpmzDAn7cdQxPTx1tuz1En/BU5i3bwT23DOG9j7/l4Qem8/LL87jnsadI+/5NfjpycRjlmAHX0Loyk9X7Dp4Zp+i2Y5ky1JUX3vyS9sPGck2gEZeek9i0ajdxYXlIo/py6sf32FYawcxrYli0+ij3TWjH869/wPRHn2b94nfoMv5ufv5yPv6te3B9Bx2vfLiGyS9+Sun61/gp/qwF4ZZ7n6N2z0es3NXY5UUSIm5cTM2euVgC+uOm30y5sh+aksUUnXSj2WMfkf3uTRgNQiA01Y9MtOvfQsCOn3PStGJCyhZkWJAQjpVipOgbJlqHKd8dKECKCzZcAUfs1d5YcUXCBmTUb3LWX4XqiZ2+WJxl7EaG2fnvNiKBbCR0xsIRZNQgIQgbHbFSjZTtyLA2lOGBjb5YqTrz7zjbtQI9X6LhR6RUY2UzZrqj4UNq0CHnx4ZtADesTMfCcHQ82CAQjiFxigWPc4bHAwt+SDl+3oQrZfY5q/Db0TMbi7O95yYtdt5Gx4cXCIfTeaRYSEaPK1Li0F30vIPVg+g5iZo1SIjEfskNhUwnG7tTIDyN+ZJSog45bYRA+NMfYJMVCA8/9jTz5r50pmN+ES0ZPbC7M5rgNRP68fgtT/H6p6/x5C23kFUf9p/TWwx7s8u5c/oUli5JYPZDA0naexK/sGaUJf/Msk37LoL1ewKh3cDhGLJSGHPbdDav2cvgHp6ENe9AwpbtGFATHiIjwRxJ86xNfLpmO31G30jIya3Y+s+4LIHw26MnIXjQbHJ/eQ1tmymE+ZaQWxOCtvRjCtNdhUD406++eFAQOJ9AHww8gpWNyFFh4xRqvkXCbqp4Au2Zffne6LkdBbeiYAa1TMXGUWTOST4WC3HAjWjJR8IQjDyCmQ0o8MPq/NutaCjBwj6MOCbpIiS8ixpH/eOB9cjQYSUeDTuRMAoDz2PlK+QEYiUUCbei5l4M3I6Zw8id5SxGxjrMvO3cYpDigRUfwLEUGY6Nt1GxBymvo3daEBzP9MCM5hwMYZic1oFfzpvkpWw+5/8dAmE8EtZcsGofgIlf0DYqEBw8P0JPORKqkKBHzhsoGgRQfQN8nJzqeB4dPzn7aG7UE8KxsfIVKqobBEIEcpY3IiXU2HkWM9cKgfCnP/UmKxDue/R54r9byLEiI56qMrqPegBV+pdszYvk9ddn8vj4e7lj0SJ+Xfgi8UeyUSqldOzxkNMH4bRA+Oyzldx/93jmv/khCjcf5HV5lNRf4Hheiu41gsEedXy6YSdmiwWJVEbzdmOYONiVl+Z9RWzfQRiyUhlz6zQ2/7CXfh1dcG3WlYTP32RLSjGe3t5ognswtZ87b73/FZNmzGTtsk8ZNOFBNq94l17jbidOnsJzC75n+GPv4nl0Bas2JGI2mZx7apPueJSS7Z+w4VhjDpESggfOJnfzWYGQXR5AoGcR2WlG4ibM4PB7N2GyqPEb/gDGXfOpKLU4r1aWuoXS9qYHSf74MeyO+MYiCQKCwCUJfEgV21DzNYrz1q6/JxDuAq5DS1bDJPUFVXyPlvXABvS8iwsrGywBP1LLZrS8iY1U6piIjn0Nk+/XVPEWOuckfnbtbGcv1YzEleKGln9GNW/gyiHsJFDDe+hYes4WQ0+02LAzDBPPNtgyDqJ05jmAjEeo41M0tMVMx/PW3na8seJ9kQXBYemQsgilc7d/OnX0Rsr7F1gKbsbIUTT8z9l+h43ktIXBzmQMRKPgqOPSOdSMoI6P0XDkjMiwsZIaZ93z0DgFwmAsjdoiHGVvRUltg0CYiI20RgSCDDutkdBLCIQ//dU3WYHgHRhOz64dkNos7N/5I3XaKHp1boe5To9VDjvW/ozUK5TePTugkNjYnbgDmbYV1upjFFYbaNemFfv3HaR1+y40Cw/EbKgmYesmyhqJkqzWutK7Tz90Cis7d+7AzS+Wtq0CkTiUbkkO+7KKsVSV0Swujqz0QkJ9pKQUWujbtS1KmZ301MMcSsmie7+BBHhqKcpJI3HfEUKiWtKhdQsqa2uoK85gV3I6GtcgBvbvgkJqZ+fGNRTroV3XflgL93E48+LtD8fIuoR1pSYrCblPLG5aPeUFenza98ZeV4VZpqbm0AZcO45CLZVgt9uoPrkXo8GCT2x3pFIJFkMVxQc2/emXRDwoCPwXCLTDyAeYcOxvf4eSXxump98TCIOAm9FiapikrqOWgaj4GDtfUccu5Jy+ycThSLcVNY8i4SBGBqCjpOG5sRh4ATPrUfA1Sg44J08zRzA423LaJTEOC0txYSFcJBC2YXZO3EGAAhsZKNiNhBDntoidMGwEY+M9HBslNgIaSnVM5eMw0hWJc+tkfsPa3eHN4ChrH1I6YqEZ9dswrbCTiMzpKOhIju2FdlhJQ0YxElKR8TlKp1AZjZFJ2LgHDYMbnBTTsPEhRuagJt7J2cbDWCjHSonzBIPEeSKj/hzD+cnBYc05AmEgOPt4YXKcZRiFjQFCIPzpz7fJCoQ/3aPfeFCj9aN797bnvHQ2UpP3k1162qvvStQqyhQEBIF/DwEbT1HHFKx8io65yC7aYuiLnmnnbDE4BMItaDE2TFITqKUrKpZh5wvquBEXzrUN6pFSgZl9mBiE1ml2P5tsvIWe67AxCx2rsLELM9fjcLk7m68EKSZsjVoQHE6Kjv35oZicfhGOidsdCTeiw3En7LlbDA5To0OGOI4uPo6VG9DwGnq+Qks2NhY5J3QF16N2NtFhGxiGgTudfVYThwF/lGwDvkDPIjT80OC74Si7HybexcxodE5/ixvQN5xicPghGPkIM9PRkNJgNZlIHTUo+QEJYzA7p/bzz2o4PDskrECJGTtTMNLBKbYc8WvthGAnB6nTLuKwA43CygQ0521l/HvexX++pf8pgaBSedAyNvKcnTM7uenpFFU1vnL/54dHtEAQEAT+LgL+2ChsmITfQ08oMsahxrFlsBsN76BwrsoX4bgATX3GB+FO7E4LwlGkeGJlOXpeRste7KxFz1I0LETunOC9sFLjnNwdPgjnCwRPbGfEwiaqndsdc1AQTw2z0LLTubSxO1f9jlW+4793Us2naJ0xCc6eYtDyMAbCsFOGxOkceQwp6cg4geQ8gRCDhWkYnY6RX6BlCXJaYOZ/GMhDzkcoiUeKY4PS4RR5t/OUg41KZE7HzGAsaJA5TfwBWFEioRYpS1EQjpnxTkuBnK4N03wMZozIz2zHOA6kP4SFV9GwChnnCoQd1PApagrOEUaBWHgKG+3RYcTCdKdvg9TpB/I5CuaiJw8F76KkGVYc/RsAPImSut+IofB3vWP/tnr+UwLh3zY4or2CgCDw9xFYQDVeztU99MDKC7iyGgmOrYelGDmO3On4txcp7iiZ0eCkOM25PpU4zfDdsHIAJfegcloURlPH65id2xaOFa4jBsEAXJ1OirswMRwtFQ0T11dUU43MeTKiAzbuxIWdSJlAnXPrweGMWI6NOKT0aDCbv0w1Q5GQCLyJkjWYcfggnDb9t8fCUCzOeo+j4GkUvEodn6ChLwbuxspraCjCRBAKVjgFgsPiYOc16liDhk+QOdv4IAbKkfOpsy/1qR91+KJk5Tl22VEYUSHnFFZnwKM8rIxu8HXoiJla5KQ29HkNCjwxU4XSyf1CgTADl/P8CxwCYy1m2qPlFmeUB5Vzq+U5rDyBGjVW7sXK2yhYSTVvouNO9PyCms9EAKU//DEJgfCHkYkHBAFB4GokEITFubfuWKc7VtvpDbZGh1m9NVaCsJOLjGznvrzEuSp3nGJwbDE8hZpobDgC+OxF5py6TqcoLMRgdzr4pSEns+GYo2NV7RAVjqOUjhSNhWjsztBFqcjJOcfJLw4rwQ1lOPb3HWb0epN//fFHh+H9KDbiMbLRaeK/dGqPlTtwoc45aUs4hZRbqGEsEuckXel0FHScAbAy1hmIyMo3qPkEidPpsX6zoT45rAZqpJw6b3Uu4SXUTjvLhencLYbGWnihQHCIsnPtu27Y6I+E9mh4Az1znVsXNpZiOC/6o0PIjcPm3NqowEYUcOwSxy+vxnf5r+rTVScQZDIZVus50cEkUrx8fKkuK8ZsrQ8K4jil4LgTwvHh19TUYLNL8PbxpLy45IK4Yr+N+cK6JDIFfr4eFBcU/0aIj8sfOo1aS52h8eBJUpkcu836m5deyZQa/Dw05BfV74BqtToUCjn62hrMlvMjqF1+qy4npwSZxg2JBCz6ynrmchUypRqb2YDNfNpl63LKEnkEgaZL4LRAONdJ8Z9qrSOGwUIsTEXdcHahsZbYuZ86vkfTIFTq8/TEQB9kzEPh3E64Umm4M4yyiu2XCLV8DQZqUbAZiXOrxrG1knlO3mjMLMbEtejOEQ52OmGh53m/uhK+QEn9r49If5bAVSUQZHIV48eO4OuVq8/yUHry2Oz7Wbn4PU423KvQvucNdG+hIT0zmz0VZjwUAAAgAElEQVS7k6hDy53Tp/Ll2/PPcyb6bahapk4fy+olS6lusOfpfCJ46I4bWfDKXKcS//+mO2+dxcLP3mi0mAG3zaZ4++ccTiu4ZDV+cQOYPrQFc+f9D5tEStt27ejWfRLJSZ+SuO/o/7d5v/G8Are2Q4gZNIED829xii6VTyRuza5Ho8kha8vXV7BuUbQg8PcRaEoC4e/rtajpv0KgyQoEpc6Nbt26o5Wa2b19CxVWJa07dCPQU8WJ5CQyCqvoPmgkxtJc/Pz8SD50mPYduzBiUG/Wb9hMTUke8ftT6NS5Jz5eanbH76CkSo+bqxtDhj9EUfpKDqdnUVVloe/QPrjI7Wz98WenKpXKlcS170yglwtph/ZwsrCK2HYdCfX3ojQvnUMnS+jatQ8TJw5h049rycrIZu/Bk/Qf3h8XhZ1ffvjJaV5z8w6kc4c2YKphz549qD0DCXKx4x3eitq8NBIPp5/noet86SRSWrVpT3igHz07dOfZ157H1SuIbp3iMFaXkrh7Py1ad+WG+x6lOGk1qRl5JG3fjNwvlg4tQ8GsZ1d8Ama1O/17dsVmqmHj5u1n3ucefZ/AVvO9UyDIlDq69uiJu1pGbvpBDqXlIVNq6dWjOwd2bKaqESODROuLzkOL1LMlMmMR5WnJuLTpR92hLVhlGjwiWlKRvt95WVT7u97h0Pt3nLHKyDyvJbi9VgiE/8qvi+inICAI/KsJNFmBMPWuhyg+uJPcGhPVBQcI7jyBPv5lfJ9UxsyH7uD12fdxxxsrOLVhMYezoGMLG9v25jPlhmv4ctkKjLWVnMwuICw8iiF3PcLuxS9y+FQJHTp0o0/fcVTmx5OelcOePQcIbtGKu6bdxDsPzCIT6Nx/DG39JCQeScNWV8LxrEpiW0Rjk6i49e5pLH31Uaq1rZl5/3i++eRz8gvKycorIaZDB556YBpP3XoXOci574nZ7N20FpV/SwY2s/PdgSpuGdSML77bzX2P3cULM24l44IDFCFtxzG2hxubtyVx7bBxvPb2S9z56OMk/LCKwM6DaWM/ztKt6Ux8ci65GxZyIDWbU+nHCYrrgdZcRXTb7tTkHOTXpKPEdejE/Tdfy7R7Hm1UIHS77m5uiJPy5Xe/UllWQGZeCWpXb6ZPm8qaj98mu5GgUnL/DkQNvpGC+FX4DL6TwuX34H3T2xQunIlR5UfzEZM5vnq+EAj/6p8F0XhBQBAQBKDJCoSHHnmS+W+9cmaMpsx8lN5RgdRY7Sh1OhbOe57xs99n5au3czij3qAvV2qZdf8MXn3znfPG9prnFpC15FWS0xyngGHYqKcoSPmc5PSc+nwqHXNeeJyPH3/GKRDG3vAUqfs/41h6fX6lxo3R191Etw4tCA4LZeFjN7I9050X597HvDkvUX56ItW6s+idl3hhxn3kEMiLL07g1TlvI3MLZcGLd/PO8u10cYln4Y823vnmIz57cCL7L7h+oevj/8N3+wes3XmQu6c/xoefvMH8xV9hLc3H4eNAzQkeeW4Bt8xdRtrSJ9h54JTT6tB16FhG9+6Ch6cbP6xaysYtO9F4B/H+iw9fUiCodEE88Oh9hHvA5598TNKhtHqOcjkWS+NuTg6BENwihMxt6/CfvADT1vtxHd0gENSBNB9+kxAI4pdFEBAEBIGrgECTFQi3P/A4VSnbOZhbh7puH66xkxgSbOPLDXvwj47m0MafeeijlecJBIcPwiOPPUL8DyvILK4kp7iUwOAwhs18goJ1n5Kwdw8VNebzBYJcSVSzGO6+6zZWv7OAfXl5xPUZR68IWPvrAby0BorMfsy8qTdLVsczbeY9LJ9zM9szFTz5xlw2LV1Mdk4hBeVVRDZvxbOPzeR/z7/Mnuxi7n7qcXb/8A3uER1o41bM5kzp7wqEqH7TuDbGQGKOlcmD4rh31jPcN/s59vz4NWUSDQGKIn7dn0e/+94mNG8DO/ceoahSzycL5/P+G2/QfsgNHEv4iV937adZyzY8PnMKz704l4ysPAL8g+ne+w7sdb+yKyEJt4BgbEYTkW36M6S9K7Ofn4/WK4DbZ0zjl0WvcKSRyM8XC4R7UfR9B/nR5Vj8euCmM5G2+j00gc1pOX4Wx5fNobY0C5naB03wKPxaqMmLX4WhrPAq+HxEFwQBQUAQuHoJNFmBoNC4M+Gmm9DYq1nx5VIqrBJ6jhxPuzAvUhI3sWV/GqMmz2D/T1+RV9pwWxPgHRHLjSMGUJl7guUb47l2wiQCdY6gm5C48Wv2HC+lVdxwqgp3kVtcAe5+zJziuCIF7FYTa75fTU5RBQOHj6JFiC/b1n5HSkENo8aMw0djpcCkIHXTV6SXQXCz1owe3I/C9KP8mHSUO0+XYzHw5ZKvkWm9uO7akdQUZrB63SYColsRrjzJjsM2bpw+mYQVn5BddfHLNWTcZLyNmWSXSNiZuB2tTyhTrr8Wc20RS75a4fRQlilcGD95Iu4KK6uXfYJL3CiGtQ9md9Kv1NSYnSGcJ4wZ4SzcYihj8WffM3L0DYSFOO6eg5PJO8i1eNOrQyss+jJWfLWMCivIlC6MGTmcDasdkdEvTlLXUDwCPCg7cRjXLhOwHv8afa03wQMnUH7gZ9SB4ZQd2U3EkFvqH7aZyd76FdrQvnjHRNe3p+YkOdvXXb1fleiZICAICAJXAYEmKxCuAra/24V23fsxqEens/msRt5e8CE22/l3tP9uQSKDICAICAKCgCDwFxMQAuEvBiqKEwQEAUFAEBAErgYCQiBcDaMo+iAICAKCgCAgCPzFBIRA+IuBiuIEAUFAEBAEBIGrgcDVLxAkclrEtSbn+FFqjfVBRCUyOSEhoahkkJOTjckmpUXzKNKOpvxOmFEJASGh1BRlUePwFDwnOcIa+3poKSgqveLvhUThgdbXD7uxGn1p/TlJhW9zlAqoKzyO7UpGUb7ivRMVCAKCgCAgCDQFAleVQJAp1Nx31828/d5HZ9m6+vPykw/yxQfzSc12XFAKHfpPYkyvEE6ezOLnn9dSjY57772Dr+fMIes3R0XBw6++ye7/PcB2R8CEc5JHRBy3j+zImx98ccXHVaKNxLNVV7zCI0j79nVnferm1xPYvR9lP9xPZfkVb4KoQBAQBAQBQeAqJ9BkBYLjPP7NN9+Kt9LMko/eIqtWzbUTbqVVsAu/rvmK+GMFTJz5GOb8E7Ro3pyV3//I9TfeSMuoME6knaT05GE+Wr6BiZNnEOIn5+svP+VUYSUhwWEMHDqD0sz1HEvPIju7mplP3IOrrY4PX36TYselRm7+TJw0AXeFhVVLl5BZVkPHAaMY2bMDMa1bsfjxmxoVCLOmjaO40khl9jGW/LiTiTf055tl3yJzDeP28X14Z+FXKFwDmDZ+EJ9+8TWmRi5Mkno3x7dFN1yDIqk4tomSI/F4t72B0oMrUYb3x8+9ipyD+5DINYQNv4/MH+c2vKJS/EY+gjHhDSEQrvKPVnRPEBAEBIG/g0CTFQjTH3iCooSVbDhaRrhHKf5dbmGQfxHvfJfK/Lfn8Pzdt3H7/FVk//whq3YVcWN3Dz76NuE3Iykeyaxg2Ihr6d5tALVlR8nOzWHdj2soNyvOi6Q47vbHqdyzmgyLJ9OvacP7q/Zw9/XdeeHVxTz42hskfti4BWHeY7fw+OPPM/jme0n4ZjH9pt7LL1/MJ6BtP7p7FfLeyiR0vuHcN3kk899fhNF8cbRCWXA3Ynr1IWX5PMLHvkjm6qcJHjib3M2voW0zhTDfElI2/yQEwt/xdYg6BAFBQBD4DxNosgLh4ceeYt7clxuGRsLkmQ/TQlpNjhECQyNZtuhNJj29kFWvzuBIph4fLxVlVZa/JNTyrHe+wJaxm1oj+Lma+G5nNh1NaXy+O4NHXnuTpEsIhNNbDINumIh5+yZqWnWlb2AdhdoObFu5kNzKxkIPnf/2OQSCb6CWgj1bCBn6HDkb5giB8B/+QEXXBQFBQBD4pwg0WYEw7e7HyDm4hdxKE/rCZII630Tv0GrWbEtH5aIldc8+ZjcSavn+B+9n589rKS4v51R+MaERUQy9cxaFP39B/O4kSquM54daVqhp2bIlM2bczJoFH7I7O5s+42eiKtzD8axiZJYaaiT+3HxNFOt3FDDtjhksmzPloi0G9/BYHpw4hCUr1zNw8HBWff0peps7819/nMyTx5g3/32MFlB7hvPCw5N5bs7rGMwXexPWCwQNBXu2NgiEFwgZ9hzlh5fj2WUqLlXbOJ6wB61vMAHdx5O//XPqik6i9G+Bb69JmA59RVlWHmZ9IyEa/6m3TNQrCAgCgoAg8K8j0GQFgou7D1HhwWC3kXPyEJVmLc1jolHKpJgM1Zw4fpKwlm0oPHWMWsNZU71vUChBvl4Yqso5kZ1PVEwLdEo52O3kZ6VSVGHA2ycCY20+NXVGx01MtGvZHCQS7DYLJ0+mY0FJdGQYMomE8uJcckuqiW7WDLXMjt4qpfTUESoMF6z8lRpaNW+G3W5HX1XCqZwC7BIVzy/4iEMr57Fqc7LzAblaR/PwIFJOpGGz2S9+YVRuKJUyTNXlqLwiMZZloPQMRe3uhdloRmIoxGBSoPPxRyKRYLNZ0OceQxUSh0IicfazriQLc63wVPzXfY2iwYKAICAINCECTVYgNCFGFzXFyzeUTh1jkZ7+i93GwR07ydfrz+RVuHgybux1NPeV8vL8xYjgyU15REXbBAFBQBAQBC4kIATCn3gn1BpX/Py8kJwRCHZK8vKoPeeKZKlCRbC/D/l5+VjE3Qp/grJ4RBAQBAQBQeCfJCAEwj9JX9QtCAgCgoAgIAg0UQJCIDTRgRHNEgQEAUFAEBAE/kkC/xqBoFCpkdoMNERLviLMlEoNVqsRq/XKeQy4aZSYzFbkEjs15itXzxUBJAq9DAISdEoZEqkUi9mEQYS9vgxmIosgIAg0RQL/GoHQc/g4PIq/Zd3eK4ex76DJ5Kf9wonMgitSiUyh5JXxvUhIyqC5v4W5O3MI8vXjjn6t0RfnsmDbcfR2uLZzG3pG+7EhYS+bsypoFhTI9N6tycw8xf8S01DIldzSrzNR7hKWbUzkUHUjAZekUm7s0Z64QFe+376XPcV6bu7TgZYBnmAz8f6KbWQ30svY8DAmdY0hPf04S/Zn4+vlye392mOurWTh1mRKjRfPeHKZgruHdCNAbeGTjXtIr7UwtW8XWge68mvSAX7KKKOR8xr0jG3JNXGB7NmbzKr0Mme/7h/WHS+5gQ827CW3rvHZVa3S8tQ1HXlm5Q7U7r68MLKd47ALlVVVvLo+6aJeKWRypvTtSLSnmmVbd5NlkHLP8F54q+uzZuSeYNHOXKb170ykm4SvNiZypIFpdEQzJrfw4MNNe6hTqpkxsBPeKgkrtu4hucxA/9YxDG4RyP5Dx1h1ohi5TMUdvVoi8/Uib188qzKMV+RdEoUKAoKAIHClCTRZgSBXaWnRsiVqqY3jRw7QfcytBNWs5WBhGBUFp8jIK8UrMJKIIG9sxlpSUlLRekbj7SnD3VVLVsYJispqCAiJINjP07miqyrLIy2rnOYtm6OV20hLSaHKYMbTP4TIkAC6dB3Gjk2fc+REzvncJVICQ6MI9vOgsiSPtFMFNGvVAnONEW8/TzLTjlBSaUChdiG2eSSphw9haMw4IFcyf1Jv1m1No4V/HQv2lHJTj1i27DnKwP4Dqcs5xO4qLWNDpXyQmMmc63rwwqrtdI8OJCE9n6mDulK4K4kUtwCaSSs5YnbnlZGx3P7ZZi6UCC2iounmauS7E+U8PaItz6xO4oFB7Xljw6UVls7FkxdHxDLn+wQmDupD0r79nCivxWK10io6ks6mShaeKjuPjeOo5SPXDSZ5TyIn7N7c1taHV9btIdBDSXalhefHdOPNtQlUmuz4e3uhtBrIrtATHRbGnS11PLvlJG/eNorlq9czYsRQVv+8iXJtMCOD5by9/ShKpYq4QHcOZhY5++gQEbPGDcDbVM0jq+PReQczt6+amd+lX/Jb8XLREeOqIL3Ozuyegcxal3Im77CeXQgoTWFnnRchlmJSLB481LcZT67chlar5cG+sbh7uzF/+WYCo2MxVeSRa5bz/MAA5seXcFuEimd2ZvHkjcP4dcMGdlVLuL1fOyyu3hQmbuTHK6M1r/TvgihfEBAEBAGarEAYM/VOQoyn2HysBFXNXnw738rEvpF8snwz06eMZtY9s2g2cDRlGcfoc+0tHN/+DcqAifRrkcPKrSkM7BLC/5as5Z67b+OH1T9x+x3TWTH3VYKGTiDEkEpisRvXdvHlrc828sQjt7JiyVLielzH3i1fXiQQAiJbc8/Nw1j2zQZuvOVmfl36Pn1nzMZ0dBfbT9npEmrmnUVf4x3Zljeev5+X7r2d9OrG3y4fVw01dWZUMjuV56zGrx82GMPJfbg170HJ0R14BbVgeKwPHy9ax46Gom7p34lj8XtJarhJ0t/bn1eGNWPG0p0XHaOcOHwIGYd3ER3ZimGtfXn/o58YMLon3joV6SfSWbgn46JVfWSrNlznVca2Eg3TuzcjOX4vC0+UEOSuo2vzcHIys9hddH7HlAo1r1/XlZfW7eXuIV0IUNt47rsdmJAT7O3N2FZ+vP1LMgY7TBkxEGVFNp8knGB4xxaUpZzEq2VzRrWKYv+pNAa0CGbWt3t4aEQXNKYK7l+1m9CgUOaNbcvMD9biuGprdOfWkJ1JQIuWLN62B51XEJ/c1JHM4irWbN/LjoLaS37W3u7uPNjRl2e2pDnzOATArIHNefXHA5y+nNPbM4BH+0fw1He7GNa1A8VZ6Ywf1Jl3l2/GJSCY6Z0Cic834VGexz6zmrE6E3MOF3HNgIGEV+5jwb4K3DUq7FIZVoOeWrHFIH5mBQFB4F9KoMkKhIcfe5p5c186g3XI+FvxKfiCZdu9WPTte7w2YzLysK5E+HsQENWKgmPxGFXDMOcsZU92GXdOn8LHHy/h/ntnsHHjVkaOGMBnr73NtGee4MjOBGpwYdCwDqz95QQ9/Ut5efEaRoy5l6yjqy8SCO0Hj6ZZXiorj56g5cgHGOadi3vX3nz/wIMk+8fw2tQRPDf3Xf6sMblzTCTXROiYu/EwY0ePpouyhG1HT6LwDSRzezK7kNA+OoK+gUre3ZHqZKJWqZnRN45tiXtJrrIT7h/GhE7BmE0mlu/Yy6DBI2mvKGPj4ZM0i4lk+7pEDgBSiZTbhvTGmpHEqlwld/dv7Swvcd9u8rxieay9G4npBezM09NTZeazk+X0axVBjL8HFcW5fHOo/nrp08khEN64sTclZVV8u+MAA3t3YemWBNzcPekUGUi4i4qFvx6g5oKokSM7taJrsDcppzJIKPdgUJiNQW2iOHyygK+37mNc/w68tWHfBXUpmDOyM98eymJI62b8fDCFo5mFOKJPeLq6MW9yP55f9AOZjUzKrjoXpvVtz097DpBaXB/yumOLGEJMlazJqL/l083FhXv7t+bHbUlUuobyaN9IluxKY+qAtqz5NZEUvYrr4gIwo6C8KIevj5RwU484vGR2QkLDSdu9kcUplxYo/9LfCNFsQUAQ+I8SaLIC4aHH5rD8o9fIr7HiojTSbdSteOV/xjc7fJwC4d0nZzPrsceZ89yrtBk0Fn1mklMgmHKWsDe73CkQvvj8R24Z15lv18djMenJL6vl0aeeIm39EnZlVeHiqkPmFsetgz15YcGPPPPyiyx9/6WLBEKrboMZ2dLOvC+3MuXRVzDtXUGLsVNYfd+DHAw8KxDknsE8MOMG3p33DjUXuwU0+orFRTVjUKCcxfEp1NqhRVQLBvjb+F/CCR4Y2pUPNiTRLa4Fg/3svLE9jVqzDa1ay7PjevLt5p0kFdQ1Wm6H5q1orqrhu5QiHh3SlrnrdjtN9BKJlDuG96b40E6+zTl/JvXw8ObFYbE8tXI7vdq3oyD3FPsLKp3lB/j6cm9nb55ef9Y87/yDRMpLk4exe8sWtlSpeKhXc17/ebfTYuBIk3t14qcDhymtNdKmZUvC7GWsTS2ibUw0d7VWcv/3x5k1aRQJmzcw8brRLFmxhkMmF26NC2D+zqO46Nx4anAMz32/F4tUSqinq6NSxnWOZeXuQxSWVTtX/246He9O7s/sRQ5Lg5TJfTtScGAfmyptaJQqZg7swPL4ZLKq6nnJZApev7E/81b+Qp7Zhkal5clrOrNiayIHS4y46nR4qeXYkfDQ6K4sXb+D0HZdOZ68h4waKa9c340HvtzoLEurUjPn+l688s0vlAmLwX/0p1R0WxC4+gg0WYEQFduF668ZhMRqZuPKt7AG9selfCvxKa7cNWs63y1ezIgpdxCgVVBWXkrSzl8xK9phKd3OydJahgzsy86kozzzxIMU5xegc9WxZdXnHK5yYcq4oSildjKO7WP5T0ncesft+KkhI/0Qu3btJ7ug9LyRVqjduP7GiUQEuFOSm8riJesZP20SSZ98RqZnAJP7duCb79fjGhzFzTdey7eL3yb7ElsM5xUsV/DAkM6o5DLnP2dnZvH1wSxu6tOZYBcFB1PS2JBRzKheXWjtpXLmqS4rILHYyuAWwc7/t1mtfJ+whxPl5vOKVikUTOjVHl+VlKSDKcQX1jCuU2vCvLXk5GXzzcHcRt/mfu3i6BzkQnFxMSv3pRMeFMFIx6rZYmR5wlEKHDdYXZC0Lh7c3qslCmxs2nuAo1Vw/8CODnMFJ05msi4lzylOHNdlm8qL2XQsB6lUyqRe7Qh0VZGfl8NXB3JwcfNmeo8Y5FhZs+sAJyrNBPoFMLlzGJ+vS3JexX06DWoVzS/H0gkJDGZCu1CsVjMJuw+QWGFFIpUxqltbpDlHWZNtJMDDl5v7tKh/1GZh7tpdhIWG09vXxNJ99RaRPu1i6RHm5fxvi1HPNwkHyXU6KkqY0qc16+IPo/Xw4oauLZDabBw/doR1xXamdGuFpxK2xB/iYM2ftSFdfT8sokeCgCDw7yfQZAXCX4HWN64v9wwK57PvtjPg+ltwy9zEu9/u/M2iVRovQoPqJ4rTqaKkgJLLuInxr2izKEMQEAQEAUFAEGgKBK5qgSCRyunaawCRwd4UZ6byS8L+32XuHdCWoQPq9+VPp+MH4tl7LPN3nxUZBAFBQBAQBASBq4XAVS0QrpZBEv0QBAQBQUAQEAT+bgJCIPzdxEV9goAgIAgIAoLAv4DAf1MgSCQ4AvzY/+Ati1KZHJv1Mo8n/AsGXzRREBAEBAFBQBC4FIEmLxC6jZpEe+leFv5Qf/7/r0ht+15DL/8SPlyR0GhxCpULA3q1YcPmc/6u8uG1l2fxzqsvk19a9Vc047LL8Gg9GK/Ym6g5/hlFyTuQurcltOdANC5qUla8dtnliIyCgCAgCAgCgsDlEmiyAkGm1BIVGUqbXkPxLd7gFAheAaH4uKnIyUhDbwaJTEVUZDhSiY3szAwMJise3v74+7hTUpBLWZUBPy8vDFIlfi4yTmRk4e4bSEiAL3Xl2ZzMKUem1BDi54ZNrkNqqSMrv4y27Ttz+8RBLFj0DabaSjLzywkPC8fDTc2xY8cwmBxHCmWER0Wiklo5lZ6BVaFx1qvWuGKoKSevsMQ5Bj7BEVBbQklFfXCe85MMjX8YZr0BlYsLtfknQKFDoZRirq1G4R6MubL+OKI64gnc3Lc7BYIjSeQawobfR+aPcy93rEU+QUAQEAQEAUHgsgk0WYFw50NPUJ55jKCWHak7tISdpRHcNiiKzQdKuGZEF55+7GnGPbYAdc5OMvLL2bXzF2Sezbj1+qGkpJygpuwU2/ecYvas56gtS8biHUvNrk/ZmK2mX5de+Mj3Mv+TBDwi4vjg+ftYv+EX/CJasWnNt0THtmdk//b8sH4b1UUZbN9/ij69etF1xDCWvjWHnNJabn34SdT5KZRK3InxM7N4dRKvzrqdnzduI6ZFOz54fy6lVWZmPjuH0n0/8fWaLY3oA0/iHviAioO/YJP5YS9NpCi/Bt9ADQV7thIy9DlyNrwgBMJlv84ioyAgCAgCgsBfRaCJCoRAnnhsMK/O/ZLTWww1odfQr0UQVSY7fmHhzHv2PggcwL1TB5Gycy0fLFlD10GzkZR+x5bEo04+KrUHj94zg9fffgO7QoNaYqPWYCQorBPXD1Ly3qf1AuGZ2wby6HPv0mrwWGKLT7A+o4xnH76R2c+/cx7n6558nb0fv06pQcurT07lwdmvYkPKIy+9yvcrVzGudyxzF3zGhIn3sWXjlxSVVCBXaZBYTZgtjYTYk3kS9+DbHJ13K3afjoS0iCAvI0cIhL/q7RblCAKCgCAgCPxpAk1UIKh5/NmH+GjBIsbdNhPZ8a85petNTOVRlu1KxTMoiLwjqfhH+1NVbWXy3U9wZOMiCiXt6BVVy4q123HRSCksNfHoXdN4+e15ZwBptC5ERHVmVB8Fi5bsQuYVzrO3D+P5Nz9hyPibydi6msP5tcx56m4WvvsBJdV1VNWZcHN1ZfSDT3Nw2fucKqjkyWdms3Lxh5RIA7j5uh58svIXJg5qx5sffHFWIDgiOo69jqpTh0jcf+wSFoT59QLBtxMhLSPITc0kJDaKgiMpRAy5heNLH0Gqckcb9SCurokUJW/FapWgcPEkpP90sje+h0VfQaP3Kf/p10I8KAgIAoKAIPBfJ9BEBQJ06jeKa/q1Z9exdFR58fyYVMSYKXcSF+r2f+yddXhU1/a/39Fk4u4uxAhJ8ODuUByKQ7GixQuFAoVCgSIFSimlQOmlQHF392ABAnF3d5lkMvk9M6FCCYX2cu+Pfu/s5+EPMufsvc+79znnc9baey2eXj/JwYthjJ05GWs9LTLjQ9n64wHKEdG1V3/qezlz7fg+roYk8X7Pbuz8ec/zcRbSvtf7NA/wRCIWkB4fxYEz9/jy8xmEhsdw5/wRztx+gmpzQ63AjgzpGEhG1H22nQtm1IhhWBvrUVku5/Ter3mUIWX8mJFolfKJk4IAACAASURBVGbxzZZtKPRt6dakFrsPnqZt+z48CDpDbn4xXT6YgTL8HKevP3p5rgn1ce43mbi9y6gy9MDC0ZqMJ9ewbPURMnEuJflyMoJ2Ydl4EsYu9ggElRRFnScjQ4BT41YIxVIqS/OIP7UcuSZH0P/6vay5fg0BDQENgbdK4J0VCG/1Kv+kMpWLYf7wVsxcvPG/1aSmHQ0BDQENAQ0BDYF3nsD/vEBQZSPUloopk6tyAmqKhoCGgIaAhoCGgIaAioBGIGjmgYaAhoCGgIaAhoCGwEsENAJBMyk0BDQENAQ0BDQENAT+eQJBqq2DhHKKy95eiGMtmS4ySRV5BSV/YUoIMbe0JDczDYWy6i+c9+8fqqdrQFHxm0VvFIkliEUC5L+6TATo6+pRWFz473fkFTUIBEIMtMQIhELk8jJKK0GmrUV5eQX6UjH5ZeWaTRb/MfqaijUENAQ0BP4zBN55C0LDLgPxEzzguxMRb41A867jaWabyPItJ2qsU1vHhBkTevH5l9//9ruJPT+s+oT58+aRmJ7z1vryJhWNGTWX77Ytf5NDcfSph7u5Fucv31QfL5YYMHn4SNZufTGmwxtV9oYHGeobMamJO0JLc8KunWdfbDnvtW5G8LMwPvRzZNHZ+5S9YV2awzQENAQ0BDQE3g0C76xAMLJ0pG2Lxjh51aHo4U62nIihftM2OJrLeHTrIpGpBegY29G+dSBiFFy5eJqsfDk+dQOp7WJD+OMgnkSnU9e7NnJdQ9zMJJw+fRorr0Y08HQiMeI6N4OT0TY0p1WDWiilpojkuVy884w+vXvRrqkvZy7cpCA1mvNBUbRt0xodcTnnL16goLgMia4p7dq2RE+s4Or5s+QL9Ams64W+gRkFGXFcu/2QyqoXLQ3utTyxr+VFeV4Olham3Lx4nAojT1rU80CoKOb8mXPkCfSpW9sNGzsHyrJjOX/1PuNHz2fz1qV4+jXESpLH5fvRBDRpjauVASF3LhKWlIeOsQ1tWzbBxt6OmJC7nL9yh/qBzXFzsKeemz0zl3yOpaMnLRrVoTgziWv3Q/D2duHO7WD1TLR3rEcV2dT2cEEp0kMoz+HSlZvIK5U4+jfFQbtEfU01FR2ZDkMauKIwMCf29kUuZUFbfx+C4xMZVtuBjddCUAWn1hQNAQ0BDQENgX8OgXdWIMyev5w9a+Zh324wtavucl8RwPu+ChZue8B3Gxcwc8QYxq7fxdHVH/EwMguxuBIjp0bM6FefuV9sxsPVhpiEfBYtWUd2yG5CRbVxKbjLhv1XsXWsT+82kl8jKW5bOZvF8z7Bs+tows7tJDqllAUf9efjxV9BVZXaPK7K/thz7hfqSIoJWaUsXvMlwXvX80DhyYT2zqzbfZ51iyYwbdo8eo2Zw89blpOZ86JboN+IcVhkR+PTqx87D6djX3KcRJElTy6doMn7c7EovseuS3Ec2LKQpZNGEjhgFtvXLWX46Pn8ePgAi6b2ZPaC5fh0eJ9xzWTM/vI0Wzcv45PxU5izeQtbF00nT9sNF9NKonO06R2gz/q9V/ho9Ad89cMO5n3yMZsWfkybsbNxEyZRJjRm/eZt6Aqr8O01k7Loc8z5aBwL583H970pPDy6ntDIJAZOX0gtSSafrdBsBf3n3NqanmoIaAhoCPx7BN5RgWDE3Dl9Wb5iK427DVK7GIrsu+JSmUZMEQQ0bcOO1XPRdm5KoLc9xfk5nDp+GI9GH0HOYS7fDlFTqQ61PJrP13yJoY0bTrIyHkUnvRRqef7w1sxcvAHvdu/hnhnF+deFWi7V5ov5HzB59hJAyNxlX7Bv7z56NvPiy69/F0kxK++F0enVvw8XTgUxcUIXTl3Wx8PoJlEKc7xt9NE2tkKeHs7O8xHMfy+Apdv24OLhSV54GP3HLcejeS2OrZnDxQfRDJkwBY+qLMIKoE5ga87u28OQAS0ZOWEBTr4NcDeTUlinL6Krm7nzNI2pI0ex8+h5RnUzZcV3lzG1acTimV1JS8vk/FM5/Wrlc0e3HqHHvmdYn/eY9elKWrcfR0biOZ6Gxfx7M0xztoaAhoCGgIbAP5LAOyoQYN7C+Sz/bBkT5ixE8fQnkvXaYF1wjq0no9ExNEKel4eWjoSS0goadxqJQWkI6TgTYJjLjqPnkckkVCplL4VaVo1StQVBysYdtzB09EElEGZ9tpGeg6YQdf8oUSnFLJkzhk8XLqNU8ZsFoZfKgrBtJamFClavWsw3H88lRseFRRM6sfFfZxjYru6LoZZfEgi9uXDqLhPGd+b0VQP8nCLp/l43Rg8fj11gN+paK9UCYV6XAJb9+Ev0R9Quhu8P/MDKj4cyfc4yOg0eh1f5VdbtD0Nb3xCxWJtv13zK2PHTGbhwE3FnvyfXpDUm6acISRPx2Ue9mLF4E7OnDGLhwlX49h5PN5ssKg3cqdQxxagkh3JdPbav28TEiQNfEgg+PcbS2SqHL7fs/0dOck2nNQQ0BDQENAT+OoF3ViAENGpJLQcLMvIKyY8L4lmaiE7tWyIRCSkvyeHciRu07tcdXapQVJRx7dJFcksqad2hE8YyCSmxIdx6FEvjun7cCLrznIwA3wZN8XK0UcVHojAng4dRWSybM4pDp65QVpjJlWsqv7uI+s1a4GplTn5KFJdC4mndshUG2mKqlEqCb52m2MCDJrVdEFZV8ijoGvH5Vfi7WXH7/hO8feoTF/OEklL5CyPi4eVBXHQq9eq5Eh2vhalOOlYevpjpaFNaVkJcdDhPYrNp6mbFjSfVCadUpa5/Mx4EX8e3bkMMKlIIiiqhS+c2SEVC5CW5XDxxAc82XXE21SYrI5G4uCTS8sro1K4VKMoozk7j7I0HNGjUBGd7ayrKijh97DReTVtgSAExhdp4mUu4ciuYJg18uHDlFo7OAZQUxJKZnU9As9YYUMKV67f/+gzTnKEhoCGgIaAh8I8k8M4KhP8WTVWo5U+GtWTWZ1+/1Sa1jS2xM9F/oc6MtEQKil8UDW+1UU1lGgIaAhoCGgIaAm+JwP+8QJDqGVHHzYp7wWFvCWl1NcbOftRzNX+hztDHd0nOyH+r7Wgq0xDQENAQ0BDQEPhPEPifFwj/CaiaOjUENAQ0BDQENAT+6QQ0AuGfPoKa/msIaAhoCGgIaAj8Bwi80wJBIBShra2FoEpJSelbjsWnzuIooUxe85oAVdyDqj8EOvo7/IUiJZ7OCrJiJWRUCv5OFf+xc0QSKVoSMZUKOfLyyrfajlgsQlmpVC+kLFP8VreKwO/DRwkE6lAT6qJiLhEKEIpEKCoqUPx3I1q/1et/fWUCZDIZqusvLSlRM5FIpEgkYioqKtT/pFoyhMoyyir+PggBQoTCKqRiEeXlCl41yn8cl+rxqB6bX2btL72oPlaAtlREhaISYRVUvIV75fXM/jNHSLW0EYuEKOQlqG4DLW0dlIoyKhTKGhv85fgKeSkVlS/MZvXzqqys+ln1tp4hr7tqiVh1DyvUC7hVgc3+blGP8+/uR5FIiET1f4SUKxR/MVy6QM1CXlb2ivNqmnF/t+f/+fNEQiESIVQJhCgUCn4Z9t8/v960F6+7ctU4VvxuHIUCAVoSEUplFfLfPUv/2J6WWKROAyCkioo3TAdg61iOVpmQmHRxjd1/dwWCQMboOXMQpYaRmp7K0dNX3pT/mx1n7c6Gqf2Y/PGyl46Xygzp1bkxew+eebO6/uSoQSNzqV2lxeZdMhIq3i2BYOPhT6tGDXHRCWbp5qB/+1p/X0HPNs14+DSMif5OfHrmHpaWFrT3tCM2I5MLoYkIRWIGN6mNiCqkyjK23QjH0NCUPj7W1G7gw5F9B7iQ8vbyb7zVi3sLlbUd/CH1LCsJjUji6vGT5AvFzPloImFRMYSHRREWEUr3Xn1xLjjB+gulf7tFM31b6jhoMbxFbdb/dJT7NSyBaejuQl1bE84+iyYmIxeBUMyYlnUor1RSkJ/D2cRyuroZsC8oAkN9fXp5GrMrvJAVAwLYfT4ce3kp+1P+u+HH6wc2Q/HkPsFFf5+NCqqJZyDTh3fl7q07JDw8y8NEOQNnLif63HbuPqo5vHvtxq3o168/8UcWse1qxu/Gxpp1m2Ywf8JMivCiRw9Hjh89zd9/Zb/JsAsY1rk5t6/dZJC/F4uuP3mTk146RkdbShc/d3SlErKSkzkRk0mgvz+9bMrJ17Hnx1NnSSj+K0LVgrWbP+bz8dPJqqFHzTt15cHV8xSX/DMWbft7ejPQVUSRjg2nL50nOFdAlwBPnM202Xv+Hmlv/KjSopufNacexb1SrI9u7sfOG48pf/6SNzbQo6GjJV5WBqw7V3M0W5WYm9OuHudTyqglyOVfj5PeaB7U8i5n3vtFrFhhQmjRy6e8mwJBKEbfwpEfvlnI9GETyVJWUFJWiZ2TM3pSEdlpCaTnFuNYyxtlSQF6enokJyZhZmeDQAnF+bno62oTGZv40hWLJNo4ODois3biw671mPzxciztHTHR06GsOJ/41Bz8/BvwwYDWbNq2D3lhLtFJ6erQx0b6OpTkZxOfnK5WxcZmVsgoIiWrBrLPW/5qTTIXttpyVL1rUYCekSn21hZUyguJjElEqmuIk70NwioFcbGxGNi7oV9Rjlyej46RCZHhkZjb2iPRkqEvqSImOoryKinOzo5oS0TkZiaTmlWAvbsXgtICdPX0SUmKV++WUPVZX0eLzLQksvOLa5wwtk5+DOmoxYpvqwWCua0TZgY6lJUUEJ+YjIqXo709UqkEQZWCqNBw5AIR7rVcSYiNQV5e853RIaA29+MS+cDPkbWXH+NlpkdulQFdfc3YfPkxAbXc6GVSwMI7Wawa05uLZ45xLVtKJ09rXD29uXjiMEG5bzTH0Tcyw87anIqyYqJjE9DSM8LRzhoqK9RM9W3dMBYoqFQUINUzJjIyFmtbSwRiHfSlEB0VibxSiqurE1qq+ZWeSHp2IbbOrogqFejqaBEfF0dpubJ67khFpCUnkFf0slVLIJTi7OqCtkRITmYyaVmF2NpYkZycgomJDQUFGWjLdFm45RtOThjHPQXI5XJ09Y0Y2Pc9/vXTHsrlZWhbOGNnKKEk6ymx6YDUCHszbRJT0rCxdaQoJZ6CKjBx8EBQnEF2ds2wTPQM8LEzpm0jL/buOU1YOdgYG6KvJSK7oIjM4kraWGgTiz2meoXci0lmWKdWGMfcYn1kOd8Ob8/K/ecY2bkVO89dx9jSEXlhNg9zKljYzZ2jQakUycuITH8xKNirRk5b1wBHextQyImKiUMoluHs7IBIoCQhLoYKiQGuphAal4OduzclaaEY2nmjyM9H38iQ1KRoRIZ2DOjdA3nQdW7mFxEe9gwzCyu1ldHWxoaC1HgU2gYIC7NIK65Ax9wJbUUOObkvRjbV0tGjWZ8PaCU9wcqf0yktKsTS1h4jAwOSEuPJL1Td1wKs7Bwx1pORm5FEWk510rMh0xcjvfe1WiCoLJ129g7o6dgxdWYfFk5dgIl9L4YNd2HXjz+Tk5mCloEFmYnRFMkrsXBwIi8lEXMbe7SkWogpJyYmDqVAjIOTE9piAamJseSXVAcod3V3IzYy6pVCo19zP27fCaFDHVe+vxehtlxYGxmot2Xn5uaSXqZEpiXFzlgPKhXEZRZQJZHgbKqPsEpJYnYBJc+tJXo6uixu786MI8F4uHnSx6qYQgNn9l24StobvMtVLGztVc8dG6bOHsD8kVNQmFljZW6EoFJOTHQiNs7O9Bk2guvHD5KTlUFUbAL6JlbYWJhQUVpEbHwCVUIVC2dkUtU9EE98ZjG6RpbYW5uAopSYmARkptaI5FnkFJTjYGNFYko61hbWCGUy9CRKoqJjqESMla0DRnpa5GUkkppdhIG5NdamhpQVZJGQmqW2klnY2COrKiI+teb7yNnBhQFOUKhnz6WrVwjHmNYWYto1q8u2vWeIeAM22lIpDiZWDG9mz55bYWQVFJFaWI6DqSG6WmKy8wvIKC5nTAt/LoXGIxQoic3M5xcD4tjW/my5VB0aXyqR4miiGs9yYrOLUAqEjGzkyeU0Oa7SIs6Gqx4ab1KqWDgjl5t7TDiX/E8RCLrmdGzXhgmjevPjNzvIKUgEiwACDDK4G6eg15BBrP90OqOW7ST16k9EpgpxNpfj07Ev0WGxeBoVk18hZO68pS9esVDMwDGT0El5TESVKQOauTP54y9p0qoZgopy6jfuyqkjW7B28mFg9yb8a88JSvJSeRKVRr26foglMvoN6cO3n0wkNBuadRiMg+AZP515RY4C3Uq2r87k64VWXE0HI3tvFs0YzuGDx0Eo4NG9J3y8fCmX9u+l3MgBX5MCCmsPwjQhmIb17XgQlsGlz5fQYPE64q4fQWzvR11JCEt3htCkoTsKkR5jRnRj+rAJjNtymPzbe4hIUeBmmcvp+0JaNbQh5FkcHQO9WbL2mzcQCGICW7VEWCGnTt3OXDi+EVPnrjgYplIqMaWVh4RPlnyPXKrHgvmz+Hb9atKy3izLpKpxMyNr+vqbqwVCl7oeJEYl4+vrhovMgOi8OHbfS3iTGf3CMbrO9Vk9fxS7d+xGoVTy+O4j5qxczdWDu5Ca22BLEvn1PkQ/MpgWgbYkFlZwfOFK2ny6kOCzBxG5N8Or4gZf7oykeaATCqE2/Tq3YP7s+UzatIe0q3vJRw9LxX0ux7pQ21VGQmIe/dr5MmPJmpf6W6/3bPp5FXH88hMyUmOITspmyoejWfvVRrp0mcztWz/h16gR748eyYOt24hTVhIWGYWPd20CG9Xjxs3bREWGkCe2pFeXtrhkr+TjndVfbjOnzeDoD8fo9H571n9dvS237cRFCJ6e4/zlG2/Ezsraic7uBoSn5NDV24ZFR4PUeTKcLTx/FQgLerfip0vBtPZzxUZfh4MPgilSGtDL1QhjCyNWHb1B4Rt/Mb3YrZkzZxLy8C4lCgVBt+7Qe9w08sMfUCy0YHB7Rz77OZgVXYQMWniSWZv3ErptCE2n7yXt/AHuR6Ti62DBsXuRDHyvI2XBd3lYUEJQ0A0GDh9DLTsdLlwJZ+Twbiz78SLTOlkw8ePNfLx6CyfXfcLDhMwXOuPZsDVt23fEU3SXk0ElPLx4DgNnd3xrDyAz5QhXbz0koG1P3q9vwL7LUXTp0Yktqz8nNUf+gkDwrNudQB8dImOKGTGmAwunLcLBsx99+zpx+MBx0pKjsG07Bu/SW3yz+wqfzJvN2tWrWLLmKy4cOYC1mw8F1w6SaNkMZ8N8YlJhzMBAJs1cSGl5FZ8smMfaL5bxXC+8dpwDvT1oYlTFrcwSqopzuZ2uZHG/ZlwPDqOwXElofCpyA2Pqmckw1NNFUFHC8ZBEAhysCHC2RViYwdYHL39cvbZhwDOgM638DQmJKGDEuC58PGwSdg0aoycV49OiGyUPDvAoA3r078/dC6fV4unBkzBcfOtjqSvFr0EjbhzbSYWVH+Ob1WLfzScUpYUSJzdl9aKx/LjjCFKXQExzb5FsUBfd+MOcvpXCnAmjWLn5BxYuXMnT20cw8mhM4cXdRJvXp72rFpcexaIsSSe6QId5H/bkp5/P0LBDd67s/ZrHkel0HzQWe8VTNv189U0us/oYqYwvBrZ4Y4GgK9PG29qOfg1sOXY/iuTsXGJyK2jmYY2ysoomThZsuPiAj7o350lUPAamphilx7E5vNo694tAEEm1+bxfE87dfIbU0g7t3AQOhf/ekvXml6ByIE0Zl0fVUz2+vS2mXPGilfvdtCCork/PigM7v2Bs7xFkI2Di1Mls/mq92izTccYGyi9soOWEZexfPpqQWNXXiwGrtnzB8T3XCXQoRG7hztqVLz7AJdo6LJg9nk8/W4PAphbrp/Rl6ierCWzVgU6tm2BmZMDGr5YTl17Jp9P7M2dRdQZEsVSbxq3fo0ub+tg7OrJlTn+uxVc7aQXPczXUNCSDeuYxvrmAHnMNyCsXULdlZ9o55rNyZ3WmRVOrBqya2ZpRM1eqZhufLJhEunFjEg8uY2jfduy9W0Dlru+wmjKLbetXYmrdinXzmzF27mY6936fRp5O2DubMnfACN7f9DPn133IvYhsdd2BY9cy3E9MQVEZxgZSxnw49bUCQWVabtSyPV3bNMfU2IiN61dibNscS600ynRMsC6+x/dnotX1qFI7q4JG/ZXye4HQqZ4PI+o7svHYZRKFLjS2yGPvg5rNYkKhEOUr2mrebyw9zB4x65vqYFg6eq3YsLIDH0yYh76JBfMmdue+sC5JB7YydFRP7qeVkLFpG94fjWLl0hXoGXdj8ew6zF/xPd37DqS+mx0GEiULZ8xhxJpvOLhmDpFJ1SKo0ejVDKkjprS0HHMzI0Z+MOalyxeK7Vj71Xy0yzNYsnIDqdmFvwqErt2mcOvGj+Tk5vPFTzs5MGgId5/XIJLKGD64P9u2//BrnS17DqKzwe5fBYKhf2d2fDqGL2cM5EZsefVxqjlI1a/rOF43Ht3atiM/4ibXEkuY2q0ZUcevo8pp+nuBML9XK5xlChYfvY1prTpUpEYQklrEon7tuHf6IscLXz3ur5sXH330EV+tW/erX3rJ8oksX7QJlaV5156f+WT9DpZ1gkGfnmD25r08ey4QDgztz31FJTOHDGHVjz/Sd9AwSs8c4UR2tc9k6KgxnDr4E1l5v1nKvtqyg+2rdzFxWls+nPAxNS0paNJ/Am0ke1i66zcXiZv7eKzN7nDt1kMmzV2In7khueUKZDpiNq5dSXhs2gsCoeHE+ZSc2EZIPKz7evpzF0M75s2rzYrl6577qyV8Om8GW6/l0M87h/Xf7mfGxKls+GYDPs3aMcQzgcvSobRx1FK7dsytrZg2cazaSvXX1jIIGNGmAReuBZH4PEOarb0Li+pLGXPot63clkZG9Pd3wsHEgDtxiex/EKvmaGSgz5LuAXy6+yq5rxhmlU9c+Yo1J4Gjp1N6djfBiUrWbZ7D0vGzMPCtx8BePbGwsSHqyjY2/nSVkdM/5si2jeTkVVtffRq0oH+PLlhamPHj14u4nyRkwSezMBGVsOmrtYht6zGidhZTN99BINTnw/H9eFagj278kWqBMHEkK7/5gTnjh/H5+i3PbwMJH0ycz519Cwl5/v5s3H4oUwY2ISmzELFMxpld33Em6LGasepl+ZeW0vxFgVDdKX0+7lqLNSfvU15Vve6oW20n6tmZogN8cvI2g5vUUbsYHGxtmeqhzeTzUeozfxEIlmYWfN2/IRGJOSAQE5eWzJag6ufyH8ufPTurj60ioJ6cNR/k8/F6E+6ESV6o4h8iEKDn0PFYF4Vx/HE2H82ezKb50xn6+Y6/JBAEYi2mfTyHhyf3YlqnLc08jVi57SqLPuzIqq/3MmTESH7+YS3RqSUsWfgRP27cSEJOMcb2PkwYEMi3/7rApNmzOLB0uFogNGreD3udWPafufeK53IVG9emcGWnNfseCrF1b8CCSb1Yt/YrBOauZIUnsOKr+WxatQKFfSsaWedQUXsQyYeXvyAQbKbN4+D2r2nYvi/e4kdEiBsQaBjPz0HlzJw+mPkDXxYIns370M65ij0nr+HkaMe9+y9bOWR6+ri4BdCnpZQNO4IQ6rqwbPZAVn21nUEjxrJ/1wYsWozERRFJUkIid27fIr+kHKFMn2njR7Bz5051pMU3KSpTob2ZDV1qm7LzegiGppZMr2/O6ktRjOralIPHzhFc8PJnqblnA0b3bMmP678kqeTllmw827JyegeWfL6GcgMnciMTWfPtEr5avgSxW2s8JVHI6wx8SSD4TB/Hdxs20eK9UdgUX6XQuQvO+bc5/lTM6J7NWTzzZYFQt00f6psWcfDiA7zrenH13MtfG551apOVkoZT3fdo4a3N2o1bWblwGl99s4epM+awfOm8NxIIKldUq649aaN3hMU7i8kvLWPuok+4cPwynTv4sHjZt2oYfSfNIv72Je7ee9UcfJGZm7MrbY0rORaby6S2Pnyx/yZV2lq4WdXCWLeI+zFJBPj40sqgjM0PU/mwtT8bj18ms7yKBX3acuLIRR78yerR8TNmcejHbaRnVAvVP5bFy1ez+9t1KPX0SIiIZuDkuUSc2kGJvgsfDWzC1O+vs3VmRz5Zc5gZc+dxbG0/tQXhjwKhS//BNJKms+HUQ7Jzshky8mWB4BU4kNmTurN71UzOBqfW2J8XBYIAfX1DPDxGYGHykBu37uLbeThtjfLZfPAshoaWpMaFIdA3ZMCHM5E+2smO8zF4tB6IW3kE0VXWzJjQnrH9J1CEN18s7cuGDd+QX1hAUYmcfsOm0bFDI9bNG01IQhFzp89m246tNO05iPygfQg9OuKkiOPQ9VB8m9bj+tHTauvOpGlT+OHr9RQ+14Svu996NArASZDNnpAsPAzhbq6Idf0bs/nkbTLLQF5SzPje7blxOwiZhT1alYUcCY7DSKaFjrY2H7b0ZvWxm+TUYCVSuWDeH9CD7Ru+Jr+GFK312g/CW5DA0zJjZkzqxuzJK1m8Yg5fr1hFYN9xCKOPqgVCzw/nknX7EE9jksnLL2Tp8s/ZunED3YdN4P6JLYQllyASCLGv05T5IxszafF+Vn7cm0WfbcStxQgMC67zTFibRrIYHmYaMLy5DdM+//YPAkFAl0ETqGOYxo7913FxMSeuxJz5wxqrn3FKqSFleYmk55TToXt/rCUp/HDw8uvwVv8uEGJqbMi89xqz58glHubJ1QsEX1+kLO7VkO8uPCC3VE5dX38a6BZwPKqQYQGOfH4miGHNAzh09yl1Pd3Qz07kSFIx+loSBjetza4bTymrFLJucHO+Pn6DpFIlOir3XH4Na3Fk5nw0eTjnD+0hNDaD7t26cPNmGHW89VGYehJ/6zixKTl8Oj2XO/tNOFODAffdFQjaxiyYNYp1S1aj9voJtRk8dgquJkq2f7WWxOJKhkz9hOt71hGXrvpqkPHB1NEEXX6Cl3kp5cY2UHF6IwAAIABJREFUHN536KXx0jd1YsqEoVw6ew4fH0e+27aPPmOm422qIOhmEGFREcSnZGHv34oPerUhO+o+m/aeY+iI0VjqVpJUJuXRgbVqRerbqAVWFVGce5Dyynmx5ssUgn62ZE+QSH2MuWtTxg/pQFbUTb7ZdQaZoR1TJn1ARWY467fsoc2YuWTf3EubZnW5GlGM8tJpGi/5GvOqTMKCzvHT8etoG9gxbdpYCmOfUWJqy/G1q2k1aS4PD20kMrnaRyoQiOjccyCN6rhy9dg+LjwI/UMfBbTvM5jmfrXUf89LjuP7b7fTYuRH1LUWcuvSJcISUvBu0pfWAdYoBBKcLLUYPEpliZAyauIYjvxrO9n5Nby1a6DR1NOdtt626l/Ki7L54uwTvB0d6eNny77Ttwkrr/lzRVvPnv27N7Bock/uxdWM2cixKZNHdCQ96g5bdp1A39iWiRNHU5QSwTfbdhM4eCJZ10/TtlMgkdnlFJy+RPvFS5EUpRJy5QA/X3yCWM+eWTPGUBT9gCyhKad2fk/7MZO4eeh7krOe33wCMf2HjMLb2ZKLe7dzNfxli0eL94bSuq47yuIcNq1ZR7YCGncaROf6Nty6cJkbT8IoLCpm5JxZ3Fixkl+WwQnFUtq3acGZs+fVfu8hsz6lln71nEm8dJGdcicaiWO4evUq7dv3xjTjOHselePc9UMsM29zO6hmN9fLxAR0reeNv40Be68/ICpXQf/GfnjaGKgPTclNYOulGFr4+tDKRY8tR+6Q9rySQc38CLr1mKgXVu7/1oLqa6X3jI08OrCCyBiVie3lYunowQfDBlKUGsnmH/ai1LPmo3EjERYmsu7bnZQrlOr7sZZOAfeLzMm/vhLv3vO4vnIZkZWV9G3Tlv0XL6i/xCbOmIKloRYrln1K4xaduHvzstpi9ksxMLFg1bJpTBo/95Xpxr1adMNfdIXdl1T3jS7vDx6Fl0d1gLOkqDt8t/METboPpX19d57cOsPB0zcY8dE8nE201cfc+fknTsVlMnb0KPIT4jCw1uOHr7ej6kVgpwF0CvTh0Y2jHDx7j4Yt2jO+qysfzNmstqCs++Z7irKSuXXlDCfOq1xEYgaPm4y7pS4Xf/qOq1HVfuSRo0eya+t23lAfqM/p3tAXf2t9Tl+8w93CSnS1ZYxvVx95QRpbr0WiZ2jK2JY+JEWEElICcdnFjGnbAEqL2HX9EUklNfuQTGxdWbZkAUtmjCC5Bne9UNeYMR98oF4jo2dtyO4NW/F/bwht/BzYGxSGe1kERy+HYGztwpgRgxEUxPLVd7vxa9WLLk19iAgN5sHt61QaOPN+7+4oS3PZtHED2cWVWLg3ZuygzqSHXGLrgcvql/ToKbOQ5QSTlqvkwOnL9Ovajj1HTr0w8ToO+pAm7mac/2kL1yLTcfJtwdDebcmIDmbHnsPIFVU06dgLG/kz9l8Or/kh88e/6pvwafs61X9VyNl6+SEpBW+2066eiwNd/FwIDg/j2LMMPuzQGN3iNCKyKjkdmUAzL1ea1rLjcVg4R0NT8XK0o089t193E20+fpkcpYRJ7Rshrcxn26UQsmrY6aRaDzJl+fc8O76eC7dC6NOzM2cvPKVxgAlyU3+SbuwnKiWbRTNyubHbhHM1vMbeXYHwZsP0p0e1f388nqa/mUzKinI5sP9f5Lx6TeFbaPXFKtp0LOSDQCUbVuhzu1T4N+oXMOq5i+FvnPzrKe4t+9PJ1/LX/6sW9B05vI/UrGpBUXMRMXbxKvSzwiiQi3G3EDB76dsNSf26a+ozbAIl8Y84feXGX9xm9SdXpWfOjOcuhte1/2e/N+83Dn9L6a+HlOZEsffgKQrf7Dnx7zT9Tp7bo1cfTAy12Lf3AMV/yEPy3+2wkBYtu9G4UW1Crhzi5J1Q/Ju0pHnd5w/055058/0WIv4r/TRm8NC+OFsasvuHrURnVi/onPncxSD/i666/y7LF1sb+sFYcmKCOXHp7e56+v95TW+jbXd7O9q7//Z8Vdep3iP8m08/NSubY0/i/jvbtwVCmrTvjI+5jANHjpNTw4JqVRc79ChmXKCciYtMalyE+n9aILyNgdfUoSGgIaAhoCGgIfC/SEAjEP4XR11zzRoCGgIaAhoCGgKvIaARCJopoiGgIaAhoCGgIaAh8BKB/4MCQYBQUMVrF5T+nRiZmgn0HyfwujCk/04HVEv+3m5A6X+nN/+9c9+U6Zse99/r+Z+3JBLwa8jbd6VPmn5oCPxfIvB/QiC4N+6AiyyfM5fu0HrAWHrUUjBtybbqcRJJ6TFwNJ2b+hITfIpVW45Sr10fWlpnsubHPw+KYeDowbCuddm4afcbjfngTq14+CyaYT7mLD71gF82nvzy4A1wd6OuMpHvo98g7NYbtShi3YTOrNl0nL8eYqi6ATcrU5IzsymtBB1dfea382bekeqYAq8rk/p0IPzMWc7VsOhTS0uL2jamJCSlkFnDdqjf1/3pyN6c2XuQOyXwflN/hM8esSu3esuQjbE+Kbm/LaT0d7QkOD4dcyMD7A21eBCfia5Mh1WdazHhYHWUsZqKkaUjn7V1ZfpPF6lpfba7tSliZTmh6YUYmRhTWZRHoWqj8u+Kh40541rXJ7uwkM+PXkcg0GJ6p4a4WWuz7OBVEvNeHldVXomJbeqy4dwvEQ+gSS0H+jbw4VlSKluvvLrPr+P/Z7+vGNeTrd8eJhL4sF1jSu/fZsfzVecSqTbTOgZiZ6zFpUOnOVQIU/p158bdm9yPq3l74i9t+dpbglLBk+Q/P+6X480NjZjVoR5aolI+O3KHbNVE+12xNDTC1kibKmUl0SlZFLxih8RL1yrWZ+fYDszfcoiEV+RMeB0/VR6S2rZm1XvflWU8TMxTL4Qd270DTx7f51Z8Nuias6ZXfWyVqQz4qXqsVDlcHLSFRBT8tftYKOCFD5cOrVsQ9/AOoxv6s+DcHeRvskvudRel+V1D4C0SeEcFggR9I11kEhFlZRVQKaegRI6ekQk6UhH5OZnIFdVb+UxMTXCt3wJjeRIXbj7G2c0DE3Ehdx5VB47Qta3FutmDmDzzM/U5Wrp62NjaoV2RybOY6shqqkBIxob6lJUUUlhcpt4+Y2RkhImTBz2aOrFuo0ogCDEyMaIwL5fKV5gn+jWpx83YJMb6WvP52eDn25IEdArwICEsGi07R+oqkziULkAhL6Pg+dYUUz0ZgqpKsovLEQpFaImgpKISPS0pRfJydKRiEIqQiSC7uPqhpC2RoC+T8emQFqyqQSDoaGuhLYCKinIkUik5JXJ1MBBVWxXlcvLlSox0dfi4d0v2nrlMfFEl5QIp89p5s+LcI3WCrPzScvUD01BHW52oJLe4TP3FJhKJMNHRZnjn5jw6ebpGgdDI04UWdk5k5Dzjhwdp6pCp8ooKqgQijLQE5JYqfq1nav+OHNt9kKfo4GyqR0FqBvEKMNLTYUAjH/WeYFXirJziCtaMeY+DPxzAvoEPHTwcGL7tLJYGMpwMJNxOqH4DmqnC4haVUiUUYCgRkV9eiYWRIS4mMm5GV++HV4UaViJGJoasYjkz32uOqETJtks3cGjQiJKIYNJKIa9Erk7koyqqBCoSsT6zu/ipBcIvpVnLRsQ/Cv5VIJjoyRAJqsgrLKPyuUDYdTOEyspK8suqN6tJJUYMa+L0q0BQjbuprhalxSUU1bTjU6KFsUipDnddJdYmt1glPwWY6cuoqlSQXfK8XrEYQx0pc97vwLffHiZNR4daFobkJKYS+/zd3CCgId3EYSy8W4DKqqIn08LB0ozUrEyyiqrrkanml7aE/KIS9YtLFRzHSFcbH1sL8oqKahYIAiFmetpUVcjJLqturIWXB1lpCTzLrTlnQif/BhQWJmNuaUVTQRKzbmSo72szPS3Kikv4JSaTsa4MicpkUKUks7AMY31d/OzNuR0aR+nzF6sqXLoqZHlWcTkikRgDkRIkWupwtLnP+/OCODHSZ6KPE/vi09TPmJDUAvRVLCxMycjKUoe9VRU9fUM+b2PH1CNPQSQmwMma/lZS1j5JJb+4TJ0gSVdbCx2xQH2PqMJEGKnGUq7AQKZFXmEJFWjxQRNX9gSFUvw8jkT7Bn5EhYbyfsM6fHnpnjpwjqZoCLxLBN5RgeDNN9umUCIxQ5Qag6kkleV7wpgxpBUxqSW4OhoyY+an9J22HHtlGiJDU66e3MujpDLGDRmCuTiMSZ98j0tAc6aNHoydpREJCek8ubCfOwV69GrVnOKUY6z+/hZimQGzPvuCwrhQ7Bxs+Wbtcsx8O9KvlS+FFQKkheEsXP0j2hZOfPvFHBbMX0BCSk3pR14eVlX8836B9ajMTWb3owT83N0Y42dJilxALWsD5u08Q+fWLbERl6HU0iE6IpRrmdDYQsy+R/GMa1mfb6/cY3zHZjjrCxBIZdw9fYGbYlOWdPblaUYJdZxNWVCDQBjRowvuojKs9eQoJXp8vuMcnTo0RrusEDNLS45dvIW9qxtd/d2ISkgkMTOHY8/S2TCkFU+Ts9UPyq3nb2Jq6UAPLytKlEKq0mJZ9yiThT0akVVYiruDDft3HapRIPRpFMD92HiG1nXmi9P36Rzgw9WwcCoNLPissS4LL6TxZZ/GRGQU4uNqz+Zt+9DzqkcHT1Oiz55nS6aS3s0b0MrZjNi0bCoVpXx9JYzRLRvQyDSPK7GVtK/rxqhd15nU3Atn3XImH3igHoRJ77Um+ukjFEYulGXFE5xRxKgWfnhYGDBh51lEEi1mdayPoVSIlr4BN4+dxql5ILH3IkgUlFNp70FJ1BNGtW7AZz9fwdnRiooKBaEpWa8VCFJHD6b7mFAl0aKkMIOvr4SzfUx3whJTMdXX5oujN8kqqXhBIMhkOmwa1Jw7Uek08HJi3vYjpP/hc1Lg24yVTgrcnGVkF+tw5scTGDSrj5VMhETXiJyHt/kxQ8DGPg14kFKAt6M1X3x7GPt6DenhZ0HU0eNszIK+rdvR1tUAfUWBWgBt2XseD383/B0dOfXkCfdiMjA1MmZldz/uJBfhYqbF4v036Ni4IT7GQnUeiX23g3mc9KIFQSyWsKRvC/ILijE0MeP25Vt4+HnhYmGMvLyMktwMlp97/Kso/uVuUQmElMxYnOyscMmP5pvYKjYPaU1QVCr1fFxZuP0Q5h4N6GtdSZ5EHzNBHvOPBjO0dV3aerrw6XcHiKlQ0r9ZAN7GMiolOgiSnvJjlgGfNjAlqkiAnaUJS/91nOQ/vIEtjfQZV8uOHdHJKCvkJBXI6VLHnXrO9lx68oTrzz8gXhAIRubMb+mFm66IR1nFnHoYSkGVNhOaepKcV4S7uJTZF8NYMqgr5SUFlFVJKc2MYt2NeHzsbRnpZcSXNyLUOSI0RUPgXSfwzgqESSN9CHPuguT2Lkb3bcuZh2kc3r6ejCIBAxZspiL4Aj06ODJm8kqcfudisHdvzZwRLmqBoCqG9p58Mak7H85Z9etY2DjUo09bKRu238Kldk8WTmnLrXshWDu6cX3vNmoPHM+BrxaQp239OxeDEDtHe9KTEl9IxflnA9yhbm3qkMvqB8nqL3GVi6GlLJt1j3P5oGc3imMe0d7blrF7blMpFDG3bR1+eppBQ/MXBcKoVv5svxyMv5c33UzSiRE7kBD0kGulr3YxDO3cgYTQR/Su50hwCWRcfUrLbg2JSEjH0NgMQ2Umn54OZ8mgDmw9dJr40moXw2cdazPv0C0CvbzIzEmnexN/dp+5TIpcxLLeTfghKJqWwjI2xWTxSheDSMLSjnVZceYuo7s2Zce5WzT39HhBIByJE+KSmsC2jFJ+72Jo38AH57hQtUBQlaHN/fnxWrVpVyTVonsdJ/y8fQl6eIshTQMYvPk4EomEmW29WH76sfo4LYmUqa0bYChPYMmVRHXQGrFEwvr3W/8qEKa182L1qWAaBDSgvSwGubkXV848oLGvOTfFVn9bIKgsAa1r2eJiaoCung7rz99ndvu6rDp9lza+rghikjlbXPaCQAisU4vRbnrcSi3D0aUWIY+vsPfJi1FoVAKhZ1kwg7t2ZduNMOqmhCDz8eKTsyGoIoTuHNuRc89SyL93nyNFVfzexTCwYyPM7t9RCwRVadmwCY1zb7JC5X94Xpwt3DHVy1cLhMk9WuFUlkVooRJ/Nzs2nbjJkLYNWbTvIh6vcDGoxOJoqyrmBKUilOowrZ0va07eobmXBzEp8STl1xwcQiUQysvSae1py/Ljt6nt6cZEb0N1KGhbR1ciQ29i7tOCxFvnuVFmSlsHCT/dqe74prG9+XL7YRKqhMxr68XSM0/UCY82j+7KusthTHWTM+FUHNP6duT6pfMEZf/BvWGkz2Q/V44kpFNZWsiDtGpfmaulK1a6BdyoSSAADtbmfGCrxcJ71YGy6vn40MFWi8xCOYG+tZiz8wgz+nTmhxNnCctT4mZpQHR6rvoZUKeWF70dJCy78FhjMXjX346a/vHOCoQxA9yJ9elJ1dUdfPh+R47fTyXs6E88zC5n3LKNhB7dzdABzZgw8wuadx+MMi2Ys5fv4ujZhllDnZmy4HsqK5UvCQRVtDdbx/r0aiPl6x23sKvVmfE9rfhszU51BrFKRTkTFn3J8c3LkNr40rOxFcu/2qV+CNf2ciMyPJyyV2Qw/ON8Un1VTe3ShPSYMPY8TcfXzY16JPNDTDlTe3Xm8YM7DAj0Yvq+Gyil+oxtYMve0Fza2Gqz70kyU9vW5YtTtxjezIcfrj/Fz8uL90wzCRfaU/roKTeqZHwxuDlLvnl5DcLgTu2JC3lI7/oOPJaLybryFN9AJzZcDqVCIEAmUKpDpS4c2IndJ88RXViJKrvdL2sQWnqrBEIa7Rv6cfbaTVLKJczr4Mv2B4l00a9kc2Qu0/u05c7Rky9ZEJzta7Gwk7va36ynJea7wxfUD/ugiEhkFrZ85Cfm5ygIKEpjR3oFi4Z04ed/HeBemYB2DXxwigvlu4xKtb92cHN/Lt97QppciVCiTffa9hy8H6F2ufw0riuTvzlKiZYW09p4suLMY3XOdGtzc8Y38cJAFxbuv6F2MWhrabF2YEsm/XhOvS5lamsX1pwNpV5AfTrrxFNm5sHJI9dp0K4R2QqB2gIxum1jVh64ip+PO4kZWYSlZKEtNWRGZ1+WH7uhdjWJhAKatWhI/ONHJOSUsXhYF8JuXed0hoAhjT3YcP4+k9rW5evz9+gS4EFMaCzPSsuRSY0YHOjEtqvBBHi60kOcy9KQHAQiMSJFBSVVYGNijFFVEc9yK1AJhB4FQQzp1YtvboTRJDkESZ3aLD/7GF09M1b29OV8XD7aISEcLhfz+aD2rN1ymBihgAEdGmH24A4bM6rUGQH/KBBU7gMXS5VAKOBedBrDOjZDef8hu7JLkApFqKb74v4tWHbwMs1qu5OSlcWTP1gQHG2tmFxLm/lXEzA2tqW/nwlfXXikdjG8TiDcDX+En7sTlRlJ5BtZM0i3iAXBmVQJhIiVCmYM64swPQWFsog1Zx+rXQoq7htH92LND0eJVVQxp0MdNpx/hFBLhxV9m7D6WjxT7bOZeDmLaX06cvPKBe5kvbj6RGVBGG5rysqnv4XoVLFws1IJhEJuRKerXWpGhsYsbm3L9KNP1WNub2nGBHcDPr0Zqw6v6+/lgUlJBlcS89GXickvLufzwV35cv9Jsn9nCfJ2cmBIPUdWHblG7t9MdqV5Z2kI/DcJvKMCoRZD3nMm3qML3N7DiF6tmLNqP2PGDKNKXsSTq2c4dy+UDn1HE+CgzYOoJEpSI0kptmJAz+Y4Wsu4f+UKm346hL6tO/NHtWfOkk3qdQStuvameT1/zI0FPA1+wk+7j9K8a0/8PB3ISo5h36GjWNUK5L0OgeRkZyGpyGDT9sMIZOZ8sWQWX32xlJS/kMFQtZ6hg48jtyIS1b7MsY1dKFBlVItK5GJcJn4u9rTztFGnOd1zL5q00krGtQxAq6IQxFqsufCQAY082HsnHB/3WnQyyeKHcCUz2/gSlZCOnbsj3+0+xx8zdfZp3ZLEsCd08bPlWbmYxEvByF3s6VjLhrzCXI7fiySxTEmAmzMdPG3IyM7iyKMkxrfwYNnpBwTWciM7L5OCSgn9A1zVKWlvPI0gOFvB+Db+KMtKEBtYcf/COa6+kElawEe9WnHv4nWu51fgbGfHsFoS9kVW0KO2A8kFxXjpF/L5lTSmd6pLTmYO2pYuXDp5Au8WDfE0NkBWVsyFp/GcjEzG1syUKc09SC0u49trobR2t+bk4xj1OpH1Izuy+/QTmgY44mCiq/5KO3XnKf3aNOJfZ25gbGNLK4tKdj7JUbsY3K2MCU1MY/3FJ4xt6sDmK5HUqe1PW51EykxcuXA6iAQ9Q9a858/ak7dwdnKlno0+JdkFnIrLoEIppU8DdxzN9IhKjWP9tQSGBvrgZmVCWVEht+8FkadrT08PS1JTUykzMGb7pYdM79yMKhQkJSdxKCQZXwd72vo4YWWkTWJmHF9fiqNz7Vp4WOmTl5bIvkdJ5CuhZ0N/XPLCWBNRhsCzIR2LgunbuTM77kYRkPyUS7qOdPGyoao4n6PB4WRU6TK3kz8J8enoO7iwd/8pmndpgrepAdKCAo7fjeBCShaBAQ2ol3+XjTFquww96nqrsyRKRAoi40I5HFZK33ru6nUAsZERHI/MpkVtd+rbG5CZWcTNpAxC0/4QZ1copqWnCw0dTRHkZ7ArOI7kkkoC3V2JS0sitbDmBX1tfPx5GPOUcmSs6OnHrP13aOXtRm0bQwoykvk5OIH3e3TBqjyHvCoh5ZlpbLoXy4cdGlHHwZKElEy+OnMTMwsbhvg7oigr4vjjCPJ17Jhgl8vcmzmM7daaezev8iDnRQuCmYEeA62N2Rj+S+ZCIT3q+VDH3gKpSEFYXDiX07TUL3UXYy2exaex5/ZT8ipFDG/ui6G2NsfvhahdE8MbeqGlIyUxOoaDkVl83Kcd3xy7QM7v3BpDG7tx8F4MxX9zUeV/88WgaUtDQEXgHRUImsHRENAQ0BBQERDzr8l9WLr3NPIqIQPrOrP8TPVaE03RENAQ+M8S0AiE/yxfTe0aAhoC/yYB1fZSiUCJEpE60VVi/gsmq3+zds3pGgIaAq8ioBEImrmhIaAhoCGgIaAhoCHwEgGNQNBMCg0BDQENAQ0BDQENgX+uQBCoVjSLRVQplSgqf1tspKWtTUVZmXp19j+hSERC9Up7gaCKf3etklQkoPxNI8/9BTgysZDS551TRaQWC4Uoq6peGSDqTapWBWlSxblR7UxQ1aUpGgIaAhoCGgLvNoF/jAXB2NGH/h2aIVAWsPn76tDHQpGUMePnEHphCVfD3m3Qqt6JJFLm92jI3YfxuJpXsuFuBh/3bIaeWEh+aiIbbkRS9oZKx8jAkEmN7Vl6NuRvX3gdT0/617FFtUE7MTWVb68/Q0umw8R2dTl+7DoRgL2JAZ29XahQytl+M1TdloGpJa3NKzgSlvPGbavypb/nVMXDHENuR0VQrAprqSkaAhoCGgIaAu8sgXdWIGjpGOLh5gzKch6HPFMDFEukTJg6kfVfrlX/39XbH31pFYnhj8h+HsnV3MYBG3NjMpLiSc3OQ8/EAhc7K3IzkklMezl+vFhbFxc7M6rEugjKi4iKTUCsrYebizMiFERHRSGQ6WFuYYW4Uo5Yok1mUhTZJVW4utdCV1xJRFg4ZZVViKU61HK1JzI0nBrjpImlbB7RiiPnI/C2KmH13Vy2TejGuu8O4d6oBaL8WH4OTsTCUF8dPjg1K4esUgXaUinulkbqUMmVigoisorxsjKivKyEsIzqPAUSsRh3SxOqFHIiM/KRSqUYyrQw15eRkp1H1vNQvL+fic0bNMS3MoJND/Ke/1mAl2q7W5WSyMTMX3NJGOubM6GZE5+fuouRroyA+g1oJsvkyLMcUtLSySoHJwsT9MUQmZpDWZUAB1N9REIxWoJKIjPzcXV0YqijnHuFplx8Fk6hKoS2pmgIaAhoCGgIvLME3lmBMHjUeGKDrlCghJBn1V+ufxQIDm7e9O7/PuH7FnAqEgxsvZk5sgt7Dp7GSFbJvbBkxk0cz/kTp+javQsXfviSh6kv7oU2cqrN5qVT+P67H6ndqjtHt66iSMccR30Jxg7euOllcT1dxoC6NkicGxF8PRb9ihtkGARgXhTOs3wzvI3z2LLrEObuAXy5eBqfjx9GeEFNY656ceqRUyhHV6IkvUygFgg79pyleasW3Ll7g+uZAibVt+NYeBpdfR1Yc+4hAxr78zQ+8f+xdx7gVRXpH35vL0lueoX0BoQWCDV0EGkKNtTFXlDsuuq6/u29Y9e1u7a1S5FeJYKB0CEkoaX33m6/9/+ccwNSwhpcwQRnnmefldw5c2bemXvP73zzzfcxfmAPzDt38UGpmeRQf87tE8bTi7eDUs2DF4xm0/ZdaP0isFSXUuTUcENaJB9tLuCshECeX7HzuA5JAmGgqoCPdtTLoYRb7C7iuwVz4+gU3v58NZ5sFnCkQDAZ9PRJS2O0vpJvd9XKMeuHpw0m0lXBphol/QO1fJC5n1dvmMqudZm0+AWzcVse+XY3gRonZrQ0mi1im6HT/iSIjgkCgoAg4CHQaQXClIsuY1C4lmW/bGPrpi1Y3McLBCnw0WVz/k7NiudlgTB6yv0o6xaweoPnYRgUksbtN6SyaMUueo+chCpvGW//8PNRcy8JhAeuGsvdj7zGlPNupWjPPAqr7STHR+MT1p2B0VqW7q7FUpDDjKuvZ9WCLMYP9SMqsT/zPv0Pjfgx/dwUnnrsBRrbz0dz4rWm0vDBTeeQs+sgQbpWOfRxct9BjA5oJbOojnE9o3l64QauHTeQrNyDDOqZSOHWTJbVgFqt5taxvZi7fAeBviE8fnY8N321AR+jFzcPCueHA2ZCdS5+PljNHWP78cKKrHYFwiWJenJrbBSWFvHDzhI5QuFPdTj7AAAgAElEQVQj5w/nk2/WtSsQpEYi+qRxnncxb2woR6lS8/KssSz8eTcNqJjRJ4KnF2zmnukDeW5eJhHhIfhV15PZlqRIfPEEAUFAEBAEugaBTisQlGoNISFhTDjnAuy7v+LLjNLjLAjHCoTBE64mVrmPL5etkx0affxjuGPOOXz87x9QqLWYa0sprT06N7EsEK4cw92Pvn5YIMRPuZ669T/QYghhXN8Alu6sxlKYy/SrrmHVgs2MGexLRI/BrPzgNXbX2FC47RQUFqPzCeWmq6fz+qvvdCx1qywQpvHyez+QPHocdTlZFCkjGNcNFu0pQ6t0y9sFs0f1YcXufFwoyK/xmCaOFAgmb19euWAAN/97Nd6Bwczs7s2KGluHBMLRWwyyY8dvCoTwnqlcFFjNqxlFckTD5y47i4zVm9guOVA4HRTVWXhkxkCen595OBtf1/g6iF4KAoKAICAIHCLQaQXChZfeQnKML05HCx8+/zK+A0dy0cRRKCXPfauFT9//F+ffcBt+Uipep4N1i+azPq+Aq264iVCDhn27fuLLRZlMv3AWKYndcTksfPvu8+Qe44bgFRLNxeN788EXP5I2bBpVRZmEJoznrOEJuF0OinJ+IeNAI7aqYoaMn8COjfvpHaNkU7mRK88ZhtLtZufWDcxbvIrA6CSuvvQ8vnvrWQ40dGCRKVXcPmUQ85b9Qrnah6kxfnybXcy1E4YSpIXW1kZeW7Obu6aPQ++2oXI62LP3IFktai7uF41CpcRhtfLVuk3E9uzP0AgvXA4736zfil1rwk/jYk9FI+f2jeX7bfuO61BKYiLRrlIW7W8LPKPW8o+JaajUKhw2K1/8shtvLz+m949GqVLS0lDOK2v3odPquE2q53azImM9B1QhXDc8EaXLza6iEhbuLGLWkAS+25h3OBVvB2iIKoKAICAICAKdiECnFQingpFSqcFk8kZxROOtzU1YHZ3Zo17N0+el8vTibcR3i2LOQH9mf3X8dsGp4CXaFAQEAUFAEPjrEvhLCQRf/3gunTUZ9eH5dvHzgvlsLfCkbe2spW9UOOlJ3Wmur+GTLDnDjiiCgCAgCAgCgsApJfCXEginlKRoXBAQBAQBQUAQOIMICIFwBk2mGIogIAgIAoKAIPBHEejyAkEKHuQWoXv/qPUg2hEEBAFBQBAQBGQCXUYgBCekcuWMCfganTz42Ety55UqDXfccz8bP3mUjJJTN6M6QzCXXHIRvQb04o0nHqKwomMhhlMT47kg2kmeNZQFWVupM9vkTup0RuZePIgH/72W42M7nrpxtNfyoIRIcvKLaDrGT/OS9EFs3L2TA/WW39EhJddOGsKEuCDue3MBBb+jhaMvUXDjqBTe/mkX4WERXNq3G6VlZfxnp8d3RKfRcMOIvih1apZvz2F3WUeOkHS8U32jw+RAUntKq4+7SGUKpK+Pha0lHU1BrOCKsUNIC3Hx+HfbufOidBav2Yw2IFB2nlWr1OwvPEhodAxGmx23Usne0nKCw6KYkRTC4owMzEEJpGorWFWuIi7IBDhZlV2EUq1jdFIEUv6M5vpKfmmnTyajjitG9ic5PIhbP/rx8HhmT59E1rZMthTUdRxMOzWf+dtYXl+QQXHT0ZEyb544hJ8OVHJJr25kbN/CfncgE0KsfL/PTK8Iz9jX5xbQ6lIyKjkSjUqB29LA+lIrT0/pS35lI6+v283lw1L4MnM3/RIiMarV1NfWsaXcEwl0aK947LW1bC6vY1y/RAaG+bMhey9NWhORWNjZoiAhQI/C7SJrXxFNLiVpsd3w1ipprK1hU3kTUcGBJIX4sqekgpJ6M7NG9qGbXsW8rD1ERHSjsaYSn4Ag1EpQKhTUFJVTZDDRz1+HW6GgrLSc3XVmZk0ZQ3BzEQnJfXngw++p78x+0P/TjIuLz2QCnVYgKFQa/H19wO2its7zA3BsJEWTfyCBfr5UlxygyfPsRWfwwsugw9zchNlmR6XV4+ttxGJuprXtAX3khCqUany8dDQ2taDTeeF0WlAq1Ui/WF5eXpgbG7A4PNEXz7v/WTa//+xhgaDV6VFjp9V6dHTGQ+33iolhSqiZYsJYsmMP9W33H9Qjnl6t5Xxc6Hmo+Br1SKc1m1otOFGiVSrkexq1GlptdgwaFW6FCoOKX0WGWo2XTkVTi1UO6+yl1+FyOjFoVTS2WnG4ka/Xa9RYrVZaHC45VLOfUYfDZqfJ7sRkMPDPC8bynyWryW920mixSWkZ8PXx5Y6RCTyxaDPSyLz1WjRKaDTbUCiVeKkVNFidGHRaFG6HHCzJaXNg0GtpbrVgkxpRqnj7qgk8/cHSwwLB16hD4XbTIHNQYNIpsblV6I8Yl8mgQ4X78DglPj4+gUxO9OGrLfkyL2kcN0wYyL7lWawAQvx8GRYVwLwdBz2ftzGV1o50L6m+lHDKoFPjtNtpdbjlOBIGtQKXS1pidprtxyeQkh4AUn96R4ZQ09RKTlkNJr0WpUJiYUWpVBLcO40rQ6r514YyzK1mzK62+VS4aWyxcuxzQalUcdP4AYRGd6Mkcxeri0vIb7HL7UpxPZ6/chIvv/Mdl825kFVfLGSrTcPM5AhCBvZjw4rtjNXvo9iQyNxfskkP0JFnV3H+sN64t2zk3Vo9qT4qitwKnr1oJNe9v1ieT5O0vhRums1WbG25Pl67auphgSDNr7+3F3VNjTS3rWWVUhq7HrvDJv9NYuFjkNaYg6YT5NGQ6gd56yiuacQmZeUCjDoteo2SS9P7oQkIomBjNoP9aqj0ieftn7aRGKCl1q6iX3Isg60HeXi7hcmBXmTZnLxy5dm8/MMWrk9oZq0lmHKXH97V2fxwoJFAHyNqpYqbRyTx0I+bZXYf3nIBtQX7+PuCbVw3uhdrdxbRKyGeMbFq/u/rTYTHxtFaVU5gdA9CraXsrnYwOMqXX/JruH5cKi/P+4mJMYGUEIJBVcva/TU8dHYCS7Kr8fEPZXiIlWeX5WLyNsoiLCU6BndDOS0RsWhLD7K/WcHfz07jmW+WMjx9FBE1ufQa1J+HPloqR4QVRRDoagQ6rUC4Ys7deLsasVpaeP/jz9oVCBMvvIaJI9NY+fpNciTF4OieXD/rQipKS6gq3sXSDXncfseNFO09QO8BqXz82lPklXhyFxwq7QVK8o0fyrmj+3PwYAk9w3Xc9pDHYnGsQJg04zYS9Dt4/T9rTmreLxvWm++ysmm1uzhn1Ej6G1soaHGxftdurPoQhoao+Xp7ATeMTuNfa7OYM3kEWpsZDF4o83cyv87AnUO6sa64hfSEEB75eg3XXTgTXU0uFXYt5rpK5u+v4+4x/dhbU09ZYTGrypq48ayBNNbUEhwewY6tW1H5R3Dh0J7syNlLYW0ji3cVYkPBxWOGUJa9mZ8q7fRLiGdUtDe1ZgU+5jr+nVPF36cOY8Wm7UwfmMD7P2Zy4cUT0ZXVkm9zE6F38sKyrdgURwuE6UP70c2gxKXSE9RcykvbGnjtbwPILqwH/zB2b/oJ76jehNkbsRhNmCvy+WxXOVIWz0cvn84n337PXllPKRjVM5phcSEs/nEj/j1iGBQXQaCXnuKaOlbvymXsoGE4mqpR6/VUFRWwutzM3eMGsr+mlpRufryxaBvXTU6lzKZHW19BoL+ee79ef9QcSve9ZtxQ1LZmTCYfFm7Npclq5+yUaLR6bwKrD/LvglYmDB9Mqncrmwoa2L5zF9le0Vye6IdCrcGotPD6qlwmpEQebnttTgH946KJ83IS4qXnzYzcwyIiNjqaOYlq7l2xnxfuuJjcVRsoUhpQWppZlFvFVcPiwRTB1i0ZbK+0Hm7z8nGDqdi4kWVtMcB8TH7MvTCN2R+sYETaYEYF2ilssrE+O4999Z43+yMFwpjkKPpExrDhQA5ZBypR6k08dXE6uftLaGqx8OPWPM4ZNgijrZ7AIF9+2ZbLzxVHf49AzbR+8fRJDuezZRsorLcypHdPJkcYOWB24uel47UlW7h8eBJKr0AO5mxmbdGvVpcx/XrQq/kgb+73jEutM/DxdWdx11vzGZzWBxMuegYoeXjJTlm0hvt6ERMSzNAIPXPX5pCclMhN3c3sUEWS8dMvtPoGMyE5jGi9gndX76BEUsxtZUzqQNz1+VhDEjFU5aHzCeScAT1Y8OVilrQ6iA9NortvM2vzSkmJjiStmx+JPhpeWLWFNnyg0PB/5w7hnaXrie7fj9a9OWTXmLnzvPEcXJfBD9W/zs9J/TiIyoJAJyLQaQXCxPOv5ZJp6az78XM+/FZ6T+xAqOXJ/0RVO59Vmbvl+lKo5aeevI7y0ioCwiLZt/xDXv5m7W8KBL+EIdhKstm4bQ9+vj7U1XtM1scKBI1Wh9Jtx2rv+OuBymjihgHdeDtjj5yiukdsPPeM78GurCxe3V5BRFi34wTCVaP68PFPOwnwC+P5KXEsL7Ux1FtBjcNNRLfufLBoMaNGTWPNqgVsrrbjo1VhR82900bhp2rllYUbqFMaeGT6MOpq6tAbfHFZK3hgUTaP/20i732/hIK2MNF6vZE7RsTw7Ips+e3zunMmkaCox+KAmGAfrvp4Od5eJt66YhTPfLeW3RXN/POKs1j9+XJ+ccDjF6Tz0oIM6hxHCgQF/zdtMC8vycSm0PLeFWOZ81kmr17UhzmfrMOl0WLSqXnrqrPJ21eEU6FCY2vhgZW78AvtxvOD1Vy/oG2jQqHk45vP5fEPF7OvxfMjHOrnS2p3f5bsysegC2TuzJ7M+SQDb6ORe4ZF8dqWMq6JCuTZ7QcwGbSy5WRUiA87/SMxFGczc3gqd395tMgz6H35v8m9efD7n+nTtsWQV17DOX2TSI0MIkpVydU/7EWfPICbwit5aY1nu0MSFjP6xtEnIkB+a3x5aRbdA7wOr7nSumbcKHjxsolk7ikhPUrJ7d9tl1lfOGYwK3/Oos7u4oU7ZrLy84XoolKIoYGXs/IYm9qTPmVFxE5M58lPl1LtAh+DN7f3j+SJDZ58JQqlitlnj2LB2gxKW+1Eh0Tw8PSB7N6WxctZZRzKDn6kQJCuiw1JJNC7QRYII4eMZAI7eTjzUBIv+Hj2DPKlaKFGI7a9OTy0s7Ldn7HhIwdRvHOHLBBevmoaD36ykCYnSFsMby7LpE98JOPdZsKGDeT9eavJa7ahUqp4ZmI/Hl62hda2r9K0oWk05GWzrrZVvs/NY/rRiInuziqeXpeDXqPC5OPNPyf25r7//MyFowaSsWkryX36MFlbwp0Z1QQFRHBenxD6RYXw0dJ1ZFWaGdCzF1f28+a+rzYyZvQEZiboeO+71fQd3J/itRtZcIxAkO7dq0cP0gJ0DOjuy8uL1pPf7ODsYYPobcvnxc1VpA1NPSwQbpsxjpKf1/Nt1e/ZmutETwbRFUGgM/sgeHv5YLGamX3Po1SvfoivM93o9HpuvPVGXn/xFRxOJyqVllk33EnNqhdZnOuk7+jrGBBazCffrSTAzwurO5QbLx/KK298itYUjNZSRtXRkZbxiuzJs7eez8PPvcdV197Ksnnv4JcwmIYDO9iRLSU89hSVSs2M+55iy4fPk19WheQXGZ80iABtFZt2eUzfv10UnD8undo9W1lT5nl7CjOqqba6mTVuJOaqA/xUauOcGG++3F3O3RP689C8DK4c2ZtPM3bTJz6e8yNsrLf4EVdbxrsHquXsii1Nrdx08QWsXDGPrTUeo7ZGqUCrUODv78/tI6J4ZGkOt49M4l+rdtCsVBOqcVLY4uaBiyfzzbIV7K2343S7SYnqTpTbzOIij3fEjOGDqMrPIbOihWhvFQebnEwcPIBUE9TX1PPO5v3ce8VZrPx0OTkGE7eMSWLu4k3YVBreuHwcz320jAMuN7dMGsaCdVm4vfy4b1Q0dy/cx6sXpHDdZ57cGGqVhreumcTTXy+joNGOj05DvdnKzOF92Lx+5+G8ENJ2gZSjYktOPnVtD5MjBYJW482bl6fzf1+sQB8QxqQINd/tq+eyMD/m7vGIjNAAX0YGepMbGIW+eDcXpw84TiBoNQaeOm8wT8xbz4yhvcncW4R3SCx+tQfYY9dx70Ajty3chz6qF7cnu3hxZS4ul5vHr5zCznVr2Wz3Y0qvbry+fDtXDk9uWxpuvsjcw4AecfhXFdC9Zwpmn+4UrZnPOlcg/xgSzlMrd8nCURII89//miyrgftHxvLAqmwuS++Fw7cHpdsymDNExyOZdq7u043XV25GykGm1RqZNiyVg/vz2FZchdPlJtxHQ0WLgxnp6VRXF7J2TyHS9sErV0zh9n8vkutI2wdxkkDwaWTT/nKSYnszp5eLB5bk4FZqsNqsPHLJBF6ev5YWB7hcrsPbbkeueandYSMGUbprJ/m1Zp64fApfLFyBLjCUYfERvL5sIxeP6IdTH4E9byPnDvTl4bW13Dk8iQ9WZ5HT6sKl0DB5QF90zZXMzy2Sk3oN7pmMn0LBNakKvtuvYHFmNs0o5H7fPGEgH6/dyg1nD6fJ7BGMabFBPPr1em4aEUep2c28TTn0iQylyAIT4n3lOZG2QEIjY5kaBp/vKOWeSQN4fsEGzC4FCWFJdPNt5qe8UiKCQ7gkORjvEAMLNhSg0brZXtbMw1NTeWL+eiRXi7ShA7Duz6XcpuKfE/vw2A/rqW9ny+q3fx9EDUGgcxHotBaEa258kCH9u3Ng5wZeffcjktPPZc4lU2W/gPq6al584lFueOwZIoxeuKxNzPvoI+Zt3Mmsa2aT3jeRpV+8xw8Z2xl29kVcMX0sJXmbeObV97Ef6y6gVHHhDfczLkHD+sxtbNm2Ed/YgTQW7GZ3jic8sXf3eO65605iQgOwt7bw5VsPsXxLGSOnzCTOuZ2Pl+Z2aFZ9vLx5elIP7vg2q82srOCWKcPpEexLS2UhT6zYQ7PDzc0T04lRN3CgScGbP23nlnPG0yNQz97sHN7N2o9NqWbmkP4MjQ9i5+ZNvL+7hlsuOJe1q39ke61ngGEBfvxj8jAUbhufrc5kU1kzMWGh3DVhAI11pbywZDv1ToiPCOOWcanU1lby0qLNXDlpNAt/Wkdh26ucUafn5glpdDNp+Wz5LzQZ/bk0Rsnj64qZedZotA1FhCcnEa9QUlNTytPLd1LvUvH6rLPwNWppbmrh/m/XoNIauXfSYOyNlbyyegfNbm+ePbcHt36VeZid5Cvy90np+GrtvLMwg92NDu4dmcJz6zwWIalIe/jvXTuZx95fSH6bQAj2NdGvmx8rsgvlOjHBAdx29iAaq0p4fuUe9F5eXBLmyxu5RfLnwX6+DA80sjegO/qSPZw/tD8PfJdx3BwOTYrjbwO7sXrzQbIbW7EpNNw6YQBFpeX4u6p5aLWUi0LFjROH0zvcxKLFP7LdHc6DU1LJ2bqFpqBuvL9S2h//tUhv+Fen9+ajdduZMmQgZ4WZuWd+Ng9dNpU1S5eyotIj8J6Ycz4hFistdZXMXbSVCy+YyE8/LCNHoeWZi0bw1FerGDN+HOOCNXIis1ZrPT/mNnH90EQaWi24nXY+W7WOgalp9Ag0UVtZwrPLd2I06Hj4grH4GvQ0mC3c8tFSrh87hIGxQSgULvblb+P5lcX0jY3i+lEpZO/Zydsbi4gPC+b6sQNwNdcyd/lmKqW8G0cWL1/unzKEGH8jTruDdRkrmV/s5qmLRrFm9SZ8EuPA4E1Jxi9kmOHZS8bwzoK1RCT3Y1ZKMM1tpo1XV2fzwNSBtLSa5a2EzYVFDNHWcsvSUm47dyyq6lLmbsjhucsmo3FY+WpNJllVNqb2i+abrL1yj/5xyWS62yt4YsFW/MOiuWlkIp8sXcel556Nj9KF1eGibNdOnt5cxGUjUhkU6c9/1mzk59JWrh8/hIHRwaiUbvIqCnA73Ly3bAd9U3ozI9GfV5dsQO8XRqzRzuK9FfL9UocM5YaUIEqLCvlgfTbFkooSRRA4Awh0WoFwKtgavEIZPrwfqsONu8ndupmC6o6dSvhf+xQZHES0op6MtodAR9u7ckQKH2f8+pDs6HUnW0+j1TOlZxjztnfUIiLdQSFvMSz/9zL+6ADQRr2RHiFebCmsOtmhnFR9nUYr+zFIzpKHSlVpOdt/1wmOk7p1l608vlfMUSHLq5oa2V50er5HXRaa6Lgg0MUI/KUEgpSLwcfHeNQUWVpaOnkuBuT9Vstxpo/Os9KMei02i+04j/3O08P/3hNp28Jb5zmdcKjYbTZaD23Yd5WBnMZ++hp0R93N7nTSahNvzqdxCsStBIFTTuC0CwStVovdbhfBjU751IobCAKCgCAgCAgCv5/AaRcIv7+r4kpBQBAQBAQBQUAQOF0E/hSBEJA2Ax93JQVb1iOf7xJFEBAEBAFBQBAQBDoVgT9FICi1Rvpd/igHPn+YBrPnnLMogoAgIAgIAoKAINB5CPwpAkEafvzke1AUvsm+3R2NYd95oImeCAKCgCAgCAgCZzqBP00gxEy8HV3NR+Ru/mMT65zpEybGJwgIAoKAICAInA4Cf5pA8O09lYlXzeKnfz1Jxd5Tf8b/dMAU9xAEBAFBQBAQBM4UAn+aQIibfDeqon+xd5cn6Uts6mhuPas7dz3nScwkiiAgCAgCgoAgIAj8eQT+NIEg+yAUvMm+bI8PQnxqOi8/Moc5My+jWCRC+/NWhLizICAICAKCgCDwZyRrkqgrNAb6X/0wBZ88Rq18iiGQNz58lexv5/LGwj86YK+YZ0FAEBAEBAFBQBA4WQJ/igUhcOhMfJxl5GetE3EQTnbGRH1BQBAQBAQBQeA0EDjFAsGN8r48vDZ/gnr5Y6dhOOIWgoAgIAgIAoKAIPBHELB7h9Jwxde4W2tRf3T+4SYVUVFRR8U47O7bDYvdSnVr9QnvGxkZicVioarKk30vGif/Co6iZ9WeP6Kvog1BQBAQBAQBQUAQOE0EzGoDD098ks91Aai+v+2PFQgzsfI8Vu4bfT+fDLjyNA3pd95GqUapUuKy235nA+IyQUAQEAQEAUHgzCAQ1FzF9ndH8F1gD+6sKT1qUH+IBeGQQBiEN5UoD98gKiyCcIOT+O7hrNq4jfIOnlpIjupGU20Fpc3tp5XVabSMSwxmX4MSt7WOfdXNHZoppdZE6pWPYM5fz76MBdjMHexQh1oXlQQBQUAQEAQEga5HoIBGvkfDHRhOn0BI7ZFCHy8rQ4f14uV35nPAqUKJG6fLhUqlxOZwoQC0GjVulwub04VGpWL2edPI2rCCbZUWbHYnKBRo1SpwubA6XXgb9MxOTyCzzI2ytYJ1Bz3bIVqdDofNiusEiaF0wUkMPm8m6955ouvNoOixICAICAKCgCBwCgj8KQLBz8dEsNZNWHggO7LzmXXeZAKaatCpnLiUCt75MYs+/ZPxxkWAr5Gtu3fhNEVw0ajBFB7MoaDeTMbOA/SOiyTQW09KRDALN+0gp9ZMUpA3tTYlCoeZsiYLKlMEH7z1AnMfvYdteSXtItSFJDF4+kzWvSsEwilYY6JJQUAQEAQEgS5I4E8RCMdyuumCc9m37Rcu6BnK/CoXVZm7GT0pjTdXbyeyWxQ3Jam5bUkuN55/Lpk/L2NrhcVjGdCo0SgVxHaPJFzdyvLc8pOeAmVIT8554E32//Agu1ZlnPT14gJBQBAQBAQBQeBMJNBpBELuFkkgBPFjjUIWCFNnjiczr0hm3tpQw5qDNcw+7xy2bFhOVrkFnc7A4+cPJ2NPEYEB/hSXFJxAIGgYf+40tq1aRE1z+74F3vFjGDRxOKvfeupMnGMxJkFAEBAEBAFB4KQJdAqBcPW0SezbkcU5SQEsr1VQsyWX2OEDOLd3pOw3sGzFYr44aCMlLoF7JvTC3NrEk1//zH1XTcPocuJy2vlkbRZr91ceB8AQHse7T9/PS88/wZbd+e1vMQQnkX7xVax6/f6TBiguEAQEAUFAEBAEzkQCnUIg/NlgNX6xTLjxHyx+5sY/uyvi/oKAICAICAKCQKcgIARC2zSETLyTkePTWPbsHJpqGzvF5IhOCAKCgCAgCAgCfxaB0y4QdDodNpsNt/sEZw4BvV6Pw+GQ/yeKICAICAKCgCAgCJx+AqddIHh7e9Pa2orL5TrhaH18fGQRYbWKgEX/dUlIwSIknaVQyHEkThTn4fQvK3FHQUAQEAQEga5OQAiELjqDCo0K3+4G6g82Y0oMwJ5fi02lwGk5gWVGqaBbTxMluxvkEWu8tRi9lTSUe46M+vYMpCmn5rDIUBo1BAYrqSrwiDTvUCMui4PWBhGKuosuGdFtQUAQEAROikCXFggj+g7AR9XMrOG9efSj76jQBvHchSNQtVRx/ec/nxCEn7cXt501hAC9i1d+/JmiVjdaXLQ6PFaN2LAwru3vz8ZaE3kFOeRUeB6qp7v0OCuCnOW/xsAOHtgN/+Yy8nJdBCQHYSuvw2hyY/A3ULCrlaT0YPLWVaIN8yZxgK9sWfCL8GXLv3djcSiJ7aEjf68Vl82FIcCAzqSitc6GxqDEKz6QyvWlqFVupJ0dta+eIF8oL/QICP9YL5wtNhor7acbg7ifINDlCZhw4UZBkxwj9kTFjQ6w/tc6HUXhRg9YTrItyRJpAupPcJ0CNyrA0fa5VF8akfO/3EeLWzZ02k+yLx0dqah36gh0aYGQltyDAKWF88f25dn353PQCiaTPy9O6/VfBcL4fn0xVxewvqRBXrLx8TH0dDSzoMATmrl7cBDnJ/uQ1+zDwdJ8citPv9OiNsiHyFgN+zfVHp79pHHh5K0qwxRrwr+bEqVCh7nSgn+cCUuTDa1Bg728mgM7LXhJf6uy02+Qni1r6lAoPAKhqNSFvc4qCwRDsBZzlQ2Vlwq/XsHU7awi1NtMfqGSmCFBeBuUWJrdOFpaqKt3CIFw6r6HouUuQCAWB7dgQ/1f+6rmdrTH1XiIFiox8PYROWmOrdQdO0/g5hr5deX4koqDKTgIxCU/pNsri9CzFCVq3NyOnReP6IsPbrGsVncAACAASURBVAJxkoaToThZhpZlx4ymO04ewcl17YxBul8UTi7HxZNo5Nsn4+Bs4NX/QuU2WslHz/z/MvYuMP1/yS52aYHQ3owdKRBUKjW3TxpKgMKGv4+Rh+Zt4LIRafSJDMZhN1Nd38jeGitDkyLQup00NLfy5qos9tW2HNe0ITSW91/4P/55330UlByf8lofEs0Td1zB8y+8zt9uv5eP5z7JmHNuxL71expjhjLIv5IXPlnesUWmgF5XplLy/VYa2owXKqOe6N7eHNhYjTZAg6PFhVc3L9R1LTgDfFGH6LHmNBPm28j+fFAbNcScHUHxvELU/lpa6u2yQDiw24ykiiSrg2RBcCnVGJRO3KEmanfVEhthY+8e52ELQkWZgx4pKipb9ET2NqHUaMlZfJDWphP7kHRskKKWINC1CKRhIwwFC9Hgi4spuPjiiAdjMA5+wEE6Gj7ETPQRwwvGJb9BH/lmvhI1B3BztcLzXfJ3u/BGQZHieCtDMXrudSvo1Va3yK3kLlp5HyNHxo9tRIFk8zPg5kls3IuOC6WMutipRoHk9p2Hiu2omYfqqCR6Uh9icPICDi6UbRnHl1FY5HHpFZ7ke5KUGYmblW2SRbInfONWy8LhdSztWkwkFs/hzSdCMHT6L8AZLRACfPy4/+wUtudXERcdRfnezfxrRx1n9etPRdk+dlR6sj0mHGNBaH/WVCT1SqYgLwdr21bEsfVShk5m1vRJbPjhZRZmHkTrG8L9jz5M7f49vPX2W54EUx0oujATAwdrWT//VyESM6MHTT/vo6bKgdKoJXGAFw6FlobCOnySwzH4a3FWWXEcKJQFguSjkDihO6XLC9D1D8O8rZKw5DaBIP2AtG0xWBqdqL1UeMX6U7ejhuhwa7sCobxBLSwIHZg7UeXMJXBIIPyMkldpJQAVmSjld2k/XLyKho9wki4b911EHoFCepiXouc/RzwUS1ESgJMY2QAPT2PlMXSYgd44KUXFIfthKyrqcHKBwvMbonK7GI+LZYqj7Rmb3Fo0OLgAh2wp2KhQo8FFnVvPQ+08kP1x8Q8seLf11Qs3/XEjjfFQaUbDfW0Wg7do4R30+LX1+djZlnqXhYo+OHgSOz+1c8907HyKlxAIXeCrcoYLBH8u6xXA65n75SyRapcLs5vjBEJ8bDSpKjPf7Ds+EuOhOVSotXQPC6a8vBy7o70HvYKzL76Ks4emkbPhe977eiUBEYk8dd+NVNSU8eoLc6lqdqDW6gkL9KOkvOKERz1jRoRRllHOoTMcal8DI2aEsebjg54fBy8taqsNu0KJWqtAH+ZL437PT4nKqMLZ6sQU64PG5SR+SAAbvypGofJsMcgWhDaBYArX0VBmlQWCPtwHl9WBLb8Oa6MDdZgXfjonzUodkSYLZUIgdIGvs+jiqSRwSCBMwkoU8AMGlgDnYKEBPStxt1kQ9FxKK9ccsVEQggsHysMPfKmf/4cXG+VNTjczaSEFDY+gkx+9b9DEz3jx+REP2EicsvSQyj9pZfcJzPZlKOVTTd9jZTx6LsbKgzgoVShobvMD8HK7eR49e4CHcTK7bUvhWAtCBE7ewsF0dIzCzOO4uBgj52BmZjsbIRnoeBQNQ7AzXbKwKDxbEUeWW9ytZGAUAuFULtY/qO0zSiBEhIRy9YgU+ob78Mueg7y6ZhdT+iXTOyKAuqpyvty8nzrn8QLB5OXNLWN6Y3O5+XL9TooaWo/DqzSE8Porj/HUA/dRXFl/3Odxoy9m5pAwXnr9Q66dfTMH13xK7xk3sPzTV3GEDuDKsUk88sSruE2RvD73Pm695S5aze0f40wcE8HeNb86J3YfGk5TbjkNdZ43De8oE3G9TexdXy5/3dWBpsMCIWJ8d5pyq3HbXTRX2PDr4UtzmZXwGB1eOhc5G5swRPkRFammusRMS6MTQ4CW5opm3E4ITgmlpbAOv0gN1bmtmC0KeYvhkAXBbldhb7BwAiPKH7QsRTOCQOcjcEgg7EVFNW6+pQUj0IiSWXjhwikLhIvRcAX2o4z06dhoRcPWIxz1GlDxBmr5bftjbJyPQbYeSEXyWcjCyCK5voJCFAzDji8wGRtNaMhox+lP+oXYhpo4LHyIk0WoKEBBHCrcOHm+TQg8RSvvYCQfd4cEwtWo+RgrFtzcipF63IS0M0WtKJHsnpJAeAobO9u2Io6s2t9t532xxdD5Fng7PTqjBEJnJ65S6YhK7MfMaf2Y+/L72Np5yqqDvAkLUVGc/evJiai0AAqzfnVWPGqcSgU9JsURHG6Q/9xaVc/m+cXHoVAb1eh8NbSUHfoJ6gAtBShV4BLxqjoAS1Q50wlIAmEcDsbiQvq2vYyebBT44eQ+bFSioD8qpqClP87DjoRp2BmHkwNo+Kbtr3G4yEbNDuBdWhiEhtmouB2bbDPojosWlNTJUFVMRS9bFhJw8T0tFB1jupdkhB8qhmGQ/QKkOnVokNLPPY6D3RiwYeML9BTj4hvM/A0vpNMVz8oPc8+bfgQu7sLJ3W3/lvwF7pOdFjVE4+YyeRvEyHisjG1nm2ELat5ssyBcgUsWQMeW2zELC0IX+bIIgXAaJ0qt9aZvSgL7cnbTaBbHBU8jenErQeB/JnDIgvAjatlJMQ0Xg3CgRcHz6PBqsyB4fBA85TIspOPkAfQ8j4V7MHItZs4BzsLIZTQTjJrLcNMPg+xEKJX2thikrY0XcZCLi9pjzjFIAiEBBaMxcAEWeqEmCAe3o+caLPiiZQV27sZNBm6MaHkFFd1wMhcb77Q9yKWtEGlr5Jm2fwfg4jrcTGwb05u0yAIhFhvXcvxW6xL0fINStorMwMkGWchI17tY1tbncdhZh57Fwknxf16Tp7oBIRBONWHRviAgCJwRBA4JBCkn7ONY5VgAK9CxHgVmlDQcFgg6JAvBOGzyVsNmDNyJBsk57x3MfI2BR+WDiJ7TCr44yMBO6m8IhMew8BA62UHy3SNEiNSG1NrfsXMZBtn6UCGLFit3oOM+zCxEzy6UfE0jcWgYKNtAji+/dYrhkEAYjoVKtGQcIVRuohVfdDyNkjdkfwXJp8LJrej5nBYex8ABkI9aPoqdf2CQ+ylK5yUgBELnnRvRM0FAEOhEBI485ii9FUfjlM3uUkwCMyr245J9EKai5kNsvCbv91s5By3vAtfhYiEqbpWdGlU8i449KA8LhOdQEtg23hlYyUXLnrYHaBVaPmtzaJQEwvfHxCmQ+nC97P/gefBrkJwQrTyAljewMRsdUpvXyFsdUsAmFf+HjmPtmH+EQFiCndkouBklb7YJBMniIh3hTMRGPCpy5XgKcM0JjlN2omn/S3dFCIQuMv2hw6JxFZdRVWwjaUwYJTvqcFicWFuOcBA4lJtB+oHw1+Gjd1Fb5vkJ0IbosVV6oiLqQ00YHU3U1vwaltk30g9bbQPmFjm5A91GB1CytqaL0BHdFAROPQFJIDwjOwi2/9YrPZSTUJF0xNv5NTRzE26K5bdqA8tls7qLuZgpRs1ctPjglC0Ir6Ek+ATHByvQ8d5hgdBM5HE+CJLToIrhxwiEjTjRoGEKVurRckPbA/l1mvFCw9XHPKA7LhDM3IwLKe7CoRKGk/l48Q1ODG3+FZ9iRocCZ1s1H7ebOzGQJ7YXTv2C/QPu0KUFQkp0PEaVmTG9Y/l02c+UWWBiz0iW7Sk6KTQjB/SlvrqK0XGBfLhmF8eHSTqp5n5XZa/IQLxVrVTk/+pEGJkWSFFWDWqTntBAJS6TkabCJvy6aTE7tWhamikvtKJQIZ9A8E4MxFBdS1WdG12wAT8fqDjgaS98QgyVK/Lx6hUENTb05kaODBAZEO+Pq76B+hpP0JaYKTHkL5KMqaIIAoKAREBy6JNsAtUneLhJ8QZScbPxCLO75MAYiIL9/+WBqJZ9Gdz8Ip80+K3ipgcuco7zQfD8fU/b36WQyEm4kH4J3SiJlz9THg6JLN1JsjUcOvZ46K6SK2QybrafoL89cbAflRz3QXKnPDLwk3QMU42Sg0eIBinMshQz4ZCMMKM4SlT81mjF538ugS4tENKSexJIK9PH9+HZ9xaiCQ7liiGJfJGZi9NuI6+yAW+9nsgAbxoamyhtthLm7421xUZooA9llTU0OOHc9CEcLCvhugHd+Oc3mUiHHH1Du+OjMFNcfvxbtEKpJi4uhsqifTQ5dcRHh1FZb8dP56KotJygkG64GiqptXbQEVGlZNANvcn+YActnpd81BG+RIer2L+5lshUX8rzmgmN90EZEUDJ8nxC0vxp2NdAa40Dr2563M02QvsGY3YpMGlBZdDgE2ikblchRfsdhI+Opi6zCFVCEMqSVnS0EjGqOxs/2S9HVgyI80dhNyOdvFTZHAQO607+kgK0ajc2kZ/pz/2WirsLAoKAIPAnEOjSAsFLr0ercBPk701hWQ0x3cK4bHAiX27KxWmzkV9vZs7oPqzJKWZ87xh+2rCRfsOHE+Uys764mcHhWp5bthO9tzcWu40Ik54DVY24UHP9P58g0l3AQ8+8ddy0SAJhzMzb6KnKJUeRRB/1Pj5cuI1b7pjDW6+8zc03zeLjuXMpamx72v/GxHrFBpAQbmP7ek9kR+mJnTq7J3s/2UOz2Y1PuBHfPoHUbCrHEBWI/WAjYUGtuAJN7N/UKCdlCu7hh0njIj+3BWOIDpvFddiCoPfVEjEmGkNzPeVmLarSVqirw5Tqz741dYcFgmRBcBkNKO0O/AaEC4HwJ3whxS0FAUFAEOgsBLq0QDgWolKp5K6JqbywZLP8UUhYBNMCFHyQXULPpJ6cH2qlyjeEbYt+YaNLxVOzzuL1b5dQ2s5zXKmSjGUuHM4T5RxQcvczb9PbUMA1dzwpp0lOHT2N266cycIPn+Xbdbs7PMexI8Io3FCB0+kxMBrCTPQdqCXzR0+oZb+EAFQNjdRUO/DrG4Zjfz1+vla04d4cyGqS6xijfekWrGbf1joik41UVDnb3WLwHRqBY18rwUEt6GJ8yV7iucehLYajBILYYujwHIqKgoAgIAicaQTOOIFw58QBvLUkS94mCAoMZWacjjc3FTJ24AB6uIpxdotj08Jf2KYx8tJFg3niP2to23Y/am7jhk6ip7aMH3/a3u6ca/0jePCumwnxU/DK4w+SXelk0nmzCfYLxas5i3e+XiwHIh127jW4D6zkl10F7a8dhZKkMaHkrS47/HnM8HDKt5RhaRMuxkADCqedlgaPQLDsKJcTshgDtLTWSNkYdUTGqHAF+VO9tgSzArRBx/sgWA5Uow4xYSu2EKBvpLZJjcbHQfU+B0E9gwn0sVBW7kJpa7MgCIFwpn3fxXgEAUFAEOgwgTNKIEijHtmnB2PiAmmoqebNDfuZNaI/ET4a3DYzzy3bznXT0om0m2lU6ti1ezuLC9tzSdRw0TXX4+uo5r1/f3U8TKWWWTfeRMXGBexpimJKqi/frt3FrKlpcv1pV93Kii/fp67Bxk0PPod31TZeePujdlO4BvTvjpeljqKctn4oFSSMCmXfml9ztOlNGnx7BtCaV4UqMhRHXjktdjeGCBPUNKIP0FBbbEcX5o2mqpkWhZKQngHQ3EzFQQshvQMICtWQs7oCv9RwNNXNnoAsKhURiUpazAYsxVXU1oJfpBdKhwOfniGUri9D4XLTWHkS0Rc7vPRERUFAEBAEBIHOTOCMEwgSbKWcLtUtm/0P/dvtdsu+tLOnDSHrx0y2HfF5uxOkUHgOFbnb9ytWKhW42m4g/7db3sr31JeudbtJ6D+cG665hhWfPs2SjfuPu41CpyZ9VjwbPs7F2RaUzDs2hEAfMwU7PFsHUtEaVdha27K4GbVolE4cDrfsiKgwW7FIKR2O6KZCpcAUaqSluhWHzY1KA842f0mVXo23/6+pXO0tFlobPW1rvdVodJ5M81JyJ5fTjdLtprm2/ZwRnXlhi74JAoKAICAI/G8EzkiBcGIkCiYPTiJvYy7HP67/N5DtXa1UqVApOEH2xz/+fqJFQUAQEAQEAUHgjyLwFxMIfxQ20Y4gIAgIAoKAIHBmExAC4XTPr0pNkMZNteX4RCenuyvifoKAICAICAKCwIkICIFwuteGtx8XRmlZnN/M1QPi5LsbvL3I27GVeaU2YiNimBbnjd7Xn5qyAoxGkxwXIbx7EO99t5qDImjR6Z4xcT9BQBAQBP6SBLq0QBia0heTqoWLh6bw1Gfz2d8CiaF+7K2o/3UyFWpeuOJs3p+/nD11nqdrr8hQDpRUYJFDHKiZPWUIA0P0PP7RSorbWwZKNY9cNIZ923fQOyGc+xa2f/Tx2Ev7J8QyPcrNXmswi7ZsB4WSiLBQJkQa+HHbPvY3HJFHoe3iXnF9MdTuQJEwCHV+NlUWBSqljcRADT8ebKHPkBEk2Co4f3AiD/xrESc4PPmXXMxi0IKAICAICAJ/HIEuLRDSkpMJUFiYPq4vz7+3gEKHkjvPSuXFpZ5ASYdKqK83dU3N2GRBoOLJWRN589vFlLTFGVCoNTx4bhoffrdBjl1+XFEoefDSsWxeu52BKUE8viynQzPQKzaGqWEWil2hLN6xB4vDRWK3CAaHqtAbvFEdisGkUBEd4cfLX63BJ7ovM+NB4RfC6h15GPLKUfeNYlyEgzsX55PSayDR6hquTO/FLW8toqpDPRGVBAFBQBAQBASBkyPQpQWCdBBRoXCjUimxO9xcNnYwo2IDyS6qxtJUx3ubDjBjQC8GJkfyxdLV7Kl3cP6gFKb0iyc3v4iS6mq+2HQAm0rNg9MH8VGbQOgfH8tZCYG0OpXUlxTz2Z5S1PKxPxdKJTjaHuxTLryLZN025n62ql3qCoVCTr8iHa90th2XnDR2JKNNzby9ZDsKLxPXTxrAM1+tpcnh8UnwVisxeRupbLKQmhJH4K5CXP0jmRLm4I5FUhoUz5jVSiW2E0Z5PLlFIGoLAoKAICAICALHEujSAuHYwRwbavnQ51PPGkPRtkx2VEkBf1Q8ddnZvPHNosMWBI4RCLefNxmflgosTiVJQXpmf5nR7srRG71Quay0WI7fKmjvAm+jF+dE+aMyulm0t5kpiYH0TI7h+19yKC4op9zl4obJY7CUFvLJrmJ6R5loqnKQHKlBV9fEvPKO5XYQy1wQEAQEAUFAEPhfCZxRAkGhUHL72Wl8vWYTJZZfIwcdLRCUPPa3yXy0YAkHmtpOEhwjEK6YkE72ru3sqrEQalBS0Ni+Z2BkTB/8tLXszCvp0Dx09zVSiYELYnXUq4xs23qAmy8ew5Pf/8JLM/ox56tNPDa1L7srmvl+8z68DHrSortRXl7LWT39eCnjdERv6NBQRCVBQBAQBASBM5zAGSUQpLmKDw/nvskDaayt5P7F27ntnDH0DjPhsFr5dsliFhXZSYmN4qbRfamqLuXZlXt56W9j8DfqaGxs4sXFG6g2u7nlrDSC9Ao+X5nJhor2wjHD+BlXEO/cwjsLdnV8mXj7c0OKH19uLaBXdCSXD09gzscrCTEZsLnUxDrNmGJjObd/DC31ddgsDsxuN2ERoby/YCU5bVEPO35DUVMQEAQEAUFAEDh5AmecQDh5BKf3CoXOQH8/JVsrWtBrtYwKUrNMSr8MhHppqWyxyVGTJf8FtUr2OJA/c7tc2A/Fjj69XRZ3EwQEAUFAEPgLEhAC4S846WLIgoAgIAgIAoLAbxEQAuG3CInPBQFBQBAQBASBvyABIRD+gpMuhiwICAKCgCAgCPwWASEQfouQ+FwQEAQEAUFAEPgLEujSAiGtR2+8lM1MT03ile+XUeDx9Tu6KDQ8evFoPlvyE3n1RxxXNPhw/6gYnlq687hLxvTqycGSgxQ0tMUdUKm5Z2o6Bbm7SYwM5ckVu/+CS0UMWRAQBAQBQeCvRKBLC4RBPXoSoDRz4Zh+PPXhPA5KcZCOK0qmD+7Jhp17qDQfim0MGH15aXIyd327kYT4GHrYm1lYWC1fPTW1H3kFeeytbWtQoeLhS8ew4+cdDEwJ5YFFJ3Gs8a+0msRYBQFBQBAQBM4YAl1aIGhUalQKNwa9lsZmJ09cmc7cj1dTCUwaPBDv6mzieg0hMdjA3AWrya620D08gifOHSwfI6ypKmFNiZsL+3VHhQtzq5nnF68nKa4nM/qEoFIqWbY8g8/z6zAZdVgtdnRaBY1tqZpnXPwAKX47ePJf89tdEJdccx/5i/6FLSmdc3oq+WpbC3PO7cU9z/6HN+Y+xnN/v5m8+iNEyxmzrMRABAFBQBAQBLo6gS4tEI6Ff+v5U8jN2c24WD/yLBp2rMsiywaHIinuqrFx15RBfLcskwMaEy9N+tWC0NPRzIICjwXh3EFpVBfvZY9Vxez+ATy7al+78xyd1AeTrZSd+TXtfu7bLYH777qOwqIq/v32azRZFVx8020M6W5kxcL/sOjn3K6+fkT/BQFBQBAQBM5QAmeUQBg3eCjTolxsaDQyzNjI33/YIgcdOiQQ9tTZ+eek/jy2MAudjx9PT0w6vMVwpEA4tMVQ7tJzU1oIz674fQ9ygymM119+jsqi7Tz6xFwsdhfp1z3C3ROjuevqmznY0p7TxBm60sSwBAFBQBAQBLoUgTNKIKQm9+DiaCXv7G7kvpFRzPlmI+k9Yknvm0R9SRGrtmUTHZ9EqgmqnTqSQzTc++1Ggv0DuG5QNNlVzfycW8CQ5J6yD8JvCYQpF95KsnYLcz//uZ1JV3HlrXdSnvkdLUFpDA5qZfWeVmZNTuDlTzL45z9u4JWnnyKvoIJr7n0Kn/1f8Mq3xztMdqnVJDorCAgCgoAgcMYQOKMEguRXoAQ5tbJaqcDhcstpmj3BisHpciFFK9aolDhdbpQKKXWzJ6mT5G8g/9vpkv0T3G4pTbP0d4Vct70iZY9U4D7h52q1GofDIcVNRqNSyfUUuOT/V6s1uFwOXC43s667leqF77O0XFgUzphvlhiIICAICAJdnMAZJRC64lx0GzGNeEsB67J2yoJEFEFAEBAEBAFBoDMQEAKhM8yC6IMgIAgIAoKAINDJCAiB0MkmRHRHEBAEBAFBQBDoDASEQOgMsyD6IAgIAoKAICAIdDICXVogRIWGo1NY6RMdxpot2Wh9AtC7reTXtfxXzPHhYUTrraw6WNduvaTwMKrrq6k1Ow5/7uNjIkpnZ3d1u+EaO9m0iu4IAoKAICAICAL/G4EuLRAG90jBnxZmjOvDM+8twD8qHj9XEz8drDp8CkHCozziVIJ0okGrUaPFTZPdeZieVEf6zOV2MyW1H3sL9rKvziz/W/p777TBDHXl88HWKvlvkkPhodMRJ3IulNqU6h7ZB+m/pb8c2af/bQrF1YKAICAICAKCwB9PoEsLhGB/P7xwkhgbSua2fcTHJzA9yZ89NWZ09mY+21bEOanJKBVuwvRK5q3fjSY0nNEJERiay3h7SykKtZZr01NoNVsY1COOhWt+wiusByk+FsrtKqrLi9hZr2By+gCi3HVklbaQtTObAjOc1b83Ce4K3tpe1e7MnD88lbrCPBr0QQzwgjXVNq7q489rPxVyx9SBvLNsPQcb7H/8rIoWBQFBQBAQBASB/5FAlxYIx469f0I8wTSxtqCO20ak8GFWAZf19uetjQWMHTSA7i17eX9nPeEBgcyIM/BWVjGB/kH8Y3Q098/fyoxRQ9mxYytJMcnsK8ij1KljzsBgnl2ZR6+BgxnuOsh7W38VA1I8BaXLjbXNSnBsfwx6I69eOpLC8jpeXLaRVieMTBvC7H4mnv3PGna1CHHwP65fcbkgIAgIAoLAKSJwxgkEX1cjG4rqZYHwQVY+/zg7hYz9VXLwo+KSIrZUtB4lEEzevtw/qS9rc0pwu+ys2VPE+P6ebI5HRlLsNWAQ6RTw7hYpFZSnhPn5YLRZONDa/oPe19uH+yalUlrXwrtrt2JxuJk+YgBjQzR898s2fir1pJPuER5AWXktDSIQwila5qJZQUAQEAQEgZMlcEYJhL5xsZhcTWQWN3DT8J688XM2d05NJ9JHh0Kt4POvlhLQuy8Tk8Lx1ig5UFrKZ5tKeOZvoyirbaKqupx31+5mQM8U9hXuo9Kl47rUYOau2UtwQDDPXziMusYWvli8ko0NMGPIYFK0pTy5rrhd7helD2Tvzt3oIrozKcTGN0UKru1t4sGVB3j50lG8+Nliciwwe/I4TJVbeGFz/cnOn6gvCAgCgoAgIAicEgJnlEA45GgohVrWqpTYnC7ZGVCnUeFyurA6XXLIY7XK417odrmJiUvk0hgVz6zOZVhKEsH1lXxTWIvL5ZKdCbUqBTan59Veq1bJoZdtNgeSe6P03wq3G8cJ3vx1ahVWhxPJ/VGnUeJwulG4XdjdHkdJl9OJX0AgVw9JZO0vm9hY8+upiVMy26JRQUAQEAQEAUGggwTOKIHQwTEfVU2lUnPblBH0Cfel4MA+XlqdTVObIPg97Z3sNRqtFp3bSfMRJypOtg1RXxAQBAQBQUAQ+KMJ/OUFwh8NVLQnCAgCgoAgIAicCQSEQDgTZrGdMehVCixtlhCFlKnS5ZK3RUQRBAQBQUAQEAQ6QkAIhI5QOo11VBoNExPCDwdhOnRrlUZHa2M9qwtqObtPDEqnk/3VdZS2OEjwN2E0V5BR7ZKrGwxe3JhiYG5WtfzvAT0Sqdm7l4IjFEJUUCBueytFDWaGp8RTu3+/7DApiiAgCAgCgoAgIBHo0gJhUI8+eKuaOW9gMi99s4T8VvD29qa5ufmkZnfqmHTqSkuY2iOE5+ZvpKEDV0cERzCrTwga/wB+2bCOVaV2zh87nF15+fw/e2cBHuWR//HPumWT7MbdE6IECO5WShWoXnt1Klf/V67eu9q1veqVXt2vV+ottLg7BAsQQiDu7rK++392Ezy09EoldOZ5eGDZeeed+cy8O9935je/3wUJfry0eg8nmm8lUgX/uHQUr36yhqree0WEhJJplPDd3io0ChlyqZSJcVGsqm1hariSFYUtOaz+iQAAIABJREFUdHWbkcgUjEgMY2t1K5NClexocDAqzB+flv18XiPDJVNyx5Qh+Dq66HI4KTe5yAz3p7S2Gb3UyhMr8tAq5aTExlNfXkKjzcFNYxJ4e2MhUqmEdpMVJBK8VHI6zMJPw0kMBZFFEBAEBIHTkkA/FwjJGKUmZk3I4Jn35lNmV3LPPbfzz2ee/0mddd7oEVTWVXPN4DAe+HwTJyMvAv0CuGZIOPiFsn3lIpbXObl47FA2FlZwQ0YwTy7JwXqCWiRFRnC+v41/7qjtySGV8/glk/jgu5UUd9o5Mz2G2uZ2BoeHsqOxnWFBCoIiEnjly0V0o+Ca8RnUt3URqJVj7W6j3a4lVdPOt0Vd7Glo55KsOHK65TTu20+bRM6seB8+P9BEUoCO/Q3dXDsuhT2VzQyKiyY7Zy/BAXrqOmzMSA/hiYW7UOr0PDg1hYe/3fKTOIrMgoAgIAgIAqcPgX4tEOQyGTJArZbT2SXnoZdfJiPcl+bGFrrq9nHvU29x6533kxIXjErSyS1/+T/ip/6ZO2eNwi7TITU18LfHn6S+uROHy4lOIaPN89YsYfbZ4wh1tPL44l199rbb8ZJOKQOpDJvZgsUFarkcq8Ph+f8Oy4mPLF40LJklOQW0W3vyhAaFcGuKmgdXlXg+n5mZQIJeRaifgeq2LoxaKUqNFw99udpzZDI+NIKp+lr+W+YkxM+PFH9fArqKeafIhlyh5JaJg/Dy9cGrq4XPtxVg1OrZUl2HXCqhrdvKpeMGMG9LIdOHDqSkvpHC8krabS7uHBfDJ7uauefskYT7qGlq72JPYSHvbqvkxUsneY51tjTU89TCrYwamMa0GF98A/2pKyngoaV7T5+nQrREEBAEBAFBoH9vMRzbf1K5kr/eewfPPP3coa8MQVEMHzKQ8WecwbJ/3Un8BQ9Tt/J19nuN4epReu5/5oM+h0GAry9GmZX9Td2ndJhIFGpuGhnP2+tyD/lPmJmVzK49+ym2OAkPCmRYoJZuu5MhMSFsL6n23F+j0iB3dvNtXhPnDUsj3lxCkcyP6lYzRoWcFFUrBXYN3+ypRApkDB9GcHkR9XYHaq2EOrOMSIWDVZWtXDEhle37qhidlsQHq7dw6fBU5m7J55YRIfxrQwVanZ6Hz0jlwW82H2p7qI8XaSFGJqTG8O9F65gxcRzfrl1PYnQ8TdVV7G7qOKWcRGGCgCAgCAgCvy2Bfr2CcCw6d+Cle++9k1dfeJ5uqxO9IYhHHriD9954h3OuvJGd/3mQ0HP+yrDoEGxdtTzx1HO0mPreZ9dr1chdTlrce/I/Ixm8tDhsVtp7VxSGDRxEiKmMeQeaPaVKJFJuHJvK2+v2cND9gtuN0+RhWXQW5ZLX6WJqbDBf7Svz5FfINMwcmUFAfQ4fFVlJSU2HugaSVTVs6VRSb1dx04SBOFwSPlu0gTKHy7MyMi5tAGtzculwSrh8bBL/XZfP+SMHM2/TDo9BpEwu54bBAbyWXYNGq+dv09N46OtNnjqFRidx5yAf3ll/gHOHp/Ppyg2cM2Ei6QYpJZWV/HvdPsw99pEiCQKCgCAgCJwmBE4rgYBEyphpF3Pu6HgqSg/w7meruOvuW7B0tBMYk8CSf91G5Ln3EaO20G6FxuoivvjqG7r60AAzx49ggLSVp1fl/6yuvnjKeMKs9fxr7T6USjVPXzCUxz5bR2vvhJo4IJU0aQNf5x2O8eC+YYBOxbT0WJprW3BqVYT4aJmXvQ+X1pdzUgI5UN1At0tFuMrBtiYZfw5rp05pYO7OKo8XyQFDhtCYvZUGuZyhMeFMDlXxwpr9dCHh2vHJfJ1dxJlZ6Xy6bhvR/gaCNHIyjfCmOzKlVMbs8UPw18rYV1HJljoH905MoKK+BbtSxzdrs7l4yjgU1i6sLgmF+/P4vlSsIPysgSIuFgQEAUHgd0bg9BIIPwJXofbm4fvv5J3XX8OMilvuf5j3nrmf8rqTObfw03tOo1QwZfAglJ2VfJVbTUJEOMNVzXxc2LttIZHx2CXjePPzVVT3CoZAo4HJkT7klzdQ0GGi09bzha+Xngidkz11XZ7PKqWSRG8pexrNnkBUob5euBx2qttNnu9jByTQnF/AwegOaeFhtNZXUWmVMDpMx4aqTnRKBV3WnhWUEfERtDTWs7/V8qMNVSjVPHVOFv9ashWlMYDrBxl4cP6eH71OZBAEBAFBQBDoPwT+UAJBIpWRPngoQd5a7Egxt9WRvePw0v6p7jZ/by9CNRL21nd4luplUikSp5MjzRe1Chnd/c7NsoRRSZHInXakMhlVlbUUdP68rZhTzV6UJwgIAoKAIPDzCPyhBMLPQyWuFgQEAUFAEBAE/jgEhED44/S1aKkgIAgIAoKAIHDSBIRAOGlUv15GlUzq2ZLwctsI2B3oFBLMThkJRhW5Ne0EeSlpsTjxV4FZpiHNqEPSVMPq9p466rR6HhgVxJMrCz2nC7LSU/CtLWB9ox2zqyc2dYzRB2t3O1VmF1OSI1i1r0LEavj1uljcSRAQBASB3z2Bfi0QkqNi0UpNjEuJ5tPlm6j5cfs6kkdMYkpWOpX7l/DNsp4TCqMGpdPe2MDYGCMfrc2jxwzwh5O/rx/T4g1IvH3J353DtkY74wenUVRR6zEynLu96ISeFBUKJTePS+LfK/YcskcID44kQtnBpvIWAlRy2h0upsRHsaKmhWnhSrKrTTS1d+JCxpjkcHZUtzMyQEJOk8vjatnQVsDaFjXF7SZGpyaibygnz+zC5JJy3qAYvt5WhF4KJR1mDDKIi0+krLyUZquL2UPCeC+7lFBvJWXu4x0nkVKiI5mUGEb+gV0sd/u4FkkQEAQEAUHgtCLQrwVCVlIyfpJuZkzK4Nl3vqNW7oXMZaPbbMPPYKCppQVfb2+sEgUGrZTK6jpP54VGDuGCyUrmvL/J89ntarmstopr3a6Wv9iMe7rTqtVoJA6aTuAnIdDf7Wo5DKev29XyQlY2wCVjh7KusJwb0kN4amkOJ4pkEB8VyXmBFl7c2lMfqVTGU1dM58MvFpDf7WJ6RjTbimsZFxPJ2tpWJoYriY1P58UvF+GSKjyCqKCukSmpEciqamjSGEmglpX1DrbWdHHJsDjyXQYoyKEBFWdF6/muqBWVQk5dcydXTkjm2+0lTB2cQWFuvucYZUVbN9ePiuYfi3Px89LQ0GlCLlPgq5HS3GXDT6f0uISWOO00dJpxr0NMHjOeyPYc3t/9y5wCOa2eNNEYQUAQEAT6GYF+LRC8tBpUuAj001NS2UDSmCn4WKvYlFPFbddeyavv/4f/u+1+cFZgUfizb8XHLNlafJxA8NfrMdmsRPioOVDXhvtg4RVTxxDqauXZ5bl9dqlcrvDkdynUtDc10GyDIG89LWYLEXoVxU0dnkm0rzRraArrd+2n3toTXjEmPIwro5w8tqHG83l6egzZxTWkGn3JbeskSCNl+rAsXvxuJXKFijOSY4kyFbGoXkaAjxcRBiMBnQW8WeREJpUxKtQXV3QC5O+lU6Uh3KAjt7oRjUpBaU0Lsw45ShpKa30JdXWdFJhs3DEmmlc2lHHvlIE8vXg7wX6RXDFIz+sbS3nuojEszikiNNCfbzftoKbTKgRCP3vYRXUFAUFAEPgpBPq1QDi2oYMnnImPtZIN2yu4+6bZvPjmu/z19lt47oWnCM46m0nGFt5btPE4gdAXMKVCgVrioN16al0EKuRq/jI6gdfWHN5emDU8hbXb8ml0uCd4KUoJSBVKZqWE8+muYnzVSo8nxgEBPuTVd3PeiHRCmnazw+pPqq+MapOUAcpWulTevJFd5okEOXbMcKq2bMVpDGRqvC92p5z8sgrWVbby53EDWOxeQRiSzty127h01AC+zC7gluEhvLalhofOHMzfv88m1D+aa7L0vLKuhPunpPP3+ZtIi4qmrrWB6tYuIRB+ypMm8goCgoAg0M8InF4CYeJZGOy1bN5Vy9/uvY5HnprDPTddy1Mvv3hUtxy7xdBXn4UFBhKrMLGu6ud5CEyPjUHSXs3uxh4DiakjR6KozWVhycFy5dw8ZgBvrs/1GAnKZVIUEhl/mZbFV2u3U2+TMz0pkO9zK5DgwonKIxD8qreyskVDQlIKNSXVZKqrKZDo2FXv4sz4QGwBYezflE29S4bVauP8rGi+31lCm811nKtlhUwKEhmzB/nzzs4GHj07i0fmbWbcwMGMDbF5BML/TUzh8e+zj0Ilthj62dMuqisICAKCwE8gcFoJBJ/wdP7v+llY7VJU3eU8OedzrrjwPN775L+9SKSMnTaD0ZkpeOsklBzYzycff96HUaKESyYMxWBv5431P8fVsoSbz5+Cuq2al1fvRa7W8tLMQdw9dwPm3hoNSU4j3FXPvPzDrpbdnhEjfPX4aJWclRZBh8nKjn1V7GvvQKb05sbRMXy2IQ+7XM2YICeLq9VcFWunQarh4x1VnpIHDhvqcbVcK5UyY2gyAV2NfJBXh9kp4ZrJA+lu7iA+LJinvt/gWbWICw5klK+dD/KauGzCYGK0SiQuOzWtLR73zZcPjeXtdYcjNk7NymRohBGlo5ucnF18W97jwVEkQUAQEAQEgdODwGklENxdolSpkLicOJ1gs9tQKBTYbIfNBd3hkN1v6e7kcjqxWPu22pdKpchwYXOeyJLgxwdAZICRK8YNJmf7VhaUtjE4MYYB3Y18UtmzeqBQqHjxkjE8+ukKWnrdK7rr5qNS4KVS0m2x0Nht9bhSDjH4YLN00dBlRyZx4UBCkFZBXZfVY+SYGOSL02Fnf32PwaDBzw9zUxPuadt9fXyQPzUNDXQ6INaoo7i5C6NOQ3OXySMQEoP9aG9to6r3fu6jljaHE6lU4vnbvcrg/vtgUshlyCTuME/gcNjp9Qj941BEDkFAEBAEBIF+QeC0Ewi/J+pqpQKt1EmzuccYUSRBQBAQBAQBQaC/EBACob/0lKinICAICAKCgCDwKxIQAuFXhC1uJQgIAoKAICAI9BcCQiD0l576hepp8I8kK1bOsuziX+gOv+9iFUiQqZREKxUERWhZk3fYWHRiehp79uXSaHfbcUi5emQcH2wsOM6/RYTRC8xWuiXQbXVgOiY6p1ymQuq0YXU5UYRE4t9QTs2RIT1/AFGMTk5JV09mf/8AuhobPHYlJ0pu25AQgy/lDU2eLCoJGOQQERfP9vxqYmXdFPax43XXtCzeWLLN4ySsr5QaF8Heooqf3JkDw3TsqjrWN6mUMJmTqt56xMqguPffiSE+lNa1Yz3C9idcCpVHnDa+eIAvX+S3HuoHidaAj6WFMUlGNlU7cLa10XKE6dDs8QP5dO0uZKGxDNI76agsZ3vn8ceXowIC0GAiv6HzJ7dTXCAInI4E+rVAMOi9kWMn1OhNQWUt3b0/MiGpWeiayymsOfxj/3M7T+UTiK/MTF1zb8CD/6FAiVRKRoQ/Tc1deKmc5DeenOV/oK833piwKfSUNTR77ixT64gPD2B/Yanns1d4HNLWato7e8qUydWEBKqprG79wZqGRQ9k1lAlc77Y2me+qMRUvBRg7mqnrLwCp0JLTHQUarnb0NNFTUk+xtBYGioKaXcoSYgKpLikEvsxv78SqZK4uFikTguFJaXoff0I9lWzv7gSlV8kemcLHVIjelcrjc1tIJWRMiCJiqJ9dFhc6I0BhHhLaW0z4S810ynVH5oET9RArVqLWmanuavHENXtRCraoKak2czsVF++qXYyUi1ndYeZQWotg8Yn8tny7dS0dnviYFw7JZP5O0qorW9C4xPMBcZWcuUGsvdXe5xpeeu8uGlYICvKu6hv7SLZ35e8qga6TBZaHDA2KZayphbSw6PZkb8LnX84TYZgEnOz2XKStq/3XXkRK1at9tQ/LTGOz1f0ePp0J6NaBVI8guCuM9O4d+56z/9LXQ4aTXYC9TrCvZUk+KnxjhnOmvUbuDrRyX9LHeytOTguJEwblIpXbSG1SiUbyo4e3xFGb8YOiMZcWc4Bl44YmYk1Ne0evxwnk4ZGBFPa3IrM5UJv8CdLa2JptRmr3UKHpeeBfe36M/hwyU5P/JGsBD8+XnuAziMG0CfXZHLbZ/sOCYKXz4rmyi/3e64N9fVCrwgiWd/CuAlDeXN9KaNsjWzutLCvoRMfn0D+FGnli4JuLj5jHJs3Z3P+uEy+2bSX3KomHP7hPJSgJs8sJ9FHQlW3gyC9DgsSFq/dSaFNwrDwAFIj/cguKGVvg3ArfjL9LvKcHgT6tUAYnpyGQdLFrAnpPP3ufEp6YzEExQ9E2V5FRX3jKeulAZfeyeiubbz7Xc+P8P+SJAoV718/hQXL8hkQYuKJtdUnVcy0YZkMthfS4pvCGyt7fBEkjr2RJ2YP5JKrbvZ8HnLPy6iX/5sNOQWezz5+MdxwSQzPvbbyB+/xYwLhvhfeZO+ST9BHDMLYvo3Xv88hNTmZP119NWvnzWV3zh7uf+wfbF3wDovbUvnHRTHc9+izNHccfTpk4vSriZVXYw2MJdRZxqZaDdddMJ17Z1+P6vxHGGZeQrZmOsNtK/hywXqQSJl+9yvId33Md8s2c8kVt1Gx9j94BUVzhqyY/dpU3l7R4yr7ROkv505m8/q17GzpOcUSaPRlapg3c3OruC7Zi/dKbIzX6skcHEx2Ti3jz8xk76bdzC+swdcQzB0JEr4u7SavoZ0zx49h07oNuKdP92mOcB8tJoeTQG8NV03KYuH6HOq6zLRYXCicFhQ+QZydHEZ3dxcBhkC8ZZ18urOFah8DsbnZ9C3Hjm/J7AsuYv6S7z1fDM9I5ruNO47K5F4xuCgjnvHDo3l9ST4xzka+Ke15Y/fRqAjRKxkQpME7eiSLV63l7jQXc/JtVLb25Any1pIZqGFJYRORRh/OSw7jnQ15h47hpkUE4bI6OTdJw/tba1BovPGTqalqrKLxJESOUopHLDqR8MSlY3n587U0HSMeX7p+Kv/8dL1HIExMC2LBtvJjBEI6l7+/55BA+GhWHFd+XeSpv0GrRicPJMPQzMRJI3h5dSlndTew0GShqt3MmRG+ZDebGRYfz3lZ3jz5WQFXJ9r5T4mdqpYOnN4hPJKookTlz0CdmV3NFkYmhVDVYmLO4q10SH15eJSOp9fX8cA5mTwzf9uh+Ckn9fCKTIJAPybQrwVCVHAwvhI7wzKj+XbZNmSxA7nsnMlovX1YtehbcvaXM3P6KD6eu4ALrrmV7r0fEJD8J8Ij/Klv7cCoU/HZ1wu58fJplNbZ0Wvg/bfeprn3Lfxgv6YNGcEl191IgLWeA+V1rF3yCefMupqXn3uGNqcXd95+I1/MX8JVF0yj1X2O0NLBex98hH9ECrPOnIBUYmXxd1+yr6KZm6eks25XDfEGM9/k9xxJvGDEQDoK9rK0qe+3spToKKJM5Tj8YliaVwwyFU+9/SG2it1Ur/yAt9ZUM+yBf6Na8grrdvS8Wfn6xXHz5TH845XlP0sg3P/Cq3z63P3UdOp59vF7uf+uuzyTxwP/fJEPn32Ipm5/nn7sRmobW/AKDqSspoN5b79IY+sRb1pSHU8+difPPPUMFrkvH7z+LF9+tpjQTiON2hw2qc9hhGkhm7XnMMq2jE/nr/HUWaIy8tQD1/Hos3O5787zeerpf5MUHU2arYw2n1iW5/VMEn0lg4+RRydFcdc3Ow9NLFNGDqOxaA+7G63MiPZlwMjBfPfdJiIzUmjbX8aIiQN4+Ys12F1w+YRBHCitRK5Uo5bKOS8jkNV5dSh1vnQ2lbKosBW9RsXUgQk42prZ12YhJTgQjbmTb/IqPIwGxYZRWt/MwMgENubtJiw0ilZjEPE/QSD8eepoFmzY5mliYmQoW/JL8NGqaOu2EKz34rzMCD7auI83bzyDq15bSrDBl0tjtLyys4Zrh0XS1C1BKZMSER5NQWkZBhUEGH2YsyIHvVbHhVlx1DW2YjT40dnSRHBUBAqXne07trOrxYVSo+KCIYks2V3CsBAF+U02ytos2Kxm2n7Ey+jkhDBSQvR8ubOE4MBgRmQMZuWyBWi9teRUH94iuH3aQD5Zl+9xFJYWqie7uAkvpYQmdyhS4JNrh/DwtwcO9ePjEwK54usi3IdsZyZG4tCoUWFlSGI424rqUDmcBBmUvLWpkAtGpBGpV1BcUcngjHD+/lkRt6faWFpqI7vFBH6R3KCo461uI/eEW/mq1soVY8J4cn6+Z5WoJ0mYmJaEvqOC+WUnE8qtH88IouqCwBEE+rVAOLYnJVIZSoWc5NHT8Hc2sGV3EVdcNJnX3vycq+98mM4dr5A89DrmZecxLsBGdep0Sld9y+yZE3nkiRdJnjQTZUE2K/cc7RxJJpORce0DjGzdxLvz12O327nwnqeR75zLhq40Lky18N6yPO6+fArPvvwWk2ZdRsnib8m68haWfjQHfFO4+9IM7nz8tT4HX2yQH5a2Fqp6fxB/bIT6RgxjzsMzefhfq/n7jcO55o7Hf3GBUNFs54V/PsmcO+/BPS0fFAjNplD+fut0tjeGMNJ3Lcstw9k29yXqm4/wQOkdxAvXXsBDL7+GWaHhvY/eIOe/31G7biXyS2aypSWaIZ0LjhMIbg7nXHYTE7OyWPjho6zYdXIrLu7rLh8/hJytO9nb3fMzr1ToeObCQdw3dz0OqYLzQzUkjxvGJws2Mj4zia37qplxxkDKCyv5dHMeXhoF4QHeyJwOGsxSbhoYzt5mE172Ft7d08iYCB/KOx00dnQTFxFJXUM1DV02ogL9qa9r8GwDjEtJIHt/ISOS0j0CITEilOGDB7J73qKTWEGQkOKvI84gZ2eDjVuGGHltu3t7SYJaBgVNnfiqFFw0KZO22haGR/iwpaKNgEAji9dso8QK0XoVGRkpKDvbSErOYP++3ai03uTk7WVvqxWtQkantUeUThk6lv1b1+G2MjjS58VlI+LZWWHhjAgZ2e0SJFY7I2JD2J6/jzXlP+xl1D2Bj43U0eA04mdpJSBzLAtXLiI+JokkbSvz9jaR4KMkVCrhgFTL2V4WFjS7DT7kKLFT3NIzGb99fjwPrqjC6XQik8CMMA1vHWj1CIQIby2T06Po7rYxaVgia7IPYPAzsHzzLvZ3WkmLi0bbWU95s4k7L8ni8bmF3Jlm4/siG7s7LYTFJZPRWIItKpax/jLqrC7CfNS8tmoHVb1jx9vLmwyjmg3l9SeMr/Jjz6z4XhDojwROK4FwsANSxp5FqKzFIxCuumQar74xlxvveZSmLS8RHXs+n++uJEvRgnXKZVSvmc9lk9O557FXyZx2IcE1e1m8e99xfZl6zYOMbd3AG9/0vN36hKRw7w2zcPkE8s2c+yl2xTL7rME8/9pHTLvoz7SuWcL4B59DXrsPq92Jq6ucF17/rM8xYvTSYO4y0X0SS7buAqb/+SbOSpTyxboS7rjxSh69fTa6q/75i64gNJi9+Mcjt3P33Q96llgPCoQWdSx/u24iH3y7AWttKSmzbmPrF/+irumICI8KPc/87WaeeOI5bOoA3pvzON99vgzX6sW0TToTi3EYgXVf9ykQ1D6pfPr2Pcy4+JoTPl9StyMpnZKqzp49Jnc47RuGx/LvI7xgnj0qC1npTuZXO5BKFVwcriZi5BC27y6mqrENiVLFmSOT+HpjGdRUogvwIi0mFFVXO0tLm2g12Qk2+uGnsLGzpo3R0UF4qeSe+6XGReNsrmZfixWJQoPT2orbk7a5s91Tl/S4CKR19eSanUwKU/Nmr7fLs4dnsnHHHlqOMWo82FCJTMn7V47l+vdX8PkVmbyxtYmAoCA2bd9BUa+R3T9uvYgHX/3iEJvH/jKLv73+9aHPF591Pp8vnMeF08/jy0Xz0SRmoT+wjYPWOWMGRKLDRUJsMg3F+7B6ebExN58Gm4xEvRqLVEKAToVLJiPZW0FOg4k2q81ji2N2wQNnZvHu6h3Un0Dcjov0oq3bxq5GCxedeRbzli3EHaMsLcyX3KpW1Go9z58Tye0LqnlqoA+rWx3ERATxzapt1PUuqKl13tyQEcQrmwoYHhWE3W5mR1Xbocn62WuG8/D7W3jsqkn8/aOVXHX+dD6avwinVM7lo9Lpqqlkd0Mn1507kH99W8LsATbeKTBR3WrizBEDWb9tFx12CWfE+FBlVTAi1p+P1+/D0vs8+np7EamWsrv+f7c/6o+Tg6izIHBaC4T12/J54KFHaGuoIWlgFsvevalPgXDXtZewan0OcQlRvP7i01T0YcUcPuRMHrtuOrvzilj27SvkVUq5+o5/MjqoihsefAmf6DSeu/c6NmzLIy7cwAsvvsyoc69hRIKBlg47HRXZvPPV2j5H3DVTx0FpNu8XHHTAfOKB6V4lufXOB5j/xYeeJdDk8X9BUjWf1tHXcr68gtqGVravWMreBjtPPn4DB/KqsFuaee2dj/ss9MdsEP72xqfYi7PRGEPYsPATlu+t4+IZM5g4YQyFOVtYtmE1507I5O/PfOgp/+zz7mPbpreoa2g56n4XXXsrqUEaXFo/KlZ8SrFXPIGrF7NEH84rTz3Cgi/meATCXSNkFJfWULZtM/O2ZKPWJjH3/b8y85LrTgjF6K3n2RmDuP6jHr6hxiAGBslZtK/H7bTbe+YtY+OZszLPw0yrUnPv5IG0NNfz353ljB2czprtuVx13kjeWV6IpbUWH52SYD8vnDYr+XWdDI6JYWi4Fx+s2d3jndJjoglan2Aui7KxvAYy/GTMP8JltkYuQ6OUkxwTQUVdI50mCwqJg7rOHvuM6YPi2JhXRtsJDP5GDQinsrKBOIOe24apmfVV5XEMfkwgXHTW+XzRKxA2Ll9EcMYwKrZvoOGYko5cQTjyq4sHxXKgsp56q4uzhiRTW1LGivImj/2FO40dkERBSQG1luNPBfgZAjgnUopcreG/W0pJjQlnR0nlUW/ho6KMVLaZSYyIZWjLAZ6uPMazqVTFYxPCeWFdCe02JzLxl7SxAAAgAElEQVSZnIcuOYPlK1aysa7neXnmmmE88n42T1w9mde/3MCFZ01izpcLcUrkXDZ2MC3FhayvbeOvFw/mkY8PcG+6le86vDhQ2sC5kXq+Lu+JvJoQEclDUxJ5au4KCtzqpzfFBQdwdbSKRzYfz19MIYLA6UzgtBIIOl0Alu5Gxl94LY7KbazetAsfgx9eGiVmmwNrZyMKpZ52iw0NTlw6b7TGEB6+bjrPvfoxbS0NtHf1Wjoe1+sS/IKC0SrlNNdX0OVQcdX1N1Cx6mtW5lfhG53G7RdP4P1PvqWlqcEzGUhkCoICAzyuketqa7GfwG2zt0aF3Ww56RUEo78/zY09BpgKpRqtUoZF7U2ApueNtqO5iXazjeCQYM+SrMtpo7Kq9n8SCAEhEajlYOpsp6mlDRQqT5sU0p4psrW5AZVaTWPvioGXlx8mUysOx9Fn6SRyJSGBATjtFurqG9F46ZF1deJepA4LDaW9tRmT1IsQX7Wnnub2Nhra2pFIlISF+lFZ1RMK+9jkdiOdGh7MjIHhPPn9Vo9b6bsuOJNvFi2muKvnRz7EL4BRAQq+yu/ZonCvOOjkMjpsdlLCAmlqaqTO7OT8kUMwKF3kbtvBti4I9/PynAhwL0+70+DYSOqam6hq7SLMW4dOqSAzSMlXe+s9++eZ0aGMigtizfY8ulQ+JPgqPdfpdDrMZrOHid7oT0NtBetKmkgO8SO/pqnvZWuJhLRgA7k1zejUSs4bkoy3XOJxfd1YW8sX+3p4zJ4xlvkremwU3Gn6mAw+XLTl0OcJmXGsziniwmlnsXjNCmYODOXjLSW4kJAZ5k+Al8qT19vHH3NbI1akRAbo+WL9XkwyKVqFgoERwRjVTtbmV9N81GqHnNEhajbU9H0sMDEqiNKyOmxSGUOjghkUEYBcqcDtoTs/fy9rayykB+rYXt2OTq3iomEpqCUuTx+WV9WwoKCW9ABvj5HokaNJptQxyNfOtvqeZ/WCFD++zmvi8cvH8PI3O5kareGzvEYPV2+FjPbeOt8wOYnvsiuQSF2e4GQmkwW5Qo7N4WJoVCANDU0UddmZkpFEiFbCyi27yTed5LJen6NT/Kcg0L8JnFYCYUDWTO647kwaynbywpz3aTvhZH+409wT+8NXTfBsMbhTTPIM7r9z+lG9uvrLd5i77LDduXdUEvfdeQdF677iP/NWeaza3eUc3GLoT0Pix1YQfmpbZEoNj//tUfz9jYcutXXWcOvdf/+pRZ1UfqlExuCoACrqmqgz9Z5W8NZS337YSFIhkyOTOjH3ETDi4EpAXzfriTTRs1LgTkfm1SnlOB3OQ2/SB69XKRTY7TaPRf7PTcfWza3J3PEvHC4XB7WmO3aH/YgYGe4wI0d8PFQFL42GTtPRx2p/qO3uC91CSiaVeNr5SzgLd5fvdB0Nyt3Gg//vbqP7c1+6uq+6G3RKWnqPtPbF3n0y97jjt57jr1IcTudRQs0trE9FH/7cMSCuFwR+SwKnlUD4LUGKewsCgoAgIAgIAqcTASEQTqfeFG0RBAQBQUAQEAROEQEhEE4RSFGMICAICAKCgCBwOhEQAuFn9GZCgoWX7uhg3hc+vL1G8TNKEpcKAoKAICAICAK/LwKnvUAYkJLCdF0TL22tO+Xk/zSjg/wcNTtLhTg45XBFgYKAICAICAK/KYF+LRBS4xO5bkgESqmLFxesJSouFa/2GlZXd3HjyGiWlpq464xMVBIHnWYHn8z/HkdUJiN0ncTED6Cyopjnlu/jzgumkuCrorGxnucXZ9NkgcunjCTY2cYLK/eesIOuntXOhi1aCqp6jheKJAgIAoKAICAInC4E+q1AUGu9eOuKcby9YAsKYxBRkk4+zqvhpgmZWF0yNuTsIbexi5T0dKap6w+tIEwdMYwRXu08v/IAM0ZlsjR7J8iVBHhpmZSezKrduz1R4OLDQwmXdbO6rK9oiC7GjzJx1jArcz7yprLZHdlQJEFAEBAEBAFB4PQh0G8Fgr+vkZdmDOSFlXlIkNDe3k5Jm5lbzxxFSpCWv89dSq2FPgVCQHs+n+S19zjM0el57JwhzM/eR2xEOJvz8sn70XjwLrx0Tm79UydfLPCiqEZ2+owI0RJBQBAQBAQBQQDotwLBHdDlhqlZmFtbaOg2s6+8jvDoOOJk7WxsdDE9Ss8b6/dhCAzmjlExbCxtZM/+AhIHDuOgQHCPAD9fI3dNSmFbcS0Z4UF8sWWXRyBcPHEUcZIWnl55fFyGgyPnugvbWbdFy4EKscUgniZBQBAQBASB04tA/xUIbs92Eglqhczj6s5isyOXy3E47B4PaCq5DIu9x/+bSiH3eKCz2mwglSFxOTjSqZ77e7fHNofDid3p9Hhuk8tkyHBh6cstXe8YuGJmB1u2aYRAOL2eCdEaQUAQEAQEgX69gvA76L74OCuXjrWwar2WDYVim+F30CWiCoKAICAICAKniEC/XkE4RQx+RjHuwDI9zvrdwW9EEgQEAUFAEBAEThcC/VYgGAwGWlqODil8bKd4eXlhsViwubcWRBIEBAFBQBAQBASBkyYgBMJJozp1GeN81ZS1mbG7YERyDLn7SjgYMDcpMozq8ipPGGT3psV150zh+wXLqT4mOqA7it+wICMbq3vCPh+b3DYU0V4aCtv6DsXrpVJ4QlfXdxwd4c9djsHbgE93C6X2w6W6IyLKcWHqDeM8NiGGTQUlSGRKJvjLWFZ3fDmRweGkeZtYeKCpjxpKuHJEAt9sOUCnyx2lUIbd9UvEDDx1/SZKEgQEAUHgj0RACIRfoLfTIoMprK7D7FYAQJi/Ae/uDuokCqINXhi8vRlpdLGyxsa0WB+WFTXjo4aledW41FrGhmpZ1eDkzEAXhtgMFm7axY0xZv65x+zZ0kgLC8ag0xKjc5Hb0Im3VsnO/VW4PTYoZXIyI/xwOFyMTQhhXUG1pw5qlYqc4kq6nOClVmOzWPnTuIGs27CLmWcM4ctVWyk1QZivHq3USVJ0EHKzhfzqFiZH+/BlcRsOm5VGkx2FQs2t42J5fXU+aqmS2Wlqnt/Z4y9CIpEyM9mblSXdIJGSEeHP7vJ6wvyNuFqbyOuwcffMCazelENll4URkT5kV7SSFR7Fgrz9OH+B/hBFCgKCgCAgCPx0AkIg/HRmP3yFXMtDkwfwwpIdmHtzXjg0lZW5B2g12QjWKKg22fDVqGg1WTw5piSEsqaoBo1KSbhWCQo5ZpuUAT5OCk0yNAolo5SNvF5o9cSuPzcmkm+LSntKl7jfxBP5aNN+z8fxmZl01uazvfbg3UGj1jA71Zs3d9ZhdYJUruLPSUo+PWBCJldyRaoPb22r8VwfYjRw5dBwXlqWi1qiZPZ5Wcxft4eIQD9qG1vYV99KRnomCY3F1MemkmEpRWXt5MXd7jUPiAkNYZaxmxdy2w5x0iqUhMtlFJtMuBcl7rt0Op3V1QS6mllX3s26iiYmJyXR2lHDxsr2U90jojxBQBAQBASB/4GAEAj/A7QfumTaiKEoa/fzXWnPRKdUqbl+ZCJvrdmNzQV/njyKBZu2c/20MXy4fCsXx0jYa1KytqgBp0TBZQletEg1VLbb0SkVjA1VsrK8C723ju2erQgpFyTFsbq8slcgwMxBMby5Ns/zOdxoJFovx+KCzHBfcipbUam1OLubj5p8kyJCaW+qR+8bgDcmtlX3rAD4e3txRoQ/Tq2aDfllTBqWgcnURH5ZB202C1Ut3dyQFU92eS1TBsXxxtI93DzIlyV1Usqr62mw9uxLhHipMTtdhHhrGRIdwua8AxS093z314vOYNnmHLyldoKNRvbXtxLoo2N3ZT217cdvVZziLhLFCQKCgCAgCJwEASEQTgLSyWZRqTT889yB3PXlZg7upo/MGk5gWz7zCnreqC+dNJo9eXlcMHoQc5bu4PIoK3vNOtYVN2B3Snj8wrHMX72XBqmSc5P88bJaqXVJCPfX8s+FO3DIpJwbfeIVBPc9rp6Qzrp1uYwdFs0Hm0pICTGQV3O0QadGpWZisJ6E9ATeW7CRjl4bB51aRajBSJq3nGiDnGZdIHqNhKU7S7DYLCgdNtpNFgYlZRLfvJ+3q23ckqzgo3IFV0c7eD7n8MoBSg13jozjlTW5yBUqRqqtrOlwce+sSTz39UoPj0EBKnKbLExKjGDF/gqPXYZIgoAgIAgIAr89ASEQ6HGKlBZqJK+iAWtvn0QG+qNzmtjX2NX7pi5lcGQAeZX1mN2emPpIGbGRxLjamVfS8zauUml56twMnvhqM229l1w6cSQrt+ZwzZQRvLVi5zECAcYkhGNQKSjtdBCtd2LbU0P3wAQuT5Bz45e5yGRSLs9IJqeutrdeEiYPCOGlFXs8nyVSKVcNjmLZ7lLOGBrH97sqkclktLV3YTqi2kqFgmtGpaGnm9c37Ker1yAxJcTI+CA1+0xyurrMJMb4E6ZxMnd7DTa7jfo2E05cTEiOZV9ZJa02qUcguLcYVO4VE6Xb+FHWY0sgVXJxVgSfZxd5bBOkEpfHqPH/zhnFf5dsQKZS0NRlY1BYAB0dbawo7dvg8rd/TEQNBAFBQBD44xEQAsGz727kqUsn8/5/vmCdeytdIuOBCyfhZW7hb99t8+ybBxoDeOWSkdz/6XJKW7r7HCkzR2Swbncejd09s21mfDQZ1kY+Kj98kuDSCcP5bPUW7jxvIq8vWk+oykl0iJG1hQ2kxUaTpbIwN78GY1AYA/0l2PfU0DUwnsvj5dz01V6PQHCvIMw7wgbhipGJfLSxxwZBr9GSFOCFXKPnnBg5f19a4HHU4NYGDreLSPfpCJmc2WPT+W7LHlS+/lyXFc2ri7OpszlRKFTMCJWS3a0FiZPmbjvjdRLsAf5kHyihyepicGICXs3lrG20oFKoDwmEI6G4vUJI5CquHhHFe+sPHPpKr1Jwx/njefLz5Z5YGJkxYaRqVSCxMHdvFfbeOv7xHkXRYkFAEBAEfl8EhEDoddls1Klo6TQfsqJ3W/rLsdNqPnjWT4K/l5qWLpPHlfOxydvLwLVZoby6eq9HULjTpSPTWbpzH82HyoCJ6YnklFQxfUAQc7cVE270JSNIx6J9VUdZ8EcHhxIk7aCmugN1WDBXxsl5eG2lZ1LNCg2iuPVwlMmMMAMrD/QYGaYFGymob8bqkjAgLJBYoxdKqQS71cTy/TX46jQYVTJKmtvp7t0HCfUzMi42kI25RdTaJJwZ6UO9S45C4qDd7KS4oRmFRscZvk4WNTjQy11UdvQYWMplCiYESVle3fP5YDJqVYxNSUTWWcvX+Q1HfXfWkARW7y4m1t/gCbJV3mVlQFgQAwwqVu8rp1Wcdvx9/UqI2ggCgsAfkoAQCH/IbheNFgQEAUFAEBAEfphAvxUIWq2W7u6+l/oPNlmlUmG323H0OvcRg0EQEAQEAUFAEBAETo5AvxUIJ9c8kUsQEAQEAUFAEBAE/hcCQiD8L9TENYKAICAICAKCwGlOoF8LhHNvaefWWAfn3mPAKs7Pn+ZDVTRPEBAEBAFB4Nck0K8Fgvv43l03tVK9wMCnFb8mNnEvQUAQEAQEAUHg9CbQ7wXCLbNbMa335b1898l7kQQBQUAQEAQEAUHgVBDo9wIha6iZxy7o5m/ve7Ntv+JUMBFlCAKCgCAgCAgCf3gC/V4gXHl5G+G1ep5eIfN4CxRJEBAEBAFBQBAQBH4+gX4vEG69vpWO1QY+dHsUFkkQEAQEAUFAEBAETgmBfi0QVBon/3ddG0XzDXxRfkp4iEIEAUFAEBAEBAFBAOjXAiFxqJmxgU4+XqDl6EgAom8FAUFAEBAEBAFB4OcQ+NUFgk6n87hIdrlObDHg5eWF1Wr1/BFJEBAEBAFBQBAQBH59Ar+6QJBIJD8oDtwITibPr49K3FEQEAQEAUFAEPjjEPjVBcIfB61oqSAgCAgCgoAg0H8J/CYCIXDqbcSGysn+7xycdnv/pSdqLggIAoKAICAInKYEfhOB4GaZNPMRure9SEVF12mKVjRLEBAEBAFBQBDovwR+M4EQN/1eJOWvUbhXCIT+O3xEzQUBQUAQEAROVwK/mUAIHnU58VE2dixcTndb8+nKV7RLEBAEBAFBQBDolwR+M4EQMPQiUgf5sHPeItrqqvolPFFpQUAQEAQEAUHgdCXwmwmEY7cYBsbFcM/YcG7/YB0tpytt0S5BQBAQBAQBQaCfEPgNBcJfofTfFO3rsUEIDwrm+fNSuPGdlbSJqEv9ZPiIagoCgoAgIAicrgR+E4FgGP4nBo4awqZ/P4TF6naSLOP2qZks3LyLwg5x7PF0HWyiXYKAICAICAL9h8BvIhDkOiNSbFi7OvoPKVFTQUAQEAQEAUHgD0TgNxEIfyC+oqmCgCAgCAgCgkC/JCAEQr/stpOrtEQCx8bEUsnl6JRymrvNhwrRKNXEahzsbbMdV7AUcAJpYUEcqK5DptFg6jYdl89XLqPL7sAplZGil7Knj7JOrtYilyAgCAgCgsDvgcBvIhC8dXp0CicGvY6y6nq6HH2hkJE6dDjNJXuoaTzZrQgJBoM3LS1tP4utWqkk1EtOu01Ot6WbbuvJ2UUE+xno6OomRKekuKnDM7Eem6QqHelJsezZk4vzBBEtowN8qW0zEaCWUtF+/GR8sEyJREpyiC/51c2H7qXTaFFgo9Mu4byYIPI7upkS7UdOfSdSlx2TS4HU5WBTaS16pQK3iDD4+DErDt7d0YS3Vo3VYqa+u0csjE+Ooai6jlEDB7Jm117OTQllwa4CarodRPl7kx4aiqnbRaSyke8qnAz0dTI0UMIz21t/Vh+IiwUBQUAQEAR+WwK/sECw8hxmRqOjEtmhlg5JTiPd28booam88N7X5Hf3LRAmzbiYyp0rOVBWd1KU5AoNN113Ga++8e5J5T9RpsjAAC5J8SW3TUdJVQn59ScnOP40cSSbD5RybVowTy7Zidv88jiBoDEwffwglixbhd3R93GNm88aybfbSzkrUsc7WwtP2Jbg4DDuzdJz7/f5hwTC9WdPInvTevZ2wNQgPds77VwUrWFRtY1Ug5LNNZ0E+WrJLa8jITiA1AAdarWOzAAJmyu6CfXTM3f9bkwSGbFGPXK5jJToCOIMPmzav5+mTjM+OhXZxQ1kRgaQGh6K2SwhyaeDdQUWQnXtBCrtPLfrZEXdz+oqcbEgIAgIAoLAL0TgFxUIo7HxDia0v1DlRbGCgCAgCAgCgoAg8MsQcC/uv42Sp1EfdQNJZGTkUa+34T5hmG0WGrsbT1iTiIgIzGYzDQ0NnjwSXEzBTioOJD9Uf0Ug44aFsHZDGWNGxbJ+4w5P7rCYiehc+Rworem5WiJl1MixbNm4hr52JaRSBaOGD2b9pi2e7DKZirGjRrB240bGjR7B2rUbGTJ6DFWb1lDt1DDlrAkU7C0jNlTCqk17CY9PRtreSHl9T/1/bkpLHk1R8VacUm+mjUtm/pJ1niKHj5vA9g1rkSi1nH/GWL6ctwjURsalhbN22+6Tuq1MKicr2Jst1YfdVGfFhLCzpMbDRiqVEeulotHmIkjloqLVQnp8FIFKK1sq26lv7/TcR61UkeKroNSqwNxtYlSUL6sLalGrlGhw0mCxo1QoGRVpYG1R3VHbJj4+fug6mmhTGgiTtVBokjM9LYbupkpWVZ14a+SkGigyCQKCgCAgCPymBNzrwF+jpBm3NdrhdEoEwk9p2W333sfq3TVkqCr47/xVPRPplMcIcs5n/srtIJUz8owLSPNu4+3PF/dZtFyp5d7br+fp5//V871UzpW33YMzbwWB8am8+Pp/ufmB+9jy9JNsl/nz/JxH+e7TjVx/9Xh27StGKpWw6vNPyS4p77N8fy8NLV0mTrAzcNw1F8+8h+UrXseljea5v57P7Lv+4clz+yOP8dY/n0Cm8+PDN15k+9Yc7EioL9rGR1+v5GT8RCXHxhEp72DJgXpPmQqFgtnD4nh9Q77ns1yhZHqoL6srG/D20TMyMpANewtRaPR4924xBPvomJwez57CIlpsCs6O1PHhzkrcU7tRpyE12Bd3ZYwGf4YY7Kwtb8fqcJEY6s2nmwqJNWhotDpQyBVkxEWxv7AIP18fqmsaKDMdb/D4U8aDyCsICAKCgCDw+yTwqwuEsy6+movOmcazd19HfkM3o8edy6gx56Jz7Wf1wnnUKqN57K4rWbp4GR2dHSxd8C2thw3xPRQlMiV3/PU+7LXFFBcXsXDNZgKTRvLqo3/h7ddfZNn6vdz8wMMoC3bTERRPoKOYOZ9u4bGnH2Tvpg04JBJWLltIRfXxqyQqrZ6XLhjBP+ato7L9mBufoA8v//PjSKy78AlPpH7b96ws6mTSqOGMnjyJ7WvXsHr5V1x818tIK3dS2Wyisnw/69b3rH78UJLIFDx/+SSe/WQp9fYeOREdFEqKARbmVx8SCG4bhMWVTfhoVaSFBlHX3k6r2eGxQShvaMNHKSXM3weLqQsfjRaXQscAvYu5OSW023rKda9E3DgumS82H2BaSjjzdhTTs/bQkwJ1KqxOF6lxiZQWHcAml9HSZcbmPBmZ82MtFd8LAoKAICAI/N4I/OoCQeNjJD7Elz35xR4WUTED8NErPf/ubKiixa4gIiTQ89nptFOYn4e5j8MFam8jCVHhWLta2V9cjjEsnX88dj1P3fcAFU1Wbn7gAeq//5a95g7yC0o8b+s6byMxUWGYO1spKavA0dfxAyA2wJfKplasJ/j+2E689JKHqChfTl1NFcVllaj1BmKjIpD27reUFuym3aogMTEJldRBUWEB3ZYfPzGREB3NxcEWntrcs/UikUr5v5lT+Hbxcoq7eionk8sZH+5PeefRS/06tYoum5XCup5TBqlRUQwxOPkip8KzcjAgPJQIpYM1ZY34axREBwfS0ljPvlYzKrWWq0Yl01ZVwcLiZgaEGFHJe5aefHx86WxrdS9dkBKo5f31+zk5GfV7G/qiPoKAICAICAI/ROBXFwg/qTskUs6/7BqmDM88fJm1jdvuefioYoaMu4orz0vko3deY0d+FS4Uh7cYftIN/7fMB7cYmtt74k2cqqTXqMFipqNXqEgkEkJ9tFS3dh21PSGTSHD0cZTSLVAOvuAfFCvHvvDLpBJ0chkWh9Pz52CSS6V4ySW0WXusQMQ6wanqVVGOICAICAL9g8DvWyD0D4ailoKAICAICAKCwGlHQAiE065LRYMEAUFAEBAEBIGfT0AIhJ/P8JSV4KPV4KM67GjqYMHeajm5NUd7LPT188PR1sSRQTGlEhnx/loKGw57d4z1D6aro446S88mQaRBT1VLh+eIZEBQKNGmWvKtCjrMPe6ejFoVKpkErUZLs9mJwWXCy+jN3rKGPo+cnrLGi4IEAUFAEBAEflcEflGBEBkcRpDGTmxIIGu276HWPQdJ5IyfPoOYQC3r5n9EUbOU6ZfNpiL7O3ILazBGpnD+5OE0VhXx3dK1/zMsX703E+OMtFpkNNSVktvcp5/n48oPmPk4Y0amUp39JVu+nIs0MIlptz+JVt7JV/df8xPrI+Gs4QPYsW0ftb2313vpifNRkFN12K/BwUJHJsezp7iM+MgI/Gor2G6TYnc5mZkZwX+2FBPhZyAjSO/JHhYVi6W6hGaHlGgfBXM2HPB4pDhj8EAO5OVQ2ms5ODAiHktHOU6TlQMWGJkUS0tzPfkNnUTEJDBF1kw+GkpKK6m1w5AII+1dXQyITSWvsYuk1iIGTMjkpW+3CTuEn9j7IrsgIAgIAv2ZwC8qEAYPSCPdx8aYoWm8+P5X7OuCQePP5qKhej5esIeGsr00dCuYNfsvFK37hl37K1BqvYkOD+W8mdN5/tmXPGy1Xilcd2Ekcz7o2y9CXx0Q7B/IAxNi2WdWUb1rPfMrTk4gBF/5OmG1n7N9aY+PBneSePkz65EX+Oq+q35SXwcY/XhgVAj3fJ/b43hIIuH6syaRs3UjW+uPdzA0OjWRDXsPcN6gJEzN9USEh7N+6x4GDYzis61lHidUAV5qj3+G5MRkTKX7qHbKkTltVHb0rADIpRLC9FriAvSUNneREBJFd0cVZe1mHMgwdZsZGelLfICeQpeB6M46yh1KpBIz8/JqyAzzI1inxGAIYGdNB2MNTtRBRuYs3fmT2i4yCwKCgCAgCPRvAr+oQPA3GAlRuoiICmTz9v2kTr2AUUMz8TLlk1vSxZKvvmXGTXcyNiuNue/9i+Ub9/RMcgolN99xC688/xLR487l0Ssvwlsvp7W1k/98+BZbdlVw1313EaRX8fV7r7HpQC1XXHAZ+vgYUgLlPP/4vZS3qxgf7Uu9XUl7TRlFXeCl1XL39Cw+nreWohOcMjyVAmFqZhJ1hSXs7rR62uXrY+DJSZHc/s2uPgM8uQXC7uJKDHI7Y4cPpa4kn+VFTVwyNIrPt5WTHh5EpLfK8yYfFhqJpb6cJruE2LBA1mdvx6n2IT42hj15uzAER9NSX4VaG0Z7cyEl3RDiH8QlcXI+KrBw9xBvstv1+DbUUmixUVLTTLPai4lRRk9wqdjgQNo72lCqNB7/BzpXN+9tKebHD2f27wdC1F4QEAQEAUGg9+X4VLhaPlmYsckZjBk/EZ+O9azLtbJ/1x7PmfyjPCkeIxDcZeu8Mrjh0nBeemeh51YzbnsGTckydpa2cdmM8Tz1/Ls8/MCjLPz0eTpCRpApr+Ljpcc7InK7Ej47PZJVOwtpPcG5vVMnEKRcNzaVjzfmYul1yXhGZhIdJYVsaut7NcMtEHILinHbIqT769H76rGYuwnwlvPWxhLk4Jmg06LCGOavYFNZA0qdHkdXF7m9kTAHpw2kvWQXDWjxUUkxaIMPCQQ3u2iDN1q1gomhLj4plnJJkj9F3S6aygrY0eZEp5ATG+iPn8rGhrJWRkcFUNvZTU1zB+12l9hmONnBLvIJAoKAINDPCfyiKwh9sRl/9kX4t3zDVxsPv4v+VIFw20C1lz0AABy9SURBVMufYN+ziOrGDmTODhYs2849N13LUy+/iEQmRy5xYbOf3JbCsXU8VQIhLCiCyeFSPtpedugW143N4KP1u+l1XngcHrdA2JJXgHsaVshkGLRqWs1WZmaG8f/tnXd8XNWZhp/pRTOjGWmk0ahXq9iWbEtG7rbAuNIxmICzEEgDwoaNkyWUZGNKQt0ASTbUBFOMDcS0EPfem4xkybZkyZLVe9dI0/c3I7lhCUsQO8Gc+588557znefe63nn3O+837K95f72k0elMk3fw9O7T7AwK5GNeWU0Ol2nbKFPCgTfikm0TkmMJY7K2iL/CsJIawgTRkSwrqCOqQGthMTHsLeql+a2FhqbuzCYg5gVb6a1txe7wkCoXseRExXMn5BGaUkpb+0rwyEMEb7hj7wIXxAQBASBoRH4lwuEMZnTmDh1IQZvHhtXr+ZEj5KsUSnMmDmD9atWsWfHBnq9YSxe/B/k7vucwkP5GJJmMCNZQ+mJWrpaa9mXf+KUQPiyaeu0Afz6mst46f1NHB9EPwxFIPhyC564djzPLVtN0QC1nn22xQ/cmMPf/rGR4n7HwzBrNDPD4O2DA9d/8H/5j0ymqrYGk0ZNjFlPrEHFR4VVzEqz8Nr2ElJDjNidDsZFBlHQ2EW7w8sVCaGUt3RR1tiMOsDACLOB5o52/2cahZKc1EjW5ZXQZndQ2+3hobnp7DzehNYNkxMCePizAuanhWKXB7Iur5jkqGBMclAYwkkxB7Hq4EG+e8UYHn//qyeMDu1WFK0EAUFAEBAE/p0IXHSBoFCqkHrt2Ptr/GgDDCgVfTa+zl4bDo+UAJ+DoAS8Xi9dne1+S2RtgA6lXIatx4bD6Uan0+FzAbT39tBrdxKg1dBts30pW58TYYBKQU+vY9Ate0MRCGqNlhcWTmLJm+upGcCOOTw0jO+nKnh0S2VfPBIpjy6ay7sf/IMjPYP/BJ+YnEBuadmpOcgkUr9D4sx4E58V99WNkMvl3D4ugY8PltDicvtrKIyyGjlc20K0UUNZsw2ZXIZVH0CSNcjPTCqTUlBQSp1Eyc9mpPLWniM02VykRFkJCVCicPew6kitP/cgzWLA7rDj1gYzKzWapZv3sSArlnd2l/473bciFkFAEBAEBIELTOCiC4QLPJ+v3X3QnMWkRcipOriB8tz9SHQW0q68kYj4KNY+96C//7lj06iuKie/cWBBYtBqUDt6TxVYkkqljAjRc7S+/WvHJzoQBAQBQUAQEAQuBgEhEL5IWSpHJpPi9bjxuH3vISTIFArfcgZulyhtfDFuSjGGICAICAKCwL+egCQpKemsNe9wfTh2Vy/NPeca+ZwMNyIiArvdTlPTueWS//VTEhFc6gR8r4oWLryZ5ctXXOpTFfMTBAQBQeBfRkCsIPzL0P97DBygkBEdGoKtro5OvYWro6Usze8rL33mEWrQ4HA4aeuvvR2sU9Ntd9LrPJntKeHnN4zn1ZV78b1IkctkyNxuTuZwTk+N4vNjNbQPsLskOCgEe0sjXWcM6BMBiXIv6SOj+Ci/mnCDkh/OzeL3K7bT6pVw26Jbefutd/49IIooBAFBQBC4BAlcUIFgNYcSrHITFRrMvsJimvr8gi7aoTWGMm1SNnKvg53bt9HpljNz5nR2f/IprUBYTCLjRqbQ2nCcXfsP++NSGy2Y5L3UNg09X8BiMjIi0EuzU0tpfT121wCZiwPMOuWq76NUyqjL30ZDyWF0ieNJSM9Eqaxh3/JPhsXJ94WcER7IgcrTKz+p0VYcDbWU9tsun+xQLpMzPyWaxvZ2JqZHsXRrCTekh1Fvg31FFdT0OAjWadHIfEmdchraugmzhNDZ2UVVW6e/G5lMwfcui+GDQzUEq30ODVLumpvFu5vyaGlqocbu5QezLmPLxj0UO73MTI+jqaUTvVLGrrJ6/1bPQJ2OMZZAEgPl7CxvJsUSSGlTB/mNfWPMnZjFSFkTayt6UXs9XBuj5OHtVVgD1VxxzY1CIAzrDhGNBQFBQBAYHoELKhDGpYwk3eBk8mWjeO71lRw91114eNEOs/XMqxdD41q2HSzC6XQilWuYPHE8u7ZswadVfDsARoy5joWXa1ny7Fv+3tNuf4DJbTt59eNtQx5tdHwcV0U4OOGysOrzAlp7hqaEMu94kNy3nvHnO/hyHHxWzFK5iuwf386uP7w85PF9DUODg5kVpuHtwqr+L3A5P79yDP+7ej8DZU5MSIhjhFGGxaJjR0EN4SGB4HLSYnext6SKbrd/I4k/B8NkNHHtqChsvoJOLgdrjlbS2uNEKgGVQo7L7cHjkfDwLdN4YsVmvB4vapWCXoebpJRURjtaCY0No7yiDqXBiKS6hA/rHJgtEWSZFdyYlcDj722hxe7hithgausbKZXrSTfruTwzgXW5xwmPjKKuopy02HBKG1uJHjOJV8QKwrDuEdFYEBAEBIHhELigAiE0yEy4ykNUrIVde4/Q5JZz1Y0LMaq8dDbX8PGazdywYAEydSBGnYqKfWs52CBlwfWz6O7oRd5TzbK/rSJl6g2MjTHQ1W1j68bP6JYGc8PcHJxOBwW7d5JfdtqMyDd5uVzDlGlXMHnSPDobcymrrGTL5r1ccf1VjIq38spjT1PfTykh/ToWzdL7BUJ8yiiuufNeonorOHDkBLs3LsNrnszlE5JxeZSU5G5iR14TP1l8B7aGGhRKDR+sWI5EriQ5wEGn1EBxbSO9LjdajZ57p8Tz4sb8U06KX7wwPoFwYOmTfeKg/5DIFEy4585hCgQJt+RM5FBeLoUtfcsFYUEmLo8MYFl+n2A4Z+zoCFpam5g9MZGX1haSEmXGY++hqqXHvwU00WwkMymairJKkHholqhp7OgkPkjN8YZ2dAEGvjtpBE99tJcFU9PZtj+fRddO47F3+2pYjIy0YGvpYlRSKN2VLVhHWDhS3UqiScHKgloMagUGtYqJ8RFU1DQQGWZGjpN9FS14JW6Ot9rJjghlapqB3CoXIc5WnFVNBGQksXRniXjFMJynXLQVBAQBQeArELigAuGL8QSNyuGOiRaef22F37LX53Pw0188wJb3X6FBksZTP8tkXZGMkvf/yK4GuO+Fpez68yPMX/wUe//yG1btOuw/J2nSHG7ICObpl5b5/0YqY2rOlSRGWumqK+P9NZv9qwOz5z9IfdFb5JVW4nZ7kKh1LPnNA7z+y19xUlKcKRB88Y668yGmtO3g5Q+3IlEF8Owzj/Hyg4spdkfxu4dv4vEly3j8hft47MEljM65DtOujXxY3zAAegljI03kVbUMWHfBd8I/SyAYdEYenT2C+/+291QcM7KyaK08TJ7vvcEAR3Z8LBEaL6NHhLA5vxpriAmv005Dl4u8ilo6XRLuyQji5cOt9Np6yYw1U9vSQVyQjmMN7TT0eHnypqn88r0taNU6TO5u7lww45RA8M9v1Gg62ltpra1DYzIwOsKMxOtibX4ZTq+XuZkjaayp5dpJo3hrax62bjeLpo/iSHk5+yubqe12c32alY8P1xCklPOf00MpqnHydmGjEAhf4WEXpwgCgoAgMBwCF1UgxE2Yw+x4OS8t+/upGP/z/p/w4vN/7P9bwg9/+lM+e/V5qm1SFj3+KmXLHyOv2s6MnGmMSk5i1YdvcuhYPdlTp5ORlkJ71SHe/XQz1ogoAnVaXLZOSiqq/f3Nnv8wdUeXklfa/ytaFcCjS375pQJh5PceYmr7Dl5auQW51sDzz/6W3K2b6XBJsHfXs259Cb9aciu/+82z9NdgGpR3lDGAqrbuQesXDEUg+DwUIgKUVHZ+IZHgjFGvnzyW5qJDbG3qs6/WaPT8z9yRPPrhbmyD+DJdnpKI1t1F6ogw/rAmn7Fx0Vyms/PCwb4ExcxYK167neAgI972RtCb2V1cRkakmWMNLTT0ckog+NrHBBv5ydxx/OLtjf7zLcHB3J2uYVW1hMo2B6FKGeNjTKzML0Npt+GWawjVylCrNX4zJ98KUk1LF2qlnBM1DdhkSiKCghlrUWIKi+aTTTtIyZyEprGcT4qrhEAYzlMu2goCgoAg8BUIXFSBgCSQp//4FMdy96Fw2/m/N97mbIEAY3NuYvEt2ew52kJmvJx773+RHz34fdqrW4kdmc2ad56hXTGaSRlByDVm5G0FvPDmacFxJoOzBILezJ0Lb2TKlGw+37CR99eswmjNYO7smaTFqlj3yaesWL2ZyLFzWfKjeezcfZCtq99gxDWPMDtRRl5RNfaeDt5etpUnfnt+gRBiDuX316Tzw7c2YnMOnLQ4FIEQabHw5LxUFv1184CXV6FQ8sNJCfxpy5FTn8+fPB7d8YOsqB249qJSqeHuy8J5fVcli65I4s1tFdyebuSTSgmzTT38pbCZ++ZNZP/BfA402LhrQgp7C45woN3DpLgYiqpPEBoSSrhKilEh5ZPiGrxSOeMtSnbV9K1Y6ALN3B7SRn6PmVtmJPPuthL2VFQTojOxeJKGxWtrmJgYQ4jczrqjdWSmJjIzRM6LO47ScoYN9h3TxzE2zMDLG/aQfdlkPNUlvJl/QgiEr/Cwi1MEAUFAEBgOgYsrEAB9YDBWi5nO1kZqG1uwhFmorzuZEeALXUpETBwBCqgoO06vW0p0fCwahYzernZOVNej1ZuJsAbhdTupqqg4Y6vd2VMPNIbj7GnCZneAQk1yfIy/gdfroaqyApXWTKhZ5/83p62D45W+X88SwmPi0KsV1FUW0W6TER0bh1oBtdUVdNq8REaaqan2WRN/GWoJkUYt1V9jBUEmlZEeHcbc5FB+u+bggIPFWK1kGOCTor5f/r6KlfdOSeLFTYWD2kmf6kgi5+axERxv6ODzqlZcSJiWEkNxeRV1/dsZTVoNJoWbqm4P2fGR6LwO1h6rITLYSHVLG1q1mtHhwQSqlcjlUqRSOFhaiU2uY6K2l4Iu6LD1EhQUjE4lQ+F2UVjbhAMZFoMWvVJOoE5Dc3MrxW2ns1h9/UUHGujp7cImU5EarKe0rg5jaASjdC5U6TN4XSQpDudZF20FAUFAEBgWgYsuEIYV3SXeOOsHvyNpQg75K56mcO1Kwq78ETm33EnH0df47JlXUSpU5CRb2H2kgkEqRF/ihAaens8jQfggfCsvvZi0ICAIXEQCgzgp2mnuaR40jMjISHp7e4WT4kW8UGKo0wSEk6K4GwQBQUAQuPAExArChWcsRhAEBAFBQBAQBL5xBIRA+MZdsosXsFUlodbel2ihUytRud0091sr+xwW7U43rjMSMS7PiGZnXgW+/RZSiQSJr8BVf7gJFiPVje30DpC4EaDV4bR1+c2rzjxCZBAeZuRQTTsGtYxJqdFsPnh80J0ZF4+MGEkQEAQEgUufwAUVCL4telK/La8Up9N1lh+AXK7ANUh1RIlURkCAlq7OPstdhVKFTCrBae/F7TMclMpQKuR4vW4cjoEz9X3nSSRSlEqlLy0Rh8OBFwlBQYG0Nrf6tx5KZTIUcjkej9sfn/+QSJFKvHi+PAPxrDvD92Uol4LHK8HlGZrNsq+DmCnXEZ6USsXeNVQX5hKYNo207Ml0VW/l0Nodw777FDIJTh+g/kPuq0rp9pybrCiRMic1Cpl/vqCQSHD65yshOTqUNzftp9Or4oGp0fx20zHcHg8pUVZ6O7sob+v0s1Mq1fzP5Uk8sqbA76joSy59eOE0frtiCx4fA6mcp26+jGeX7/SbUs3KSEDj8RCpV/LK7mL/eL5XBZHmYH6QEcKru8pINknZXNNzSnT8bMGVeGuO8U5hF2OCvNwwPpIfv5fnH28Yl2fYHMUJgoAgIAgIAnBBBUJWWjqjAh1MzRzJc3/9G4e7TyP/0a338cqyPwzoEaCxJLIwJ5U3ln/qPyFz2hyumnsle/+ymFXHINASxdxZ1zMlpZufPPz6oNdx7JSFTEwN4ERlFbt2bqfbq2bRrTfx0csv48uwsEQncOXMBSQE1ZyyWo6ddRvjHIdZuXngXQMDDZaRGM91US5KHaF8lps/dKvl7z3MsbUr6G1vwNHVgSwgCF1QCKOvn8H2F4dntWwyGFgwIphX95f5Q5RKpNx9ZRart+yl9GTFpDOCP/klq1ZqWZSk5rXCs6t3xoWZSQiQU9fjoKK5gwhLCFqpr+S1ixMNbbQ6XIQZA3B5JRgVMv8X9l3zxvPuxs9paW6hySXB6HPSVMqQ9HaTOiKCgtIapCoNktZGDna6CLdGMNXi8zvQszr3GCqtnhSDlF3H62iSqYg3h3B9Rgi7jjfiVAQS1FZFo8oAuNhVXDughbR4qAUBQUAQEAT+OQQuqEBIjksgXecma0IqryxdRalTypjxk0hLjGakNZpHnnuS8ZeNo7IZpmXGsfHTj3EGJzBvWhbtTRV8tvZkPQQpi+5eTPP6Z/wCwXdEJeXwwB3xgwgECRqNhlnzfkF98XLySyvp7ZFx3XeuQS9z8/Fby2nr53emk2JC6iiuvvNeonsr2X+knN0bllHRqmP6rNmYlQ7W/mM1rb1qci7PQqoIIEDSzZoNW4kKszLLbKNOamVDYTHtvU4kUjlzUsJYd6QK1yDbIYfigzDUy5w9ejTe1hPsrerwnxKo13HbyGD+b/fZNtRf7M8nEO7NsrKxpI7DLT2nCk1NTY4nTOnEg5JNRWVYLBZaOruo7y/WNCE+gimJoby+oYC7Jsbw/I5SHrzltJPijJQYysvqSBsTi+t4A9FpEdQ1dxOrcfDn/dXEBRmIDtITExaCur2Zbk0ATR3d2L1SNDInfy+sIdgUwm/mxVPZJqOn/hiFBxqJnDKSN7cVDhWLaCcICAKCgCDwFQlcUIHwxZhGTL2N2SO8rN66n+tyrubZV57jvl/8ks7KQo636Lh5kpL/euYj4qMjuPqa2Tzz1O/7uziPQJBIiI1LJChQj6OrjSNlNWRnT2HylGvpqN/D8coqdu/cgzkuiXt/uIg/3P/fA1otG4xBTLrz52R05rFyUy4NDRXc/pNfUbHlA445rNwwPZKn//czfv/ar1j52itYRk7mxMfL2d7QdA5+jVrLoswY3th1tH/5/twr9M8SCCqVhkevHc/jH2yls/8NR2ZKCqquOnZWnZRCA98hJ1cQNjbJuHFcPB+t30OJW8q8lAimxOv4W34TseGh1DV30ONwoFGqyS09QQ8ynrxpCg+s2EJ8TAL65jKuuXr6KatltVJJXFg4BqmT1romdGFGZFI5IXol6w+V4/B4SY4II0oNGqOR5uY21BKfC6SK443NNNlchOvUJIZp+XtBA/E6FdcnKqj2aliae2456q94/4vTBAFBQBAQBAYhcFEFwvwlr+D4+FnW5R7j7kX38dLbL3LfWVbLfVHKFUru+em9vPjsEAWCVMr4CVOItoZga6xi1dY9/n6+qtXylLbt/loMioBAXnjuKaQejz+/oKv5KI8/+T4PPHJ+J0X/PKS+nITB3ZSGKhDO18/EsRmkdBfx1+I+O2aJVMHvFk7l2RUbaTpPSsSZrxh8+Rpah8O/uqJRKlg81coTGyq45+rp/OnTLf6+M0akUFp8lC6J9CyrZYVMzkM3T2VJf7EmhVzBI7MT+Lioh6KqOsKMJu5MN/Pr9YX+BILEYBNKezeJcRHsOlrJ3IkjqSgvoaRHidneTqNcT3KokcQwE53eAI4W7GPc1Gk0FRxlZcnABajEUy4ICAKCgCDwzyNwUQXCqHl3MyfGRkE9zBppZfFjT54jEAJDrCTHxXDVdVfx0XsfUHSkkPiRY5h71Q10HPyAT3eW0S0xMGHS5dw0M4wX/riC/OLSAYmcJRCUWjLHjeW7372ZNa/9le3FxWgMVrInzyNnnIY33nif/OIyEmbdzl2Zgaxcs4PysgJuvufXdB3exuHKFvC62X+gdkhWy75qh/dOjuf5DXlfq5pjcKCRu7IieXpDwYBzlMnk/HhaKn/ZdIiTPoTjUlOYqGzmT3mN571TBstBkMlk/GrWCNYXNjB61Gj+/I8+q+eTAkEbqOfqtEj2l1RT0NhBeJCROSOCeHX3cX+7CGsE3wlqZo/NxOjEKA4VV1PWZUPmlTAn0sPL+W1kxYcjtffS45GgVqkYYdJRUF1LXkNfcqpKqeGG9AiyEqN45pNtjMqYgLGrkg8Offlrk/NOWjQQBAQBQUAQOC+BiyoQfNFMyJmNurOcpg4FBcUFjBk3hs9zPz8VqDU+lQkZKf6/PW4XWzeuI/vKuWj8/+Kl+OAB2iShXDYm2v8vPc01rO5fMfjibGPisrG1FNLY3gUBRq6fldPXxONi+/ZtGEJSSE+19vXTVMXqbft8v/vJnjGTcJOG3O0fcqJZxbTLryBII2H/rm1UNbmZPCWVvTv3M0iJhf4wZExOMLP7eL1/58VAx1BWEPQaDQ/Nz+TBD7YP2IfZaGJ+lI6lhyr9n/uqWN4/M50/rT3IALmJ5/Th+xL+ToKGN46cnaToEx4/nZrAnzcX8d350yg6WuI/16gPZMPnRxiTFMuB0nLMJhM3jkkgJECFSiFHoZCwcvsBqiQm5mib2N+rpau1FWtkPHqNjECvkzWFpdTZQSGXEWkKZFpyBI1VtXxWfvpVjW/Xyvj4aAz2DrbVdzMnI4H22hOYY5OhrYGPC6qHNL/zPgGigSAgCAgCgsCABC66QBDX4TSBrO8/isxlp3LfKmoKczGkTSc1exr6oAbWP/cyKoWKqzJiqayuY29t+4DoTHo9ShzUd/bJAd8v/xRzAIX1fcmK5zt8Ww0NcgntA6gd3+5Fn7YJ1mtp7uwrwiSXy3G5Bt9aenI839ZPk0JGm8M1YE0IhUxGiE6Ny+mgweY8J0y9SoHb4fR7Hph0WmQuJ03+5E8ZiUYlJS09g1bJPN+cxeeCgCAgCAgC5ydwrkAwRODyuGm2nbZadnrO/g88IiICu90urJbPz1e0EAQEAUFAEBAEvpEEzhEIRpWRiIBwXJ7TvxLLOnxZ56d97hQKBV6vd0i/JL+RVETQgoAgIAgIAoLAt5zAOQLhW85DTF8QEAQEAUFAEBAEfDvioqOjz0mhizfNYrYljHdL3qfNdTI3XvASBAQBQUAQEAQEgW8LgUFXEMaFXUWys5B3m/use8UhCAgCgoAgIAgIAt8eAoMKhLTgbMbLm1haP7DHwLcHkZipICAICAKCgCDw7SMwqECIDszgVksSr59YT6P9y+16v33YxIwFAUFAEBAEBIFLm8CgAsESkMo9CVfwXtmnHO48IfacX9r3gZidICAICAKCgCBwFoEhv2Kwms38evZIlizfQp1bUBQEBAFBQBAQBASBS5nAlwiESYyX15/KQdDrDTy7IJsn3lpHxfmN9C5lZmJugoAgIAgIAoLAJU9gQIEQFjCOBXE57Cp/hwNddX4IP545kaKiQjZVDs3C95InJyYoCAgCgoAgIAhcwgQGFAhqucnvz9/U28J5qgVfwmjE1AQBQUAQEAQEgW8vAeGk+O299mLmgoAgIAgIAoLAoASEQBA3hyAgCAgCgoAgIAicQ2BAgaBRqQnVykGhoLWtjQ7HOW7MhFqjaKmvxuUZ3ksIjVZLj62vdPDXOYKt0Vh1HgqOVZ3VTWh4FPaWStrtUkxBQUg8Tlpa+0olm02BOO12zAFKyhs7BixDPFBMgaoI5kRM5ljLXnLbyr9O2OJcQUAQEAQEAUHgG0FgQIGQEBXDrWkmCA5n4/rV7Gg4VwT8x70P8enS39PaNbxaDQtuu40Pl7+L2z08YfFFmsnjZ5AZ5mLZp9vP+EjGHff/kspPfodr9HcYH6VFERTF52vfZNXuEq7PmUJtdRWLxkbw4IoddA7xEs2MupYuWwn5rcewnVHVcoini2aCgCAgCAgCgsA3jsD/AzMJ75hGMEXnAAAAAElFTkSuQmCC;" vertex="1" parent="WIyWlLk6GJQsqaUBKTNV-1">
          <mxGeometry x="2181.002807006836" y="628.5028146362305" width="520" height="350" as="geometry" />
        </mxCell>
      </root>
    </mxGraphModel>
  </diagram>
</mxfile>
